<?xml version="1.0" encoding="utf-8" standalone="no"?>
<!DOCTYPE svg PUBLIC "-//W3C//DTD SVG 1.1//EN"
  "http://www.w3.org/Graphics/SVG/1.1/DTD/svg11.dtd">
<svg height="494.272281pt" version="1.1" viewBox="0 0 659.120937 494.272281" width="659.120937pt" xmlns="http://www.w3.org/2000/svg" xmlns:xlink="http://www.w3.org/1999/xlink">
 <metadata>
  <rdf:RDF xmlns:cc="http://creativecommons.org/ns#" xmlns:dc="http://purl.org/dc/elements/1.1/" xmlns:rdf="http://www.w3.org/1999/02/22-rdf-syntax-ns#">
   <cc:Work>
    <dc:type rdf:resource="http://purl.org/dc/dcmitype/StillImage"/>
    <dc:date>2023-12-06T12:08:02.460500</dc:date>
    <dc:format>image/svg+xml</dc:format>
    <dc:creator>
     <cc:Agent>
      <dc:title>Matplotlib v3.4.1, https://matplotlib.org/</dc:title>
     </cc:Agent>
    </dc:creator>
   </cc:Work>
  </rdf:RDF>
 </metadata>
 <defs>
  <style type="text/css">*{stroke-linecap:butt;stroke-linejoin:round;}</style>
 </defs>
 <g id="figure_1">
  <g id="patch_1">
   <path d="M 0 494.272281 
L 659.120937 494.272281 
L 659.120937 0 
L 0 0 
z
" style="fill:none;"/>
  </g>
  <g id="axes_1">
   <g id="LineCollection_1">
    <path clip-path="url(#p2243e03878)" d="M 370.237458 200.174477 
L 310.557508 220.194773 
" style="fill:none;stroke:#000000;stroke-opacity:0.1;stroke-width:1.414214;"/>
    <path clip-path="url(#p2243e03878)" d="M 310.557508 220.194773 
L 250.701995 228.836393 
" style="fill:none;stroke:#000000;stroke-opacity:0.1;stroke-width:1.414214;"/>
    <path clip-path="url(#p2243e03878)" d="M 310.557508 220.194773 
L 271.418393 205.163158 
" style="fill:none;stroke:#000000;stroke-opacity:0.1;stroke-width:1.414214;"/>
    <path clip-path="url(#p2243e03878)" d="M 310.557508 220.194773 
L 279.237253 249.543264 
" style="fill:none;stroke:#000000;stroke-opacity:0.1;stroke-width:1.414214;"/>
    <path clip-path="url(#p2243e03878)" d="M 202.33086 450.001632 
L 180.460622 467.305009 
" style="fill:none;stroke:#000000;stroke-opacity:0.1;stroke-width:1.414214;"/>
    <path clip-path="url(#p2243e03878)" d="M 202.33086 450.001632 
L 149.931975 457.096555 
" style="fill:none;stroke:#000000;stroke-opacity:0.1;stroke-width:1.414214;"/>
    <path clip-path="url(#p2243e03878)" d="M 202.33086 450.001632 
L 176.315376 418.390244 
" style="fill:none;stroke:#000000;stroke-opacity:0.1;stroke-width:1.414214;"/>
    <path clip-path="url(#p2243e03878)" d="M 180.460622 467.305009 
L 149.931975 457.096555 
" style="fill:none;stroke:#000000;stroke-opacity:0.1;stroke-width:1.414214;"/>
    <path clip-path="url(#p2243e03878)" d="M 180.460622 467.305009 
L 176.315376 418.390244 
" style="fill:none;stroke:#000000;stroke-opacity:0.1;stroke-width:1.414214;"/>
    <path clip-path="url(#p2243e03878)" d="M 149.931975 457.096555 
L 176.315376 418.390244 
" style="fill:none;stroke:#000000;stroke-opacity:0.1;stroke-width:1.414214;"/>
    <path clip-path="url(#p2243e03878)" d="M 250.701995 228.836393 
L 271.418393 205.163158 
" style="fill:none;stroke:#000000;stroke-opacity:0.1;stroke-width:1.414214;"/>
    <path clip-path="url(#p2243e03878)" d="M 250.701995 228.836393 
L 279.237253 249.543264 
" style="fill:none;stroke:#000000;stroke-opacity:0.1;stroke-width:1.414214;"/>
    <path clip-path="url(#p2243e03878)" d="M 271.418393 205.163158 
L 279.237253 249.543264 
" style="fill:none;stroke:#000000;stroke-opacity:0.1;stroke-width:1.414214;"/>
   </g>
   <g id="PathCollection_1">
    <path clip-path="url(#p2243e03878)" d="M 370.237458 203.191565 
C 371.037599 203.191565 371.805076 202.873666 372.370862 202.30788 
C 372.936647 201.742095 373.254546 200.974618 373.254546 200.174477 
C 373.254546 199.374336 372.936647 198.606859 372.370862 198.041073 
C 371.805076 197.475288 371.037599 197.157389 370.237458 197.157389 
C 369.437317 197.157389 368.66984 197.475288 368.104055 198.041073 
C 367.538269 198.606859 367.22037 199.374336 367.22037 200.174477 
C 367.22037 200.974618 367.538269 201.742095 368.104055 202.30788 
C 368.66984 202.873666 369.437317 203.191565 370.237458 203.191565 
z
" style="fill:#ff8000;fill-opacity:0.5;stroke:#ff8000;stroke-opacity:0.5;stroke-width:1.5;"/>
    <path clip-path="url(#p2243e03878)" d="M 310.557508 222.185309 
C 311.085404 222.185309 311.59175 221.975574 311.96503 221.602294 
C 312.338309 221.229015 312.548044 220.722669 312.548044 220.194773 
C 312.548044 219.666877 312.338309 219.160531 311.96503 218.787252 
C 311.59175 218.413973 311.085404 218.204237 310.557508 218.204237 
C 310.029612 218.204237 309.523266 218.413973 309.149987 218.787252 
C 308.776708 219.160531 308.566972 219.666877 308.566972 220.194773 
C 308.566972 220.722669 308.776708 221.229015 309.149987 221.602294 
C 309.523266 221.975574 310.029612 222.185309 310.557508 222.185309 
z
" style="fill:#dd82ee;fill-opacity:0.5;stroke:#dd82ee;stroke-opacity:0.5;stroke-width:1.5;"/>
    <path clip-path="url(#p2243e03878)" d="M 202.33086 453.01872 
C 203.131001 453.01872 203.898478 452.700821 204.464264 452.135035 
C 205.030049 451.56925 205.347948 450.801773 205.347948 450.001632 
C 205.347948 449.201491 205.030049 448.434014 204.464264 447.868228 
C 203.898478 447.302443 203.131001 446.984544 202.33086 446.984544 
C 201.530719 446.984544 200.763242 447.302443 200.197457 447.868228 
C 199.631671 448.434014 199.313772 449.201491 199.313772 450.001632 
C 199.313772 450.801773 199.631671 451.56925 200.197457 452.135035 
C 200.763242 452.700821 201.530719 453.01872 202.33086 453.01872 
z
" style="fill:#80bf80;fill-opacity:0.5;stroke:#80bf80;stroke-opacity:0.5;stroke-width:1.5;"/>
    <path clip-path="url(#p2243e03878)" d="M 180.460622 469.295544 
C 180.988518 469.295544 181.494864 469.085809 181.868143 468.71253 
C 182.241422 468.339251 182.451157 467.832905 182.451157 467.305009 
C 182.451157 466.777112 182.241422 466.270766 181.868143 465.897487 
C 181.494864 465.524208 180.988518 465.314473 180.460622 465.314473 
C 179.932725 465.314473 179.426379 465.524208 179.0531 465.897487 
C 178.679821 466.270766 178.470086 466.777112 178.470086 467.305009 
C 178.470086 467.832905 178.679821 468.339251 179.0531 468.71253 
C 179.426379 469.085809 179.932725 469.295544 180.460622 469.295544 
z
" style="fill:#0507a2;fill-opacity:0.5;stroke:#0507a2;stroke-opacity:0.5;stroke-width:1.5;"/>
    <path clip-path="url(#p2243e03878)" d="M 149.931975 459.087091 
C 150.459871 459.087091 150.966217 458.877355 151.339496 458.504076 
C 151.712775 458.130797 151.922511 457.624451 151.922511 457.096555 
C 151.922511 456.568659 151.712775 456.062312 151.339496 455.689033 
C 150.966217 455.315754 150.459871 455.106019 149.931975 455.106019 
C 149.404078 455.106019 148.897732 455.315754 148.524453 455.689033 
C 148.151174 456.062312 147.941439 456.568659 147.941439 457.096555 
C 147.941439 457.624451 148.151174 458.130797 148.524453 458.504076 
C 148.897732 458.877355 149.404078 459.087091 149.931975 459.087091 
z
" style="fill:#0507a2;fill-opacity:0.5;stroke:#0507a2;stroke-opacity:0.5;stroke-width:1.5;"/>
    <path clip-path="url(#p2243e03878)" d="M 176.315376 420.38078 
C 176.843273 420.38078 177.349619 420.171045 177.722898 419.797766 
C 178.096177 419.424487 178.305912 418.918141 178.305912 418.390244 
C 178.305912 417.862348 178.096177 417.356002 177.722898 416.982723 
C 177.349619 416.609444 176.843273 416.399708 176.315376 416.399708 
C 175.78748 416.399708 175.281134 416.609444 174.907855 416.982723 
C 174.534576 417.356002 174.32484 417.862348 174.32484 418.390244 
C 174.32484 418.918141 174.534576 419.424487 174.907855 419.797766 
C 175.281134 420.171045 175.78748 420.38078 176.315376 420.38078 
z
" style="fill:#0507a2;fill-opacity:0.5;stroke:#0507a2;stroke-opacity:0.5;stroke-width:1.5;"/>
    <path clip-path="url(#p2243e03878)" d="M 250.701995 230.826928 
C 251.229891 230.826928 251.736237 230.617193 252.109516 230.243914 
C 252.482795 229.870635 252.69253 229.364289 252.69253 228.836393 
C 252.69253 228.308496 252.482795 227.80215 252.109516 227.428871 
C 251.736237 227.055592 251.229891 226.845857 250.701995 226.845857 
C 250.174098 226.845857 249.667752 227.055592 249.294473 227.428871 
C 248.921194 227.80215 248.711459 228.308496 248.711459 228.836393 
C 248.711459 229.364289 248.921194 229.870635 249.294473 230.243914 
C 249.667752 230.617193 250.174098 230.826928 250.701995 230.826928 
z
" style="fill:#dd82ee;fill-opacity:0.5;stroke:#dd82ee;stroke-opacity:0.5;stroke-width:1.5;"/>
    <path clip-path="url(#p2243e03878)" d="M 271.418393 207.153694 
C 271.946289 207.153694 272.452635 206.943959 272.825914 206.57068 
C 273.199193 206.197401 273.408929 205.691055 273.408929 205.163158 
C 273.408929 204.635262 273.199193 204.128916 272.825914 203.755637 
C 272.452635 203.382358 271.946289 203.172622 271.418393 203.172622 
C 270.890497 203.172622 270.38415 203.382358 270.010871 203.755637 
C 269.637592 204.128916 269.427857 204.635262 269.427857 205.163158 
C 269.427857 205.691055 269.637592 206.197401 270.010871 206.57068 
C 270.38415 206.943959 270.890497 207.153694 271.418393 207.153694 
z
" style="fill:#dd82ee;fill-opacity:0.5;stroke:#dd82ee;stroke-opacity:0.5;stroke-width:1.5;"/>
    <path clip-path="url(#p2243e03878)" d="M 279.237253 251.5338 
C 279.765149 251.5338 280.271495 251.324064 280.644774 250.950785 
C 281.018053 250.577506 281.227789 250.07116 281.227789 249.543264 
C 281.227789 249.015368 281.018053 248.509022 280.644774 248.135743 
C 280.271495 247.762464 279.765149 247.552728 279.237253 247.552728 
C 278.709356 247.552728 278.20301 247.762464 277.829731 248.135743 
C 277.456452 248.509022 277.246717 249.015368 277.246717 249.543264 
C 277.246717 250.07116 277.456452 250.577506 277.829731 250.950785 
C 278.20301 251.324064 278.709356 251.5338 279.237253 251.5338 
z
" style="fill:#dd82ee;fill-opacity:0.5;stroke:#dd82ee;stroke-opacity:0.5;stroke-width:1.5;"/>
    <path clip-path="url(#p2243e03878)" d="M 27.490909 337.715745 
C 28.29105 337.715745 29.058527 337.397845 29.624313 336.83206 
C 30.190098 336.266275 30.507997 335.498798 30.507997 334.698656 
C 30.507997 333.898515 30.190098 333.131038 29.624313 332.565253 
C 29.058527 331.999468 28.29105 331.681568 27.490909 331.681568 
C 26.690768 331.681568 25.923291 331.999468 25.357506 332.565253 
C 24.79172 333.131038 24.473821 333.898515 24.473821 334.698656 
C 24.473821 335.498798 24.79172 336.266275 25.357506 336.83206 
C 25.923291 337.397845 26.690768 337.715745 27.490909 337.715745 
z
" style="fill:#00ff00;fill-opacity:0.5;stroke:#00ff00;stroke-opacity:0.5;stroke-width:1.5;"/>
    <path clip-path="url(#p2243e03878)" d="M 376.821715 89.603622 
C 377.621856 89.603622 378.389333 89.285723 378.955118 88.719938 
C 379.520903 88.154152 379.838803 87.386675 379.838803 86.586534 
C 379.838803 85.786393 379.520903 85.018916 378.955118 84.453131 
C 378.389333 83.887345 377.621856 83.569446 376.821715 83.569446 
C 376.021573 83.569446 375.254096 83.887345 374.688311 84.453131 
C 374.122526 85.018916 373.804626 85.786393 373.804626 86.586534 
C 373.804626 87.386675 374.122526 88.154152 374.688311 88.719938 
C 375.254096 89.285723 376.021573 89.603622 376.821715 89.603622 
z
" style="fill:#0080ff;fill-opacity:0.5;stroke:#0080ff;stroke-opacity:0.5;stroke-width:1.5;"/>
    <path clip-path="url(#p2243e03878)" d="M 188.766134 73.95009 
C 189.29403 73.95009 189.800376 73.740354 190.173655 73.367075 
C 190.546934 72.993796 190.75667 72.48745 190.75667 71.959554 
C 190.75667 71.431658 190.546934 70.925312 190.173655 70.552033 
C 189.800376 70.178754 189.29403 69.969018 188.766134 69.969018 
C 188.238238 69.969018 187.731892 70.178754 187.358613 70.552033 
C 186.985334 70.925312 186.775598 71.431658 186.775598 71.959554 
C 186.775598 72.48745 186.985334 72.993796 187.358613 73.367075 
C 187.731892 73.740354 188.238238 73.95009 188.766134 73.95009 
z
" style="fill:#0507a2;fill-opacity:0.5;stroke:#0507a2;stroke-opacity:0.5;stroke-width:1.5;"/>
    <path clip-path="url(#p2243e03878)" d="M 433.309091 304.298142 
C 434.109232 304.298142 434.876709 303.980242 435.442494 303.414457 
C 436.00828 302.848672 436.326179 302.081195 436.326179 301.281053 
C 436.326179 300.480912 436.00828 299.713435 435.442494 299.14765 
C 434.876709 298.581865 434.109232 298.263965 433.309091 298.263965 
C 432.50895 298.263965 431.741473 298.581865 431.175687 299.14765 
C 430.609902 299.713435 430.292003 300.480912 430.292003 301.281053 
C 430.292003 302.081195 430.609902 302.848672 431.175687 303.414457 
C 431.741473 303.980242 432.50895 304.298142 433.309091 304.298142 
z
" style="fill:#00ffff;fill-opacity:0.5;stroke:#00ffff;stroke-opacity:0.5;stroke-width:1.5;"/>
   </g>
   <g id="text_1">
    <!-- Design -->
    <g style="fill:#00ff00;" transform="translate(13.047412 337.007315)scale(0.083666 -0.083666)">
     <defs>
      <path d="M 1259 4147 
L 1259 519 
L 2022 519 
Q 2988 519 3436 956 
Q 3884 1394 3884 2338 
Q 3884 3275 3436 3711 
Q 2988 4147 2022 4147 
L 1259 4147 
z
M 628 4666 
L 1925 4666 
Q 3281 4666 3915 4102 
Q 4550 3538 4550 2338 
Q 4550 1131 3912 565 
Q 3275 0 1925 0 
L 628 0 
L 628 4666 
z
" id="DejaVuSans-44" transform="scale(0.015625)"/>
      <path d="M 3597 1894 
L 3597 1613 
L 953 1613 
Q 991 1019 1311 708 
Q 1631 397 2203 397 
Q 2534 397 2845 478 
Q 3156 559 3463 722 
L 3463 178 
Q 3153 47 2828 -22 
Q 2503 -91 2169 -91 
Q 1331 -91 842 396 
Q 353 884 353 1716 
Q 353 2575 817 3079 
Q 1281 3584 2069 3584 
Q 2775 3584 3186 3129 
Q 3597 2675 3597 1894 
z
M 3022 2063 
Q 3016 2534 2758 2815 
Q 2500 3097 2075 3097 
Q 1594 3097 1305 2825 
Q 1016 2553 972 2059 
L 3022 2063 
z
" id="DejaVuSans-65" transform="scale(0.015625)"/>
      <path d="M 2834 3397 
L 2834 2853 
Q 2591 2978 2328 3040 
Q 2066 3103 1784 3103 
Q 1356 3103 1142 2972 
Q 928 2841 928 2578 
Q 928 2378 1081 2264 
Q 1234 2150 1697 2047 
L 1894 2003 
Q 2506 1872 2764 1633 
Q 3022 1394 3022 966 
Q 3022 478 2636 193 
Q 2250 -91 1575 -91 
Q 1294 -91 989 -36 
Q 684 19 347 128 
L 347 722 
Q 666 556 975 473 
Q 1284 391 1588 391 
Q 1994 391 2212 530 
Q 2431 669 2431 922 
Q 2431 1156 2273 1281 
Q 2116 1406 1581 1522 
L 1381 1569 
Q 847 1681 609 1914 
Q 372 2147 372 2553 
Q 372 3047 722 3315 
Q 1072 3584 1716 3584 
Q 2034 3584 2315 3537 
Q 2597 3491 2834 3397 
z
" id="DejaVuSans-73" transform="scale(0.015625)"/>
      <path d="M 603 3500 
L 1178 3500 
L 1178 0 
L 603 0 
L 603 3500 
z
M 603 4863 
L 1178 4863 
L 1178 4134 
L 603 4134 
L 603 4863 
z
" id="DejaVuSans-69" transform="scale(0.015625)"/>
      <path d="M 2906 1791 
Q 2906 2416 2648 2759 
Q 2391 3103 1925 3103 
Q 1463 3103 1205 2759 
Q 947 2416 947 1791 
Q 947 1169 1205 825 
Q 1463 481 1925 481 
Q 2391 481 2648 825 
Q 2906 1169 2906 1791 
z
M 3481 434 
Q 3481 -459 3084 -895 
Q 2688 -1331 1869 -1331 
Q 1566 -1331 1297 -1286 
Q 1028 -1241 775 -1147 
L 775 -588 
Q 1028 -725 1275 -790 
Q 1522 -856 1778 -856 
Q 2344 -856 2625 -561 
Q 2906 -266 2906 331 
L 2906 616 
Q 2728 306 2450 153 
Q 2172 0 1784 0 
Q 1141 0 747 490 
Q 353 981 353 1791 
Q 353 2603 747 3093 
Q 1141 3584 1784 3584 
Q 2172 3584 2450 3431 
Q 2728 3278 2906 2969 
L 2906 3500 
L 3481 3500 
L 3481 434 
z
" id="DejaVuSans-67" transform="scale(0.015625)"/>
      <path d="M 3513 2113 
L 3513 0 
L 2938 0 
L 2938 2094 
Q 2938 2591 2744 2837 
Q 2550 3084 2163 3084 
Q 1697 3084 1428 2787 
Q 1159 2491 1159 1978 
L 1159 0 
L 581 0 
L 581 3500 
L 1159 3500 
L 1159 2956 
Q 1366 3272 1645 3428 
Q 1925 3584 2291 3584 
Q 2894 3584 3203 3211 
Q 3513 2838 3513 2113 
z
" id="DejaVuSans-6e" transform="scale(0.015625)"/>
     </defs>
     <use xlink:href="#DejaVuSans-44"/>
     <use x="77.001953" xlink:href="#DejaVuSans-65"/>
     <use x="138.525391" xlink:href="#DejaVuSans-73"/>
     <use x="190.625" xlink:href="#DejaVuSans-69"/>
     <use x="218.408203" xlink:href="#DejaVuSans-67"/>
     <use x="281.884766" xlink:href="#DejaVuSans-6e"/>
    </g>
   </g>
   <g id="text_2">
    <!-- User Experience -->
    <g style="fill:#0080ff;" transform="translate(342.627158 88.895193)scale(0.083666 -0.083666)">
     <defs>
      <path d="M 556 4666 
L 1191 4666 
L 1191 1831 
Q 1191 1081 1462 751 
Q 1734 422 2344 422 
Q 2950 422 3222 751 
Q 3494 1081 3494 1831 
L 3494 4666 
L 4128 4666 
L 4128 1753 
Q 4128 841 3676 375 
Q 3225 -91 2344 -91 
Q 1459 -91 1007 375 
Q 556 841 556 1753 
L 556 4666 
z
" id="DejaVuSans-55" transform="scale(0.015625)"/>
      <path d="M 2631 2963 
Q 2534 3019 2420 3045 
Q 2306 3072 2169 3072 
Q 1681 3072 1420 2755 
Q 1159 2438 1159 1844 
L 1159 0 
L 581 0 
L 581 3500 
L 1159 3500 
L 1159 2956 
Q 1341 3275 1631 3429 
Q 1922 3584 2338 3584 
Q 2397 3584 2469 3576 
Q 2541 3569 2628 3553 
L 2631 2963 
z
" id="DejaVuSans-72" transform="scale(0.015625)"/>
      <path id="DejaVuSans-20" transform="scale(0.015625)"/>
      <path d="M 628 4666 
L 3578 4666 
L 3578 4134 
L 1259 4134 
L 1259 2753 
L 3481 2753 
L 3481 2222 
L 1259 2222 
L 1259 531 
L 3634 531 
L 3634 0 
L 628 0 
L 628 4666 
z
" id="DejaVuSans-45" transform="scale(0.015625)"/>
      <path d="M 3513 3500 
L 2247 1797 
L 3578 0 
L 2900 0 
L 1881 1375 
L 863 0 
L 184 0 
L 1544 1831 
L 300 3500 
L 978 3500 
L 1906 2253 
L 2834 3500 
L 3513 3500 
z
" id="DejaVuSans-78" transform="scale(0.015625)"/>
      <path d="M 1159 525 
L 1159 -1331 
L 581 -1331 
L 581 3500 
L 1159 3500 
L 1159 2969 
Q 1341 3281 1617 3432 
Q 1894 3584 2278 3584 
Q 2916 3584 3314 3078 
Q 3713 2572 3713 1747 
Q 3713 922 3314 415 
Q 2916 -91 2278 -91 
Q 1894 -91 1617 61 
Q 1341 213 1159 525 
z
M 3116 1747 
Q 3116 2381 2855 2742 
Q 2594 3103 2138 3103 
Q 1681 3103 1420 2742 
Q 1159 2381 1159 1747 
Q 1159 1113 1420 752 
Q 1681 391 2138 391 
Q 2594 391 2855 752 
Q 3116 1113 3116 1747 
z
" id="DejaVuSans-70" transform="scale(0.015625)"/>
      <path d="M 3122 3366 
L 3122 2828 
Q 2878 2963 2633 3030 
Q 2388 3097 2138 3097 
Q 1578 3097 1268 2742 
Q 959 2388 959 1747 
Q 959 1106 1268 751 
Q 1578 397 2138 397 
Q 2388 397 2633 464 
Q 2878 531 3122 666 
L 3122 134 
Q 2881 22 2623 -34 
Q 2366 -91 2075 -91 
Q 1284 -91 818 406 
Q 353 903 353 1747 
Q 353 2603 823 3093 
Q 1294 3584 2113 3584 
Q 2378 3584 2631 3529 
Q 2884 3475 3122 3366 
z
" id="DejaVuSans-63" transform="scale(0.015625)"/>
     </defs>
     <use xlink:href="#DejaVuSans-55"/>
     <use x="73.193359" xlink:href="#DejaVuSans-73"/>
     <use x="125.292969" xlink:href="#DejaVuSans-65"/>
     <use x="186.816406" xlink:href="#DejaVuSans-72"/>
     <use x="227.929688" xlink:href="#DejaVuSans-20"/>
     <use x="259.716797" xlink:href="#DejaVuSans-45"/>
     <use x="322.900391" xlink:href="#DejaVuSans-78"/>
     <use x="382.080078" xlink:href="#DejaVuSans-70"/>
     <use x="445.556641" xlink:href="#DejaVuSans-65"/>
     <use x="507.080078" xlink:href="#DejaVuSans-72"/>
     <use x="548.193359" xlink:href="#DejaVuSans-69"/>
     <use x="575.976562" xlink:href="#DejaVuSans-65"/>
     <use x="637.5" xlink:href="#DejaVuSans-6e"/>
     <use x="700.878906" xlink:href="#DejaVuSans-63"/>
     <use x="755.859375" xlink:href="#DejaVuSans-65"/>
    </g>
   </g>
   <g id="text_3">
    <!-- Original Music Score -->
    <g style="fill:#ff8000;" transform="translate(327.591328 202.483136)scale(0.083666 -0.083666)">
     <defs>
      <path d="M 2522 4238 
Q 1834 4238 1429 3725 
Q 1025 3213 1025 2328 
Q 1025 1447 1429 934 
Q 1834 422 2522 422 
Q 3209 422 3611 934 
Q 4013 1447 4013 2328 
Q 4013 3213 3611 3725 
Q 3209 4238 2522 4238 
z
M 2522 4750 
Q 3503 4750 4090 4092 
Q 4678 3434 4678 2328 
Q 4678 1225 4090 567 
Q 3503 -91 2522 -91 
Q 1538 -91 948 565 
Q 359 1222 359 2328 
Q 359 3434 948 4092 
Q 1538 4750 2522 4750 
z
" id="DejaVuSans-4f" transform="scale(0.015625)"/>
      <path d="M 2194 1759 
Q 1497 1759 1228 1600 
Q 959 1441 959 1056 
Q 959 750 1161 570 
Q 1363 391 1709 391 
Q 2188 391 2477 730 
Q 2766 1069 2766 1631 
L 2766 1759 
L 2194 1759 
z
M 3341 1997 
L 3341 0 
L 2766 0 
L 2766 531 
Q 2569 213 2275 61 
Q 1981 -91 1556 -91 
Q 1019 -91 701 211 
Q 384 513 384 1019 
Q 384 1609 779 1909 
Q 1175 2209 1959 2209 
L 2766 2209 
L 2766 2266 
Q 2766 2663 2505 2880 
Q 2244 3097 1772 3097 
Q 1472 3097 1187 3025 
Q 903 2953 641 2809 
L 641 3341 
Q 956 3463 1253 3523 
Q 1550 3584 1831 3584 
Q 2591 3584 2966 3190 
Q 3341 2797 3341 1997 
z
" id="DejaVuSans-61" transform="scale(0.015625)"/>
      <path d="M 603 4863 
L 1178 4863 
L 1178 0 
L 603 0 
L 603 4863 
z
" id="DejaVuSans-6c" transform="scale(0.015625)"/>
      <path d="M 628 4666 
L 1569 4666 
L 2759 1491 
L 3956 4666 
L 4897 4666 
L 4897 0 
L 4281 0 
L 4281 4097 
L 3078 897 
L 2444 897 
L 1241 4097 
L 1241 0 
L 628 0 
L 628 4666 
z
" id="DejaVuSans-4d" transform="scale(0.015625)"/>
      <path d="M 544 1381 
L 544 3500 
L 1119 3500 
L 1119 1403 
Q 1119 906 1312 657 
Q 1506 409 1894 409 
Q 2359 409 2629 706 
Q 2900 1003 2900 1516 
L 2900 3500 
L 3475 3500 
L 3475 0 
L 2900 0 
L 2900 538 
Q 2691 219 2414 64 
Q 2138 -91 1772 -91 
Q 1169 -91 856 284 
Q 544 659 544 1381 
z
M 1991 3584 
L 1991 3584 
z
" id="DejaVuSans-75" transform="scale(0.015625)"/>
      <path d="M 3425 4513 
L 3425 3897 
Q 3066 4069 2747 4153 
Q 2428 4238 2131 4238 
Q 1616 4238 1336 4038 
Q 1056 3838 1056 3469 
Q 1056 3159 1242 3001 
Q 1428 2844 1947 2747 
L 2328 2669 
Q 3034 2534 3370 2195 
Q 3706 1856 3706 1288 
Q 3706 609 3251 259 
Q 2797 -91 1919 -91 
Q 1588 -91 1214 -16 
Q 841 59 441 206 
L 441 856 
Q 825 641 1194 531 
Q 1563 422 1919 422 
Q 2459 422 2753 634 
Q 3047 847 3047 1241 
Q 3047 1584 2836 1778 
Q 2625 1972 2144 2069 
L 1759 2144 
Q 1053 2284 737 2584 
Q 422 2884 422 3419 
Q 422 4038 858 4394 
Q 1294 4750 2059 4750 
Q 2388 4750 2728 4690 
Q 3069 4631 3425 4513 
z
" id="DejaVuSans-53" transform="scale(0.015625)"/>
      <path d="M 1959 3097 
Q 1497 3097 1228 2736 
Q 959 2375 959 1747 
Q 959 1119 1226 758 
Q 1494 397 1959 397 
Q 2419 397 2687 759 
Q 2956 1122 2956 1747 
Q 2956 2369 2687 2733 
Q 2419 3097 1959 3097 
z
M 1959 3584 
Q 2709 3584 3137 3096 
Q 3566 2609 3566 1747 
Q 3566 888 3137 398 
Q 2709 -91 1959 -91 
Q 1206 -91 779 398 
Q 353 888 353 1747 
Q 353 2609 779 3096 
Q 1206 3584 1959 3584 
z
" id="DejaVuSans-6f" transform="scale(0.015625)"/>
     </defs>
     <use xlink:href="#DejaVuSans-4f"/>
     <use x="78.710938" xlink:href="#DejaVuSans-72"/>
     <use x="119.824219" xlink:href="#DejaVuSans-69"/>
     <use x="147.607422" xlink:href="#DejaVuSans-67"/>
     <use x="211.083984" xlink:href="#DejaVuSans-69"/>
     <use x="238.867188" xlink:href="#DejaVuSans-6e"/>
     <use x="302.246094" xlink:href="#DejaVuSans-61"/>
     <use x="363.525391" xlink:href="#DejaVuSans-6c"/>
     <use x="391.308594" xlink:href="#DejaVuSans-20"/>
     <use x="423.095703" xlink:href="#DejaVuSans-4d"/>
     <use x="509.375" xlink:href="#DejaVuSans-75"/>
     <use x="572.753906" xlink:href="#DejaVuSans-73"/>
     <use x="624.853516" xlink:href="#DejaVuSans-69"/>
     <use x="652.636719" xlink:href="#DejaVuSans-63"/>
     <use x="707.617188" xlink:href="#DejaVuSans-20"/>
     <use x="739.404297" xlink:href="#DejaVuSans-53"/>
     <use x="802.880859" xlink:href="#DejaVuSans-63"/>
     <use x="857.861328" xlink:href="#DejaVuSans-6f"/>
     <use x="919.042969" xlink:href="#DejaVuSans-72"/>
     <use x="957.90625" xlink:href="#DejaVuSans-65"/>
    </g>
   </g>
   <g id="text_4">
    <!-- Illustration -->
    <g style="fill:#80bf80;" transform="translate(180.005764 452.310291)scale(0.083666 -0.083666)">
     <defs>
      <path d="M 628 4666 
L 1259 4666 
L 1259 0 
L 628 0 
L 628 4666 
z
" id="DejaVuSans-49" transform="scale(0.015625)"/>
      <path d="M 1172 4494 
L 1172 3500 
L 2356 3500 
L 2356 3053 
L 1172 3053 
L 1172 1153 
Q 1172 725 1289 603 
Q 1406 481 1766 481 
L 2356 481 
L 2356 0 
L 1766 0 
Q 1100 0 847 248 
Q 594 497 594 1153 
L 594 3053 
L 172 3053 
L 172 3500 
L 594 3500 
L 594 4494 
L 1172 4494 
z
" id="DejaVuSans-74" transform="scale(0.015625)"/>
     </defs>
     <use xlink:href="#DejaVuSans-49"/>
     <use x="29.492188" xlink:href="#DejaVuSans-6c"/>
     <use x="57.275391" xlink:href="#DejaVuSans-6c"/>
     <use x="85.058594" xlink:href="#DejaVuSans-75"/>
     <use x="148.4375" xlink:href="#DejaVuSans-73"/>
     <use x="200.537109" xlink:href="#DejaVuSans-74"/>
     <use x="239.746094" xlink:href="#DejaVuSans-72"/>
     <use x="280.859375" xlink:href="#DejaVuSans-61"/>
     <use x="342.138672" xlink:href="#DejaVuSans-74"/>
     <use x="381.347656" xlink:href="#DejaVuSans-69"/>
     <use x="409.130859" xlink:href="#DejaVuSans-6f"/>
     <use x="470.3125" xlink:href="#DejaVuSans-6e"/>
    </g>
   </g>
   <g id="text_5">
    <!-- Graphic Design -->
    <g style="fill:#0507a2;" transform="translate(152.712225 355.210987)scale(0.055199 -0.055199)">
     <defs>
      <path d="M 3809 666 
L 3809 1919 
L 2778 1919 
L 2778 2438 
L 4434 2438 
L 4434 434 
Q 4069 175 3628 42 
Q 3188 -91 2688 -91 
Q 1594 -91 976 548 
Q 359 1188 359 2328 
Q 359 3472 976 4111 
Q 1594 4750 2688 4750 
Q 3144 4750 3555 4637 
Q 3966 4525 4313 4306 
L 4313 3634 
Q 3963 3931 3569 4081 
Q 3175 4231 2741 4231 
Q 1884 4231 1454 3753 
Q 1025 3275 1025 2328 
Q 1025 1384 1454 906 
Q 1884 428 2741 428 
Q 3075 428 3337 486 
Q 3600 544 3809 666 
z
" id="DejaVuSans-47" transform="scale(0.015625)"/>
      <path d="M 3513 2113 
L 3513 0 
L 2938 0 
L 2938 2094 
Q 2938 2591 2744 2837 
Q 2550 3084 2163 3084 
Q 1697 3084 1428 2787 
Q 1159 2491 1159 1978 
L 1159 0 
L 581 0 
L 581 4863 
L 1159 4863 
L 1159 2956 
Q 1366 3272 1645 3428 
Q 1925 3584 2291 3584 
Q 2894 3584 3203 3211 
Q 3513 2838 3513 2113 
z
" id="DejaVuSans-68" transform="scale(0.015625)"/>
     </defs>
     <use xlink:href="#DejaVuSans-47"/>
     <use x="77.490234" xlink:href="#DejaVuSans-72"/>
     <use x="118.603516" xlink:href="#DejaVuSans-61"/>
     <use x="179.882812" xlink:href="#DejaVuSans-70"/>
     <use x="243.359375" xlink:href="#DejaVuSans-68"/>
     <use x="306.738281" xlink:href="#DejaVuSans-69"/>
     <use x="334.521484" xlink:href="#DejaVuSans-63"/>
     <use x="389.501953" xlink:href="#DejaVuSans-20"/>
     <use x="421.289062" xlink:href="#DejaVuSans-44"/>
     <use x="498.291016" xlink:href="#DejaVuSans-65"/>
     <use x="559.814453" xlink:href="#DejaVuSans-73"/>
     <use x="611.914062" xlink:href="#DejaVuSans-69"/>
     <use x="639.697266" xlink:href="#DejaVuSans-67"/>
     <use x="703.173828" xlink:href="#DejaVuSans-6e"/>
    </g>
   </g>
   <g id="text_6">
    <!-- Web Programming -->
    <g style="fill:#00ffff;" transform="translate(394.667163 303.589712)scale(0.083666 -0.083666)">
     <defs>
      <path d="M 213 4666 
L 850 4666 
L 1831 722 
L 2809 4666 
L 3519 4666 
L 4500 722 
L 5478 4666 
L 6119 4666 
L 4947 0 
L 4153 0 
L 3169 4050 
L 2175 0 
L 1381 0 
L 213 4666 
z
" id="DejaVuSans-57" transform="scale(0.015625)"/>
      <path d="M 3116 1747 
Q 3116 2381 2855 2742 
Q 2594 3103 2138 3103 
Q 1681 3103 1420 2742 
Q 1159 2381 1159 1747 
Q 1159 1113 1420 752 
Q 1681 391 2138 391 
Q 2594 391 2855 752 
Q 3116 1113 3116 1747 
z
M 1159 2969 
Q 1341 3281 1617 3432 
Q 1894 3584 2278 3584 
Q 2916 3584 3314 3078 
Q 3713 2572 3713 1747 
Q 3713 922 3314 415 
Q 2916 -91 2278 -91 
Q 1894 -91 1617 61 
Q 1341 213 1159 525 
L 1159 0 
L 581 0 
L 581 4863 
L 1159 4863 
L 1159 2969 
z
" id="DejaVuSans-62" transform="scale(0.015625)"/>
      <path d="M 1259 4147 
L 1259 2394 
L 2053 2394 
Q 2494 2394 2734 2622 
Q 2975 2850 2975 3272 
Q 2975 3691 2734 3919 
Q 2494 4147 2053 4147 
L 1259 4147 
z
M 628 4666 
L 2053 4666 
Q 2838 4666 3239 4311 
Q 3641 3956 3641 3272 
Q 3641 2581 3239 2228 
Q 2838 1875 2053 1875 
L 1259 1875 
L 1259 0 
L 628 0 
L 628 4666 
z
" id="DejaVuSans-50" transform="scale(0.015625)"/>
      <path d="M 3328 2828 
Q 3544 3216 3844 3400 
Q 4144 3584 4550 3584 
Q 5097 3584 5394 3201 
Q 5691 2819 5691 2113 
L 5691 0 
L 5113 0 
L 5113 2094 
Q 5113 2597 4934 2840 
Q 4756 3084 4391 3084 
Q 3944 3084 3684 2787 
Q 3425 2491 3425 1978 
L 3425 0 
L 2847 0 
L 2847 2094 
Q 2847 2600 2669 2842 
Q 2491 3084 2119 3084 
Q 1678 3084 1418 2786 
Q 1159 2488 1159 1978 
L 1159 0 
L 581 0 
L 581 3500 
L 1159 3500 
L 1159 2956 
Q 1356 3278 1631 3431 
Q 1906 3584 2284 3584 
Q 2666 3584 2933 3390 
Q 3200 3197 3328 2828 
z
" id="DejaVuSans-6d" transform="scale(0.015625)"/>
     </defs>
     <use xlink:href="#DejaVuSans-57"/>
     <use x="93.001953" xlink:href="#DejaVuSans-65"/>
     <use x="154.525391" xlink:href="#DejaVuSans-62"/>
     <use x="218.001953" xlink:href="#DejaVuSans-20"/>
     <use x="249.789062" xlink:href="#DejaVuSans-50"/>
     <use x="308.341797" xlink:href="#DejaVuSans-72"/>
     <use x="347.205078" xlink:href="#DejaVuSans-6f"/>
     <use x="408.386719" xlink:href="#DejaVuSans-67"/>
     <use x="471.863281" xlink:href="#DejaVuSans-72"/>
     <use x="512.976562" xlink:href="#DejaVuSans-61"/>
     <use x="574.255859" xlink:href="#DejaVuSans-6d"/>
     <use x="671.667969" xlink:href="#DejaVuSans-6d"/>
     <use x="769.080078" xlink:href="#DejaVuSans-69"/>
     <use x="796.863281" xlink:href="#DejaVuSans-6e"/>
     <use x="860.242188" xlink:href="#DejaVuSans-67"/>
    </g>
   </g>
   <g id="text_7">
    <!-- Special Thanks -->
    <g style="fill:#dd82ee;" transform="translate(257.245534 227.457544)scale(0.055199 -0.055199)">
     <defs>
      <path d="M -19 4666 
L 3928 4666 
L 3928 4134 
L 2272 4134 
L 2272 0 
L 1638 0 
L 1638 4134 
L -19 4134 
L -19 4666 
z
" id="DejaVuSans-54" transform="scale(0.015625)"/>
      <path d="M 581 4863 
L 1159 4863 
L 1159 1991 
L 2875 3500 
L 3609 3500 
L 1753 1863 
L 3688 0 
L 2938 0 
L 1159 1709 
L 1159 0 
L 581 0 
L 581 4863 
z
" id="DejaVuSans-6b" transform="scale(0.015625)"/>
     </defs>
     <use xlink:href="#DejaVuSans-53"/>
     <use x="63.476562" xlink:href="#DejaVuSans-70"/>
     <use x="126.953125" xlink:href="#DejaVuSans-65"/>
     <use x="188.476562" xlink:href="#DejaVuSans-63"/>
     <use x="243.457031" xlink:href="#DejaVuSans-69"/>
     <use x="271.240234" xlink:href="#DejaVuSans-61"/>
     <use x="332.519531" xlink:href="#DejaVuSans-6c"/>
     <use x="360.302734" xlink:href="#DejaVuSans-20"/>
     <use x="392.089844" xlink:href="#DejaVuSans-54"/>
     <use x="453.173828" xlink:href="#DejaVuSans-68"/>
     <use x="516.552734" xlink:href="#DejaVuSans-61"/>
     <use x="577.832031" xlink:href="#DejaVuSans-6e"/>
     <use x="641.210938" xlink:href="#DejaVuSans-6b"/>
     <use x="699.121094" xlink:href="#DejaVuSans-73"/>
    </g>
   </g>
   <g id="text_8">
    <!-- audiosurf: Who worked with who?  -->
    <g transform="translate(118.844766 17.077969)scale(0.13 -0.13)">
     <defs>
      <path d="M 2906 2969 
L 2906 4863 
L 3481 4863 
L 3481 0 
L 2906 0 
L 2906 525 
Q 2725 213 2448 61 
Q 2172 -91 1784 -91 
Q 1150 -91 751 415 
Q 353 922 353 1747 
Q 353 2572 751 3078 
Q 1150 3584 1784 3584 
Q 2172 3584 2448 3432 
Q 2725 3281 2906 2969 
z
M 947 1747 
Q 947 1113 1208 752 
Q 1469 391 1925 391 
Q 2381 391 2643 752 
Q 2906 1113 2906 1747 
Q 2906 2381 2643 2742 
Q 2381 3103 1925 3103 
Q 1469 3103 1208 2742 
Q 947 2381 947 1747 
z
" id="DejaVuSans-64" transform="scale(0.015625)"/>
      <path d="M 2375 4863 
L 2375 4384 
L 1825 4384 
Q 1516 4384 1395 4259 
Q 1275 4134 1275 3809 
L 1275 3500 
L 2222 3500 
L 2222 3053 
L 1275 3053 
L 1275 0 
L 697 0 
L 697 3053 
L 147 3053 
L 147 3500 
L 697 3500 
L 697 3744 
Q 697 4328 969 4595 
Q 1241 4863 1831 4863 
L 2375 4863 
z
" id="DejaVuSans-66" transform="scale(0.015625)"/>
      <path d="M 750 794 
L 1409 794 
L 1409 0 
L 750 0 
L 750 794 
z
M 750 3309 
L 1409 3309 
L 1409 2516 
L 750 2516 
L 750 3309 
z
" id="DejaVuSans-3a" transform="scale(0.015625)"/>
      <path d="M 269 3500 
L 844 3500 
L 1563 769 
L 2278 3500 
L 2956 3500 
L 3675 769 
L 4391 3500 
L 4966 3500 
L 4050 0 
L 3372 0 
L 2619 2869 
L 1863 0 
L 1184 0 
L 269 3500 
z
" id="DejaVuSans-77" transform="scale(0.015625)"/>
      <path d="M 1222 794 
L 1856 794 
L 1856 0 
L 1222 0 
L 1222 794 
z
M 1838 1253 
L 1241 1253 
L 1241 1734 
Q 1241 2050 1328 2253 
Q 1416 2456 1697 2725 
L 1978 3003 
Q 2156 3169 2236 3316 
Q 2316 3463 2316 3616 
Q 2316 3894 2111 4066 
Q 1906 4238 1569 4238 
Q 1322 4238 1042 4128 
Q 763 4019 459 3809 
L 459 4397 
Q 753 4575 1054 4662 
Q 1356 4750 1678 4750 
Q 2253 4750 2601 4447 
Q 2950 4144 2950 3647 
Q 2950 3409 2837 3195 
Q 2725 2981 2444 2713 
L 2169 2444 
Q 2022 2297 1961 2214 
Q 1900 2131 1875 2053 
Q 1856 1988 1847 1894 
Q 1838 1800 1838 1638 
L 1838 1253 
z
" id="DejaVuSans-3f" transform="scale(0.015625)"/>
     </defs>
     <use xlink:href="#DejaVuSans-61"/>
     <use x="61.279297" xlink:href="#DejaVuSans-75"/>
     <use x="124.658203" xlink:href="#DejaVuSans-64"/>
     <use x="188.134766" xlink:href="#DejaVuSans-69"/>
     <use x="215.917969" xlink:href="#DejaVuSans-6f"/>
     <use x="277.099609" xlink:href="#DejaVuSans-73"/>
     <use x="329.199219" xlink:href="#DejaVuSans-75"/>
     <use x="392.578125" xlink:href="#DejaVuSans-72"/>
     <use x="433.691406" xlink:href="#DejaVuSans-66"/>
     <use x="465.271484" xlink:href="#DejaVuSans-3a"/>
     <use x="498.962891" xlink:href="#DejaVuSans-20"/>
     <use x="530.75" xlink:href="#DejaVuSans-57"/>
     <use x="629.626953" xlink:href="#DejaVuSans-68"/>
     <use x="693.005859" xlink:href="#DejaVuSans-6f"/>
     <use x="754.1875" xlink:href="#DejaVuSans-20"/>
     <use x="785.974609" xlink:href="#DejaVuSans-77"/>
     <use x="867.761719" xlink:href="#DejaVuSans-6f"/>
     <use x="928.943359" xlink:href="#DejaVuSans-72"/>
     <use x="970.056641" xlink:href="#DejaVuSans-6b"/>
     <use x="1024.341797" xlink:href="#DejaVuSans-65"/>
     <use x="1085.865234" xlink:href="#DejaVuSans-64"/>
     <use x="1149.341797" xlink:href="#DejaVuSans-20"/>
     <use x="1181.128906" xlink:href="#DejaVuSans-77"/>
     <use x="1262.916016" xlink:href="#DejaVuSans-69"/>
     <use x="1290.699219" xlink:href="#DejaVuSans-74"/>
     <use x="1329.908203" xlink:href="#DejaVuSans-68"/>
     <use x="1393.287109" xlink:href="#DejaVuSans-20"/>
     <use x="1425.074219" xlink:href="#DejaVuSans-77"/>
     <use x="1506.861328" xlink:href="#DejaVuSans-68"/>
     <use x="1570.240234" xlink:href="#DejaVuSans-6f"/>
     <use x="1631.421875" xlink:href="#DejaVuSans-3f"/>
     <use x="1684.498047" xlink:href="#DejaVuSans-20"/>
    </g>
    <!-- Prior shared game dev experience network of members  -->
    <g transform="translate(46.849141 31.635125)scale(0.13 -0.13)">
     <defs>
      <path d="M 191 3500 
L 800 3500 
L 1894 563 
L 2988 3500 
L 3597 3500 
L 2284 0 
L 1503 0 
L 191 3500 
z
" id="DejaVuSans-76" transform="scale(0.015625)"/>
     </defs>
     <use xlink:href="#DejaVuSans-50"/>
     <use x="58.552734" xlink:href="#DejaVuSans-72"/>
     <use x="99.666016" xlink:href="#DejaVuSans-69"/>
     <use x="127.449219" xlink:href="#DejaVuSans-6f"/>
     <use x="188.630859" xlink:href="#DejaVuSans-72"/>
     <use x="229.744141" xlink:href="#DejaVuSans-20"/>
     <use x="261.53125" xlink:href="#DejaVuSans-73"/>
     <use x="313.630859" xlink:href="#DejaVuSans-68"/>
     <use x="377.009766" xlink:href="#DejaVuSans-61"/>
     <use x="438.289062" xlink:href="#DejaVuSans-72"/>
     <use x="477.152344" xlink:href="#DejaVuSans-65"/>
     <use x="538.675781" xlink:href="#DejaVuSans-64"/>
     <use x="602.152344" xlink:href="#DejaVuSans-20"/>
     <use x="633.939453" xlink:href="#DejaVuSans-67"/>
     <use x="697.416016" xlink:href="#DejaVuSans-61"/>
     <use x="758.695312" xlink:href="#DejaVuSans-6d"/>
     <use x="856.107422" xlink:href="#DejaVuSans-65"/>
     <use x="917.630859" xlink:href="#DejaVuSans-20"/>
     <use x="949.417969" xlink:href="#DejaVuSans-64"/>
     <use x="1012.894531" xlink:href="#DejaVuSans-65"/>
     <use x="1074.417969" xlink:href="#DejaVuSans-76"/>
     <use x="1133.597656" xlink:href="#DejaVuSans-20"/>
     <use x="1165.384766" xlink:href="#DejaVuSans-65"/>
     <use x="1225.158203" xlink:href="#DejaVuSans-78"/>
     <use x="1284.337891" xlink:href="#DejaVuSans-70"/>
     <use x="1347.814453" xlink:href="#DejaVuSans-65"/>
     <use x="1409.337891" xlink:href="#DejaVuSans-72"/>
     <use x="1450.451172" xlink:href="#DejaVuSans-69"/>
     <use x="1478.234375" xlink:href="#DejaVuSans-65"/>
     <use x="1539.757812" xlink:href="#DejaVuSans-6e"/>
     <use x="1603.136719" xlink:href="#DejaVuSans-63"/>
     <use x="1658.117188" xlink:href="#DejaVuSans-65"/>
     <use x="1719.640625" xlink:href="#DejaVuSans-20"/>
     <use x="1751.427734" xlink:href="#DejaVuSans-6e"/>
     <use x="1814.806641" xlink:href="#DejaVuSans-65"/>
     <use x="1876.330078" xlink:href="#DejaVuSans-74"/>
     <use x="1915.539062" xlink:href="#DejaVuSans-77"/>
     <use x="1997.326172" xlink:href="#DejaVuSans-6f"/>
     <use x="2058.507812" xlink:href="#DejaVuSans-72"/>
     <use x="2099.621094" xlink:href="#DejaVuSans-6b"/>
     <use x="2157.53125" xlink:href="#DejaVuSans-20"/>
     <use x="2189.318359" xlink:href="#DejaVuSans-6f"/>
     <use x="2250.5" xlink:href="#DejaVuSans-66"/>
     <use x="2285.705078" xlink:href="#DejaVuSans-20"/>
     <use x="2317.492188" xlink:href="#DejaVuSans-6d"/>
     <use x="2414.904297" xlink:href="#DejaVuSans-65"/>
     <use x="2476.427734" xlink:href="#DejaVuSans-6d"/>
     <use x="2573.839844" xlink:href="#DejaVuSans-62"/>
     <use x="2637.316406" xlink:href="#DejaVuSans-65"/>
     <use x="2698.839844" xlink:href="#DejaVuSans-72"/>
     <use x="2739.953125" xlink:href="#DejaVuSans-73"/>
     <use x="2792.052734" xlink:href="#DejaVuSans-20"/>
    </g>
    <!-- (colored by their role in dev team) -->
    <g transform="translate(118.759453 46.192281)scale(0.13 -0.13)">
     <defs>
      <path d="M 1984 4856 
Q 1566 4138 1362 3434 
Q 1159 2731 1159 2009 
Q 1159 1288 1364 580 
Q 1569 -128 1984 -844 
L 1484 -844 
Q 1016 -109 783 600 
Q 550 1309 550 2009 
Q 550 2706 781 3412 
Q 1013 4119 1484 4856 
L 1984 4856 
z
" id="DejaVuSans-28" transform="scale(0.015625)"/>
      <path d="M 2059 -325 
Q 1816 -950 1584 -1140 
Q 1353 -1331 966 -1331 
L 506 -1331 
L 506 -850 
L 844 -850 
Q 1081 -850 1212 -737 
Q 1344 -625 1503 -206 
L 1606 56 
L 191 3500 
L 800 3500 
L 1894 763 
L 2988 3500 
L 3597 3500 
L 2059 -325 
z
" id="DejaVuSans-79" transform="scale(0.015625)"/>
      <path d="M 513 4856 
L 1013 4856 
Q 1481 4119 1714 3412 
Q 1947 2706 1947 2009 
Q 1947 1309 1714 600 
Q 1481 -109 1013 -844 
L 513 -844 
Q 928 -128 1133 580 
Q 1338 1288 1338 2009 
Q 1338 2731 1133 3434 
Q 928 4138 513 4856 
z
" id="DejaVuSans-29" transform="scale(0.015625)"/>
     </defs>
     <use xlink:href="#DejaVuSans-28"/>
     <use x="39.013672" xlink:href="#DejaVuSans-63"/>
     <use x="93.994141" xlink:href="#DejaVuSans-6f"/>
     <use x="155.175781" xlink:href="#DejaVuSans-6c"/>
     <use x="182.958984" xlink:href="#DejaVuSans-6f"/>
     <use x="244.140625" xlink:href="#DejaVuSans-72"/>
     <use x="283.003906" xlink:href="#DejaVuSans-65"/>
     <use x="344.527344" xlink:href="#DejaVuSans-64"/>
     <use x="408.003906" xlink:href="#DejaVuSans-20"/>
     <use x="439.791016" xlink:href="#DejaVuSans-62"/>
     <use x="503.267578" xlink:href="#DejaVuSans-79"/>
     <use x="562.447266" xlink:href="#DejaVuSans-20"/>
     <use x="594.234375" xlink:href="#DejaVuSans-74"/>
     <use x="633.443359" xlink:href="#DejaVuSans-68"/>
     <use x="696.822266" xlink:href="#DejaVuSans-65"/>
     <use x="758.345703" xlink:href="#DejaVuSans-69"/>
     <use x="786.128906" xlink:href="#DejaVuSans-72"/>
     <use x="827.242188" xlink:href="#DejaVuSans-20"/>
     <use x="859.029297" xlink:href="#DejaVuSans-72"/>
     <use x="897.892578" xlink:href="#DejaVuSans-6f"/>
     <use x="959.074219" xlink:href="#DejaVuSans-6c"/>
     <use x="986.857422" xlink:href="#DejaVuSans-65"/>
     <use x="1048.380859" xlink:href="#DejaVuSans-20"/>
     <use x="1080.167969" xlink:href="#DejaVuSans-69"/>
     <use x="1107.951172" xlink:href="#DejaVuSans-6e"/>
     <use x="1171.330078" xlink:href="#DejaVuSans-20"/>
     <use x="1203.117188" xlink:href="#DejaVuSans-64"/>
     <use x="1266.59375" xlink:href="#DejaVuSans-65"/>
     <use x="1328.117188" xlink:href="#DejaVuSans-76"/>
     <use x="1387.296875" xlink:href="#DejaVuSans-20"/>
     <use x="1419.083984" xlink:href="#DejaVuSans-74"/>
     <use x="1458.292969" xlink:href="#DejaVuSans-65"/>
     <use x="1519.816406" xlink:href="#DejaVuSans-61"/>
     <use x="1581.095703" xlink:href="#DejaVuSans-6d"/>
     <use x="1678.507812" xlink:href="#DejaVuSans-29"/>
    </g>
   </g>
   <g id="legend_1">
    <g id="patch_2">
     <path d="M 458.5 130.086344 
L 650.520938 130.086344 
Q 651.920938 130.086344 651.920938 128.686344 
L 651.920938 57.092281 
Q 651.920938 55.692281 650.520938 55.692281 
L 458.5 55.692281 
Q 457.1 55.692281 457.1 57.092281 
L 457.1 128.686344 
Q 457.1 130.086344 458.5 130.086344 
z
" style="fill:#ffffff;opacity:0.8;stroke:#cccccc;stroke-linejoin:miter;stroke-width:1.5;"/>
    </g>
    <g id="text_9">
     <!-- Roles -->
     <g transform="translate(530.428437 72.169469)scale(0.18 -0.18)">
      <defs>
       <path d="M 2841 2188 
Q 3044 2119 3236 1894 
Q 3428 1669 3622 1275 
L 4263 0 
L 3584 0 
L 2988 1197 
Q 2756 1666 2539 1819 
Q 2322 1972 1947 1972 
L 1259 1972 
L 1259 0 
L 628 0 
L 628 4666 
L 2053 4666 
Q 2853 4666 3247 4331 
Q 3641 3997 3641 3322 
Q 3641 2881 3436 2590 
Q 3231 2300 2841 2188 
z
M 1259 4147 
L 1259 2491 
L 2053 2491 
Q 2509 2491 2742 2702 
Q 2975 2913 2975 3322 
Q 2975 3731 2742 3939 
Q 2509 4147 2053 4147 
L 1259 4147 
z
" id="DejaVuSans-52" transform="scale(0.015625)"/>
      </defs>
      <use xlink:href="#DejaVuSans-52"/>
      <use x="64.982422" xlink:href="#DejaVuSans-6f"/>
      <use x="126.164062" xlink:href="#DejaVuSans-6c"/>
      <use x="153.947266" xlink:href="#DejaVuSans-65"/>
      <use x="215.470703" xlink:href="#DejaVuSans-73"/>
     </g>
    </g>
    <g id="patch_3">
     <path d="M 459.9 84.731812 
L 473.9 84.731812 
L 473.9 79.831812 
L 459.9 79.831812 
z
" style="fill:#00ff00;stroke:#00ff00;stroke-linejoin:miter;stroke-width:1.5;"/>
    </g>
    <g id="text_10">
     <!-- Design -->
     <g transform="translate(479.5 84.731812)scale(0.07 -0.07)">
      <use xlink:href="#DejaVuSans-44"/>
      <use x="77.001953" xlink:href="#DejaVuSans-65"/>
      <use x="138.525391" xlink:href="#DejaVuSans-73"/>
      <use x="190.625" xlink:href="#DejaVuSans-69"/>
      <use x="218.408203" xlink:href="#DejaVuSans-67"/>
      <use x="281.884766" xlink:href="#DejaVuSans-6e"/>
     </g>
    </g>
    <g id="patch_4">
     <path d="M 459.9 95.0065 
L 473.9 95.0065 
L 473.9 90.1065 
L 459.9 90.1065 
z
" style="fill:#ff00ff;stroke:#ff00ff;stroke-linejoin:miter;stroke-width:1.5;"/>
    </g>
    <g id="text_11">
     <!-- Programming -->
     <g transform="translate(479.5 95.0065)scale(0.07 -0.07)">
      <use xlink:href="#DejaVuSans-50"/>
      <use x="58.552734" xlink:href="#DejaVuSans-72"/>
      <use x="97.416016" xlink:href="#DejaVuSans-6f"/>
      <use x="158.597656" xlink:href="#DejaVuSans-67"/>
      <use x="222.074219" xlink:href="#DejaVuSans-72"/>
      <use x="263.1875" xlink:href="#DejaVuSans-61"/>
      <use x="324.466797" xlink:href="#DejaVuSans-6d"/>
      <use x="421.878906" xlink:href="#DejaVuSans-6d"/>
      <use x="519.291016" xlink:href="#DejaVuSans-69"/>
      <use x="547.074219" xlink:href="#DejaVuSans-6e"/>
      <use x="610.453125" xlink:href="#DejaVuSans-67"/>
     </g>
    </g>
    <g id="patch_5">
     <path d="M 459.9 105.281187 
L 473.9 105.281187 
L 473.9 100.381187 
L 459.9 100.381187 
z
" style="fill:#0080ff;stroke:#0080ff;stroke-linejoin:miter;stroke-width:1.5;"/>
    </g>
    <g id="text_12">
     <!-- User Experience -->
     <g transform="translate(479.5 105.281187)scale(0.07 -0.07)">
      <use xlink:href="#DejaVuSans-55"/>
      <use x="73.193359" xlink:href="#DejaVuSans-73"/>
      <use x="125.292969" xlink:href="#DejaVuSans-65"/>
      <use x="186.816406" xlink:href="#DejaVuSans-72"/>
      <use x="227.929688" xlink:href="#DejaVuSans-20"/>
      <use x="259.716797" xlink:href="#DejaVuSans-45"/>
      <use x="322.900391" xlink:href="#DejaVuSans-78"/>
      <use x="382.080078" xlink:href="#DejaVuSans-70"/>
      <use x="445.556641" xlink:href="#DejaVuSans-65"/>
      <use x="507.080078" xlink:href="#DejaVuSans-72"/>
      <use x="548.193359" xlink:href="#DejaVuSans-69"/>
      <use x="575.976562" xlink:href="#DejaVuSans-65"/>
      <use x="637.5" xlink:href="#DejaVuSans-6e"/>
      <use x="700.878906" xlink:href="#DejaVuSans-63"/>
      <use x="755.859375" xlink:href="#DejaVuSans-65"/>
     </g>
    </g>
    <g id="patch_6">
     <path d="M 459.9 115.555875 
L 473.9 115.555875 
L 473.9 110.655875 
L 459.9 110.655875 
z
" style="fill:#ff8000;stroke:#ff8000;stroke-linejoin:miter;stroke-width:1.5;"/>
    </g>
    <g id="text_13">
     <!-- Original Music Score -->
     <g transform="translate(479.5 115.555875)scale(0.07 -0.07)">
      <use xlink:href="#DejaVuSans-4f"/>
      <use x="78.710938" xlink:href="#DejaVuSans-72"/>
      <use x="119.824219" xlink:href="#DejaVuSans-69"/>
      <use x="147.607422" xlink:href="#DejaVuSans-67"/>
      <use x="211.083984" xlink:href="#DejaVuSans-69"/>
      <use x="238.867188" xlink:href="#DejaVuSans-6e"/>
      <use x="302.246094" xlink:href="#DejaVuSans-61"/>
      <use x="363.525391" xlink:href="#DejaVuSans-6c"/>
      <use x="391.308594" xlink:href="#DejaVuSans-20"/>
      <use x="423.095703" xlink:href="#DejaVuSans-4d"/>
      <use x="509.375" xlink:href="#DejaVuSans-75"/>
      <use x="572.753906" xlink:href="#DejaVuSans-73"/>
      <use x="624.853516" xlink:href="#DejaVuSans-69"/>
      <use x="652.636719" xlink:href="#DejaVuSans-63"/>
      <use x="707.617188" xlink:href="#DejaVuSans-20"/>
      <use x="739.404297" xlink:href="#DejaVuSans-53"/>
      <use x="802.880859" xlink:href="#DejaVuSans-63"/>
      <use x="857.861328" xlink:href="#DejaVuSans-6f"/>
      <use x="919.042969" xlink:href="#DejaVuSans-72"/>
      <use x="957.90625" xlink:href="#DejaVuSans-65"/>
     </g>
    </g>
    <g id="patch_7">
     <path d="M 459.9 125.830562 
L 473.9 125.830562 
L 473.9 120.930562 
L 459.9 120.930562 
z
" style="fill:#80bf80;stroke:#80bf80;stroke-linejoin:miter;stroke-width:1.5;"/>
    </g>
    <g id="text_14">
     <!-- Illustration -->
     <g transform="translate(479.5 125.830562)scale(0.07 -0.07)">
      <use xlink:href="#DejaVuSans-49"/>
      <use x="29.492188" xlink:href="#DejaVuSans-6c"/>
      <use x="57.275391" xlink:href="#DejaVuSans-6c"/>
      <use x="85.058594" xlink:href="#DejaVuSans-75"/>
      <use x="148.4375" xlink:href="#DejaVuSans-73"/>
      <use x="200.537109" xlink:href="#DejaVuSans-74"/>
      <use x="239.746094" xlink:href="#DejaVuSans-72"/>
      <use x="280.859375" xlink:href="#DejaVuSans-61"/>
      <use x="342.138672" xlink:href="#DejaVuSans-74"/>
      <use x="381.347656" xlink:href="#DejaVuSans-69"/>
      <use x="409.130859" xlink:href="#DejaVuSans-6f"/>
      <use x="470.3125" xlink:href="#DejaVuSans-6e"/>
     </g>
    </g>
    <g id="patch_8">
     <path d="M 564.860625 84.731812 
L 578.860625 84.731812 
L 578.860625 79.831812 
L 564.860625 79.831812 
z
" style="fill:#ab094d;stroke:#ab094d;stroke-linejoin:miter;stroke-width:1.5;"/>
    </g>
    <g id="text_15">
     <!-- Concept Art -->
     <g transform="translate(584.460625 84.731812)scale(0.07 -0.07)">
      <defs>
       <path d="M 4122 4306 
L 4122 3641 
Q 3803 3938 3442 4084 
Q 3081 4231 2675 4231 
Q 1875 4231 1450 3742 
Q 1025 3253 1025 2328 
Q 1025 1406 1450 917 
Q 1875 428 2675 428 
Q 3081 428 3442 575 
Q 3803 722 4122 1019 
L 4122 359 
Q 3791 134 3420 21 
Q 3050 -91 2638 -91 
Q 1578 -91 968 557 
Q 359 1206 359 2328 
Q 359 3453 968 4101 
Q 1578 4750 2638 4750 
Q 3056 4750 3426 4639 
Q 3797 4528 4122 4306 
z
" id="DejaVuSans-43" transform="scale(0.015625)"/>
       <path d="M 2188 4044 
L 1331 1722 
L 3047 1722 
L 2188 4044 
z
M 1831 4666 
L 2547 4666 
L 4325 0 
L 3669 0 
L 3244 1197 
L 1141 1197 
L 716 0 
L 50 0 
L 1831 4666 
z
" id="DejaVuSans-41" transform="scale(0.015625)"/>
      </defs>
      <use xlink:href="#DejaVuSans-43"/>
      <use x="69.824219" xlink:href="#DejaVuSans-6f"/>
      <use x="131.005859" xlink:href="#DejaVuSans-6e"/>
      <use x="194.384766" xlink:href="#DejaVuSans-63"/>
      <use x="249.365234" xlink:href="#DejaVuSans-65"/>
      <use x="310.888672" xlink:href="#DejaVuSans-70"/>
      <use x="374.365234" xlink:href="#DejaVuSans-74"/>
      <use x="413.574219" xlink:href="#DejaVuSans-20"/>
      <use x="445.361328" xlink:href="#DejaVuSans-41"/>
      <use x="513.769531" xlink:href="#DejaVuSans-72"/>
      <use x="554.882812" xlink:href="#DejaVuSans-74"/>
     </g>
    </g>
    <g id="patch_9">
     <path d="M 564.860625 95.0065 
L 578.860625 95.0065 
L 578.860625 90.1065 
L 564.860625 90.1065 
z
" style="fill:#0507a2;stroke:#0507a2;stroke-linejoin:miter;stroke-width:1.5;"/>
    </g>
    <g id="text_16">
     <!-- Graphic Design -->
     <g transform="translate(584.460625 95.0065)scale(0.07 -0.07)">
      <use xlink:href="#DejaVuSans-47"/>
      <use x="77.490234" xlink:href="#DejaVuSans-72"/>
      <use x="118.603516" xlink:href="#DejaVuSans-61"/>
      <use x="179.882812" xlink:href="#DejaVuSans-70"/>
      <use x="243.359375" xlink:href="#DejaVuSans-68"/>
      <use x="306.738281" xlink:href="#DejaVuSans-69"/>
      <use x="334.521484" xlink:href="#DejaVuSans-63"/>
      <use x="389.501953" xlink:href="#DejaVuSans-20"/>
      <use x="421.289062" xlink:href="#DejaVuSans-44"/>
      <use x="498.291016" xlink:href="#DejaVuSans-65"/>
      <use x="559.814453" xlink:href="#DejaVuSans-73"/>
      <use x="611.914062" xlink:href="#DejaVuSans-69"/>
      <use x="639.697266" xlink:href="#DejaVuSans-67"/>
      <use x="703.173828" xlink:href="#DejaVuSans-6e"/>
     </g>
    </g>
    <g id="patch_10">
     <path d="M 564.860625 105.281187 
L 578.860625 105.281187 
L 578.860625 100.381187 
L 564.860625 100.381187 
z
" style="fill:#00ffff;stroke:#00ffff;stroke-linejoin:miter;stroke-width:1.5;"/>
    </g>
    <g id="text_17">
     <!-- Web Programming -->
     <g transform="translate(584.460625 105.281187)scale(0.07 -0.07)">
      <use xlink:href="#DejaVuSans-57"/>
      <use x="93.001953" xlink:href="#DejaVuSans-65"/>
      <use x="154.525391" xlink:href="#DejaVuSans-62"/>
      <use x="218.001953" xlink:href="#DejaVuSans-20"/>
      <use x="249.789062" xlink:href="#DejaVuSans-50"/>
      <use x="308.341797" xlink:href="#DejaVuSans-72"/>
      <use x="347.205078" xlink:href="#DejaVuSans-6f"/>
      <use x="408.386719" xlink:href="#DejaVuSans-67"/>
      <use x="471.863281" xlink:href="#DejaVuSans-72"/>
      <use x="512.976562" xlink:href="#DejaVuSans-61"/>
      <use x="574.255859" xlink:href="#DejaVuSans-6d"/>
      <use x="671.667969" xlink:href="#DejaVuSans-6d"/>
      <use x="769.080078" xlink:href="#DejaVuSans-69"/>
      <use x="796.863281" xlink:href="#DejaVuSans-6e"/>
      <use x="860.242188" xlink:href="#DejaVuSans-67"/>
     </g>
    </g>
    <g id="patch_11">
     <path d="M 564.860625 115.555875 
L 578.860625 115.555875 
L 578.860625 110.655875 
L 564.860625 110.655875 
z
" style="fill:#dd82ee;stroke:#dd82ee;stroke-linejoin:miter;stroke-width:1.5;"/>
    </g>
    <g id="text_18">
     <!-- Special Thanks -->
     <g transform="translate(584.460625 115.555875)scale(0.07 -0.07)">
      <use xlink:href="#DejaVuSans-53"/>
      <use x="63.476562" xlink:href="#DejaVuSans-70"/>
      <use x="126.953125" xlink:href="#DejaVuSans-65"/>
      <use x="188.476562" xlink:href="#DejaVuSans-63"/>
      <use x="243.457031" xlink:href="#DejaVuSans-69"/>
      <use x="271.240234" xlink:href="#DejaVuSans-61"/>
      <use x="332.519531" xlink:href="#DejaVuSans-6c"/>
      <use x="360.302734" xlink:href="#DejaVuSans-20"/>
      <use x="392.089844" xlink:href="#DejaVuSans-54"/>
      <use x="453.173828" xlink:href="#DejaVuSans-68"/>
      <use x="516.552734" xlink:href="#DejaVuSans-61"/>
      <use x="577.832031" xlink:href="#DejaVuSans-6e"/>
      <use x="641.210938" xlink:href="#DejaVuSans-6b"/>
      <use x="699.121094" xlink:href="#DejaVuSans-73"/>
     </g>
    </g>
   </g>
  </g>
 </g>
 <defs>
  <clipPath id="p2243e03878">
   <rect height="434.88" width="446.4" x="7.2" y="52.192281"/>
  </clipPath>
 </defs>
</svg>
