<?xml version="1.0" encoding="utf-8" standalone="no"?>
<!DOCTYPE svg PUBLIC "-//W3C//DTD SVG 1.1//EN"
  "http://www.w3.org/Graphics/SVG/1.1/DTD/svg11.dtd">
<svg height="494.272281pt" version="1.1" viewBox="0 0 782.469571 494.272281" width="782.469571pt" xmlns="http://www.w3.org/2000/svg" xmlns:xlink="http://www.w3.org/1999/xlink">
 <metadata>
  <rdf:RDF xmlns:cc="http://creativecommons.org/ns#" xmlns:dc="http://purl.org/dc/elements/1.1/" xmlns:rdf="http://www.w3.org/1999/02/22-rdf-syntax-ns#">
   <cc:Work>
    <dc:type rdf:resource="http://purl.org/dc/dcmitype/StillImage"/>
    <dc:date>2023-12-06T12:08:49.536221</dc:date>
    <dc:format>image/svg+xml</dc:format>
    <dc:creator>
     <cc:Agent>
      <dc:title>Matplotlib v3.4.1, https://matplotlib.org/</dc:title>
     </cc:Agent>
    </dc:creator>
   </cc:Work>
  </rdf:RDF>
 </metadata>
 <defs>
  <style type="text/css">*{stroke-linecap:butt;stroke-linejoin:round;}</style>
 </defs>
 <g id="figure_1">
  <g id="patch_1">
   <path d="M 0 494.272281 
L 782.469571 494.272281 
L 782.469571 0 
L 0 0 
z
" style="fill:none;"/>
  </g>
  <g id="axes_1">
   <g id="LineCollection_1">
    <path clip-path="url(#pcbb087ce78)" d="M 295.030229 248.977994 
L 319.161421 263.118406 
" style="fill:none;stroke:#000000;stroke-opacity:0.1;stroke-width:1.414214;"/>
    <path clip-path="url(#pcbb087ce78)" d="M 295.030229 248.977994 
L 264.610906 285.938816 
" style="fill:none;stroke:#000000;stroke-opacity:0.1;stroke-width:1.414214;"/>
    <path clip-path="url(#pcbb087ce78)" d="M 295.030229 248.977994 
L 287.545376 304.419051 
" style="fill:none;stroke:#000000;stroke-opacity:0.1;stroke-width:1.414214;"/>
    <path clip-path="url(#pcbb087ce78)" d="M 295.030229 248.977994 
L 312.712687 291.906549 
" style="fill:none;stroke:#000000;stroke-opacity:0.1;stroke-width:1.414214;"/>
    <path clip-path="url(#pcbb087ce78)" d="M 295.030229 248.977994 
L 268.172179 255.154296 
" style="fill:none;stroke:#000000;stroke-opacity:0.1;stroke-width:1.414214;"/>
    <path clip-path="url(#pcbb087ce78)" d="M 319.161421 263.118406 
L 264.610906 285.938816 
" style="fill:none;stroke:#000000;stroke-opacity:0.1;stroke-width:1.414214;"/>
    <path clip-path="url(#pcbb087ce78)" d="M 319.161421 263.118406 
L 287.545376 304.419051 
" style="fill:none;stroke:#000000;stroke-opacity:0.1;stroke-width:1.414214;"/>
    <path clip-path="url(#pcbb087ce78)" d="M 319.161421 263.118406 
L 312.712687 291.906549 
" style="fill:none;stroke:#000000;stroke-opacity:0.1;stroke-width:1.414214;"/>
    <path clip-path="url(#pcbb087ce78)" d="M 319.161421 263.118406 
L 268.172179 255.154296 
" style="fill:none;stroke:#000000;stroke-opacity:0.1;stroke-width:1.414214;"/>
    <path clip-path="url(#pcbb087ce78)" d="M 264.610906 285.938816 
L 287.545376 304.419051 
" style="fill:none;stroke:#000000;stroke-opacity:0.1;stroke-width:1.414214;"/>
    <path clip-path="url(#pcbb087ce78)" d="M 264.610906 285.938816 
L 312.712687 291.906549 
" style="fill:none;stroke:#000000;stroke-opacity:0.1;stroke-width:1.414214;"/>
    <path clip-path="url(#pcbb087ce78)" d="M 264.610906 285.938816 
L 268.172179 255.154296 
" style="fill:none;stroke:#000000;stroke-opacity:0.1;stroke-width:1.414214;"/>
    <path clip-path="url(#pcbb087ce78)" d="M 287.545376 304.419051 
L 312.712687 291.906549 
" style="fill:none;stroke:#000000;stroke-opacity:0.1;stroke-width:1.414214;"/>
    <path clip-path="url(#pcbb087ce78)" d="M 287.545376 304.419051 
L 268.172179 255.154296 
" style="fill:none;stroke:#000000;stroke-opacity:0.1;stroke-width:1.414214;"/>
    <path clip-path="url(#pcbb087ce78)" d="M 312.712687 291.906549 
L 268.172179 255.154296 
" style="fill:none;stroke:#000000;stroke-opacity:0.1;stroke-width:1.414214;"/>
    <path clip-path="url(#pcbb087ce78)" d="M 118.896268 77.947775 
L 165.816729 71.959554 
" style="fill:none;stroke:#000000;stroke-opacity:0.1;stroke-width:1.414214;"/>
   </g>
   <g id="PathCollection_1">
    <path clip-path="url(#pcbb087ce78)" d="M 295.030229 250.96853 
C 295.558125 250.96853 296.064471 250.758794 296.43775 250.385515 
C 296.811029 250.012236 297.020764 249.50589 297.020764 248.977994 
C 297.020764 248.450098 296.811029 247.943751 296.43775 247.570472 
C 296.064471 247.197193 295.558125 246.987458 295.030229 246.987458 
C 294.502332 246.987458 293.995986 247.197193 293.622707 247.570472 
C 293.249428 247.943751 293.039693 248.450098 293.039693 248.977994 
C 293.039693 249.50589 293.249428 250.012236 293.622707 250.385515 
C 293.995986 250.758794 294.502332 250.96853 295.030229 250.96853 
z
" style="fill:#00ff00;fill-opacity:0.5;stroke:#00ff00;stroke-opacity:0.5;stroke-width:1.5;"/>
    <path clip-path="url(#pcbb087ce78)" d="M 319.161421 265.108942 
C 319.689317 265.108942 320.195663 264.899206 320.568942 264.525927 
C 320.942221 264.152648 321.151956 263.646302 321.151956 263.118406 
C 321.151956 262.59051 320.942221 262.084164 320.568942 261.710884 
C 320.195663 261.337605 319.689317 261.12787 319.161421 261.12787 
C 318.633524 261.12787 318.127178 261.337605 317.753899 261.710884 
C 317.38062 262.084164 317.170885 262.59051 317.170885 263.118406 
C 317.170885 263.646302 317.38062 264.152648 317.753899 264.525927 
C 318.127178 264.899206 318.633524 265.108942 319.161421 265.108942 
z
" style="fill:#00ff00;fill-opacity:0.5;stroke:#00ff00;stroke-opacity:0.5;stroke-width:1.5;"/>
    <path clip-path="url(#pcbb087ce78)" d="M 264.610906 287.929352 
C 265.138802 287.929352 265.645148 287.719616 266.018427 287.346337 
C 266.391706 286.973058 266.601442 286.466712 266.601442 285.938816 
C 266.601442 285.41092 266.391706 284.904574 266.018427 284.531295 
C 265.645148 284.158016 265.138802 283.94828 264.610906 283.94828 
C 264.083009 283.94828 263.576663 284.158016 263.203384 284.531295 
C 262.830105 284.904574 262.62037 285.41092 262.62037 285.938816 
C 262.62037 286.466712 262.830105 286.973058 263.203384 287.346337 
C 263.576663 287.719616 264.083009 287.929352 264.610906 287.929352 
z
" style="fill:#00ff00;fill-opacity:0.5;stroke:#00ff00;stroke-opacity:0.5;stroke-width:1.5;"/>
    <path clip-path="url(#pcbb087ce78)" d="M 287.545376 306.409587 
C 288.073272 306.409587 288.579618 306.199851 288.952898 305.826572 
C 289.326177 305.453293 289.535912 304.946947 289.535912 304.419051 
C 289.535912 303.891155 289.326177 303.384808 288.952898 303.011529 
C 288.579618 302.63825 288.073272 302.428515 287.545376 302.428515 
C 287.01748 302.428515 286.511134 302.63825 286.137855 303.011529 
C 285.764576 303.384808 285.55484 303.891155 285.55484 304.419051 
C 285.55484 304.946947 285.764576 305.453293 286.137855 305.826572 
C 286.511134 306.199851 287.01748 306.409587 287.545376 306.409587 
z
" style="fill:#00ff00;fill-opacity:0.5;stroke:#00ff00;stroke-opacity:0.5;stroke-width:1.5;"/>
    <path clip-path="url(#pcbb087ce78)" d="M 312.712687 293.897084 
C 313.240584 293.897084 313.74693 293.687349 314.120209 293.31407 
C 314.493488 292.940791 314.703223 292.434445 314.703223 291.906549 
C 314.703223 291.378652 314.493488 290.872306 314.120209 290.499027 
C 313.74693 290.125748 313.240584 289.916013 312.712687 289.916013 
C 312.184791 289.916013 311.678445 290.125748 311.305166 290.499027 
C 310.931887 290.872306 310.722151 291.378652 310.722151 291.906549 
C 310.722151 292.434445 310.931887 292.940791 311.305166 293.31407 
C 311.678445 293.687349 312.184791 293.897084 312.712687 293.897084 
z
" style="fill:#00ff00;fill-opacity:0.5;stroke:#00ff00;stroke-opacity:0.5;stroke-width:1.5;"/>
    <path clip-path="url(#pcbb087ce78)" d="M 268.172179 257.144832 
C 268.700075 257.144832 269.206421 256.935097 269.5797 256.561818 
C 269.952979 256.188539 270.162715 255.682193 270.162715 255.154296 
C 270.162715 254.6264 269.952979 254.120054 269.5797 253.746775 
C 269.206421 253.373496 268.700075 253.16376 268.172179 253.16376 
C 267.644282 253.16376 267.137936 253.373496 266.764657 253.746775 
C 266.391378 254.120054 266.181643 254.6264 266.181643 255.154296 
C 266.181643 255.682193 266.391378 256.188539 266.764657 256.561818 
C 267.137936 256.935097 267.644282 257.144832 268.172179 257.144832 
z
" style="fill:#00ff00;fill-opacity:0.5;stroke:#00ff00;stroke-opacity:0.5;stroke-width:1.5;"/>
    <path clip-path="url(#pcbb087ce78)" d="M 118.896268 80.715394 
C 119.630249 80.715394 120.334267 80.423781 120.85327 79.904777 
C 121.372273 79.385774 121.663887 78.681756 121.663887 77.947775 
C 121.663887 77.213794 121.372273 76.509776 120.85327 75.990772 
C 120.334267 75.471769 119.630249 75.180155 118.896268 75.180155 
C 118.162286 75.180155 117.458268 75.471769 116.939265 75.990772 
C 116.420262 76.509776 116.128648 77.213794 116.128648 77.947775 
C 116.128648 78.681756 116.420262 79.385774 116.939265 79.904777 
C 117.458268 80.423781 118.162286 80.715394 118.896268 80.715394 
z
" style="fill:#0080ff;fill-opacity:0.5;stroke:#0080ff;stroke-opacity:0.5;stroke-width:1.5;"/>
    <path clip-path="url(#pcbb087ce78)" d="M 165.816729 74.727173 
C 166.55071 74.727173 167.254729 74.43556 167.773732 73.916556 
C 168.292735 73.397553 168.584349 72.693535 168.584349 71.959554 
C 168.584349 71.225573 168.292735 70.521555 167.773732 70.002551 
C 167.254729 69.483548 166.55071 69.191934 165.816729 69.191934 
C 165.082748 69.191934 164.37873 69.483548 163.859727 70.002551 
C 163.340724 70.521555 163.04911 71.225573 163.04911 71.959554 
C 163.04911 72.693535 163.340724 73.397553 163.859727 73.916556 
C 164.37873 74.43556 165.082748 74.727173 165.816729 74.727173 
z
" style="fill:#0080ff;fill-opacity:0.5;stroke:#0080ff;stroke-opacity:0.5;stroke-width:1.5;"/>
    <path clip-path="url(#pcbb087ce78)" d="M 458.120694 470.712348 
C 459.024331 470.712348 459.891079 470.353329 460.530046 469.714361 
C 461.169014 469.075393 461.528033 468.208645 461.528033 467.305009 
C 461.528033 466.401372 461.169014 465.534624 460.530046 464.895656 
C 459.891079 464.256688 459.024331 463.897669 458.120694 463.897669 
C 457.217057 463.897669 456.350309 464.256688 455.711341 464.895656 
C 455.072373 465.534624 454.713354 466.401372 454.713354 467.305009 
C 454.713354 468.208645 455.072373 469.075393 455.711341 469.714361 
C 456.350309 470.353329 457.217057 470.712348 458.120694 470.712348 
z
" style="fill:#ff00ff;fill-opacity:0.5;stroke:#ff00ff;stroke-opacity:0.5;stroke-width:1.5;"/>
    <path clip-path="url(#pcbb087ce78)" d="M 52.302512 389.122369 
C 53.206149 389.122369 54.072897 388.763351 54.711865 388.124383 
C 55.350832 387.485415 55.709851 386.618667 55.709851 385.71503 
C 55.709851 384.811393 55.350832 383.944645 54.711865 383.305677 
C 54.072897 382.66671 53.206149 382.307691 52.302512 382.307691 
C 51.398875 382.307691 50.532127 382.66671 49.893159 383.305677 
C 49.254191 383.944645 48.895173 384.811393 48.895173 385.71503 
C 48.895173 386.618667 49.254191 387.485415 49.893159 388.124383 
C 50.532127 388.763351 51.398875 389.122369 52.302512 389.122369 
z
" style="fill:#ff8000;fill-opacity:0.5;stroke:#ff8000;stroke-opacity:0.5;stroke-width:1.5;"/>
   </g>
   <g id="text_1">
    <!-- Dead Cells is the evil offspring of Motion Twin -->
    <g style="fill:#00ff00;" transform="translate(235.664889 276.267882)scale(0.048877 -0.048877)">
     <defs>
      <path d="M 1259 4147 
L 1259 519 
L 2022 519 
Q 2988 519 3436 956 
Q 3884 1394 3884 2338 
Q 3884 3275 3436 3711 
Q 2988 4147 2022 4147 
L 1259 4147 
z
M 628 4666 
L 1925 4666 
Q 3281 4666 3915 4102 
Q 4550 3538 4550 2338 
Q 4550 1131 3912 565 
Q 3275 0 1925 0 
L 628 0 
L 628 4666 
z
" id="DejaVuSans-44" transform="scale(0.015625)"/>
      <path d="M 3597 1894 
L 3597 1613 
L 953 1613 
Q 991 1019 1311 708 
Q 1631 397 2203 397 
Q 2534 397 2845 478 
Q 3156 559 3463 722 
L 3463 178 
Q 3153 47 2828 -22 
Q 2503 -91 2169 -91 
Q 1331 -91 842 396 
Q 353 884 353 1716 
Q 353 2575 817 3079 
Q 1281 3584 2069 3584 
Q 2775 3584 3186 3129 
Q 3597 2675 3597 1894 
z
M 3022 2063 
Q 3016 2534 2758 2815 
Q 2500 3097 2075 3097 
Q 1594 3097 1305 2825 
Q 1016 2553 972 2059 
L 3022 2063 
z
" id="DejaVuSans-65" transform="scale(0.015625)"/>
      <path d="M 2194 1759 
Q 1497 1759 1228 1600 
Q 959 1441 959 1056 
Q 959 750 1161 570 
Q 1363 391 1709 391 
Q 2188 391 2477 730 
Q 2766 1069 2766 1631 
L 2766 1759 
L 2194 1759 
z
M 3341 1997 
L 3341 0 
L 2766 0 
L 2766 531 
Q 2569 213 2275 61 
Q 1981 -91 1556 -91 
Q 1019 -91 701 211 
Q 384 513 384 1019 
Q 384 1609 779 1909 
Q 1175 2209 1959 2209 
L 2766 2209 
L 2766 2266 
Q 2766 2663 2505 2880 
Q 2244 3097 1772 3097 
Q 1472 3097 1187 3025 
Q 903 2953 641 2809 
L 641 3341 
Q 956 3463 1253 3523 
Q 1550 3584 1831 3584 
Q 2591 3584 2966 3190 
Q 3341 2797 3341 1997 
z
" id="DejaVuSans-61" transform="scale(0.015625)"/>
      <path d="M 2906 2969 
L 2906 4863 
L 3481 4863 
L 3481 0 
L 2906 0 
L 2906 525 
Q 2725 213 2448 61 
Q 2172 -91 1784 -91 
Q 1150 -91 751 415 
Q 353 922 353 1747 
Q 353 2572 751 3078 
Q 1150 3584 1784 3584 
Q 2172 3584 2448 3432 
Q 2725 3281 2906 2969 
z
M 947 1747 
Q 947 1113 1208 752 
Q 1469 391 1925 391 
Q 2381 391 2643 752 
Q 2906 1113 2906 1747 
Q 2906 2381 2643 2742 
Q 2381 3103 1925 3103 
Q 1469 3103 1208 2742 
Q 947 2381 947 1747 
z
" id="DejaVuSans-64" transform="scale(0.015625)"/>
      <path id="DejaVuSans-20" transform="scale(0.015625)"/>
      <path d="M 4122 4306 
L 4122 3641 
Q 3803 3938 3442 4084 
Q 3081 4231 2675 4231 
Q 1875 4231 1450 3742 
Q 1025 3253 1025 2328 
Q 1025 1406 1450 917 
Q 1875 428 2675 428 
Q 3081 428 3442 575 
Q 3803 722 4122 1019 
L 4122 359 
Q 3791 134 3420 21 
Q 3050 -91 2638 -91 
Q 1578 -91 968 557 
Q 359 1206 359 2328 
Q 359 3453 968 4101 
Q 1578 4750 2638 4750 
Q 3056 4750 3426 4639 
Q 3797 4528 4122 4306 
z
" id="DejaVuSans-43" transform="scale(0.015625)"/>
      <path d="M 603 4863 
L 1178 4863 
L 1178 0 
L 603 0 
L 603 4863 
z
" id="DejaVuSans-6c" transform="scale(0.015625)"/>
      <path d="M 2834 3397 
L 2834 2853 
Q 2591 2978 2328 3040 
Q 2066 3103 1784 3103 
Q 1356 3103 1142 2972 
Q 928 2841 928 2578 
Q 928 2378 1081 2264 
Q 1234 2150 1697 2047 
L 1894 2003 
Q 2506 1872 2764 1633 
Q 3022 1394 3022 966 
Q 3022 478 2636 193 
Q 2250 -91 1575 -91 
Q 1294 -91 989 -36 
Q 684 19 347 128 
L 347 722 
Q 666 556 975 473 
Q 1284 391 1588 391 
Q 1994 391 2212 530 
Q 2431 669 2431 922 
Q 2431 1156 2273 1281 
Q 2116 1406 1581 1522 
L 1381 1569 
Q 847 1681 609 1914 
Q 372 2147 372 2553 
Q 372 3047 722 3315 
Q 1072 3584 1716 3584 
Q 2034 3584 2315 3537 
Q 2597 3491 2834 3397 
z
" id="DejaVuSans-73" transform="scale(0.015625)"/>
      <path d="M 603 3500 
L 1178 3500 
L 1178 0 
L 603 0 
L 603 3500 
z
M 603 4863 
L 1178 4863 
L 1178 4134 
L 603 4134 
L 603 4863 
z
" id="DejaVuSans-69" transform="scale(0.015625)"/>
      <path d="M 1172 4494 
L 1172 3500 
L 2356 3500 
L 2356 3053 
L 1172 3053 
L 1172 1153 
Q 1172 725 1289 603 
Q 1406 481 1766 481 
L 2356 481 
L 2356 0 
L 1766 0 
Q 1100 0 847 248 
Q 594 497 594 1153 
L 594 3053 
L 172 3053 
L 172 3500 
L 594 3500 
L 594 4494 
L 1172 4494 
z
" id="DejaVuSans-74" transform="scale(0.015625)"/>
      <path d="M 3513 2113 
L 3513 0 
L 2938 0 
L 2938 2094 
Q 2938 2591 2744 2837 
Q 2550 3084 2163 3084 
Q 1697 3084 1428 2787 
Q 1159 2491 1159 1978 
L 1159 0 
L 581 0 
L 581 4863 
L 1159 4863 
L 1159 2956 
Q 1366 3272 1645 3428 
Q 1925 3584 2291 3584 
Q 2894 3584 3203 3211 
Q 3513 2838 3513 2113 
z
" id="DejaVuSans-68" transform="scale(0.015625)"/>
      <path d="M 191 3500 
L 800 3500 
L 1894 563 
L 2988 3500 
L 3597 3500 
L 2284 0 
L 1503 0 
L 191 3500 
z
" id="DejaVuSans-76" transform="scale(0.015625)"/>
      <path d="M 1959 3097 
Q 1497 3097 1228 2736 
Q 959 2375 959 1747 
Q 959 1119 1226 758 
Q 1494 397 1959 397 
Q 2419 397 2687 759 
Q 2956 1122 2956 1747 
Q 2956 2369 2687 2733 
Q 2419 3097 1959 3097 
z
M 1959 3584 
Q 2709 3584 3137 3096 
Q 3566 2609 3566 1747 
Q 3566 888 3137 398 
Q 2709 -91 1959 -91 
Q 1206 -91 779 398 
Q 353 888 353 1747 
Q 353 2609 779 3096 
Q 1206 3584 1959 3584 
z
" id="DejaVuSans-6f" transform="scale(0.015625)"/>
      <path d="M 2375 4863 
L 2375 4384 
L 1825 4384 
Q 1516 4384 1395 4259 
Q 1275 4134 1275 3809 
L 1275 3500 
L 2222 3500 
L 2222 3053 
L 1275 3053 
L 1275 0 
L 697 0 
L 697 3053 
L 147 3053 
L 147 3500 
L 697 3500 
L 697 3744 
Q 697 4328 969 4595 
Q 1241 4863 1831 4863 
L 2375 4863 
z
" id="DejaVuSans-66" transform="scale(0.015625)"/>
      <path d="M 1159 525 
L 1159 -1331 
L 581 -1331 
L 581 3500 
L 1159 3500 
L 1159 2969 
Q 1341 3281 1617 3432 
Q 1894 3584 2278 3584 
Q 2916 3584 3314 3078 
Q 3713 2572 3713 1747 
Q 3713 922 3314 415 
Q 2916 -91 2278 -91 
Q 1894 -91 1617 61 
Q 1341 213 1159 525 
z
M 3116 1747 
Q 3116 2381 2855 2742 
Q 2594 3103 2138 3103 
Q 1681 3103 1420 2742 
Q 1159 2381 1159 1747 
Q 1159 1113 1420 752 
Q 1681 391 2138 391 
Q 2594 391 2855 752 
Q 3116 1113 3116 1747 
z
" id="DejaVuSans-70" transform="scale(0.015625)"/>
      <path d="M 2631 2963 
Q 2534 3019 2420 3045 
Q 2306 3072 2169 3072 
Q 1681 3072 1420 2755 
Q 1159 2438 1159 1844 
L 1159 0 
L 581 0 
L 581 3500 
L 1159 3500 
L 1159 2956 
Q 1341 3275 1631 3429 
Q 1922 3584 2338 3584 
Q 2397 3584 2469 3576 
Q 2541 3569 2628 3553 
L 2631 2963 
z
" id="DejaVuSans-72" transform="scale(0.015625)"/>
      <path d="M 3513 2113 
L 3513 0 
L 2938 0 
L 2938 2094 
Q 2938 2591 2744 2837 
Q 2550 3084 2163 3084 
Q 1697 3084 1428 2787 
Q 1159 2491 1159 1978 
L 1159 0 
L 581 0 
L 581 3500 
L 1159 3500 
L 1159 2956 
Q 1366 3272 1645 3428 
Q 1925 3584 2291 3584 
Q 2894 3584 3203 3211 
Q 3513 2838 3513 2113 
z
" id="DejaVuSans-6e" transform="scale(0.015625)"/>
      <path d="M 2906 1791 
Q 2906 2416 2648 2759 
Q 2391 3103 1925 3103 
Q 1463 3103 1205 2759 
Q 947 2416 947 1791 
Q 947 1169 1205 825 
Q 1463 481 1925 481 
Q 2391 481 2648 825 
Q 2906 1169 2906 1791 
z
M 3481 434 
Q 3481 -459 3084 -895 
Q 2688 -1331 1869 -1331 
Q 1566 -1331 1297 -1286 
Q 1028 -1241 775 -1147 
L 775 -588 
Q 1028 -725 1275 -790 
Q 1522 -856 1778 -856 
Q 2344 -856 2625 -561 
Q 2906 -266 2906 331 
L 2906 616 
Q 2728 306 2450 153 
Q 2172 0 1784 0 
Q 1141 0 747 490 
Q 353 981 353 1791 
Q 353 2603 747 3093 
Q 1141 3584 1784 3584 
Q 2172 3584 2450 3431 
Q 2728 3278 2906 2969 
L 2906 3500 
L 3481 3500 
L 3481 434 
z
" id="DejaVuSans-67" transform="scale(0.015625)"/>
      <path d="M 628 4666 
L 1569 4666 
L 2759 1491 
L 3956 4666 
L 4897 4666 
L 4897 0 
L 4281 0 
L 4281 4097 
L 3078 897 
L 2444 897 
L 1241 4097 
L 1241 0 
L 628 0 
L 628 4666 
z
" id="DejaVuSans-4d" transform="scale(0.015625)"/>
      <path d="M -19 4666 
L 3928 4666 
L 3928 4134 
L 2272 4134 
L 2272 0 
L 1638 0 
L 1638 4134 
L -19 4134 
L -19 4666 
z
" id="DejaVuSans-54" transform="scale(0.015625)"/>
      <path d="M 269 3500 
L 844 3500 
L 1563 769 
L 2278 3500 
L 2956 3500 
L 3675 769 
L 4391 3500 
L 4966 3500 
L 4050 0 
L 3372 0 
L 2619 2869 
L 1863 0 
L 1184 0 
L 269 3500 
z
" id="DejaVuSans-77" transform="scale(0.015625)"/>
     </defs>
     <use xlink:href="#DejaVuSans-44"/>
     <use x="77.001953" xlink:href="#DejaVuSans-65"/>
     <use x="138.525391" xlink:href="#DejaVuSans-61"/>
     <use x="199.804688" xlink:href="#DejaVuSans-64"/>
     <use x="263.28125" xlink:href="#DejaVuSans-20"/>
     <use x="295.068359" xlink:href="#DejaVuSans-43"/>
     <use x="364.892578" xlink:href="#DejaVuSans-65"/>
     <use x="426.416016" xlink:href="#DejaVuSans-6c"/>
     <use x="454.199219" xlink:href="#DejaVuSans-6c"/>
     <use x="481.982422" xlink:href="#DejaVuSans-73"/>
     <use x="534.082031" xlink:href="#DejaVuSans-20"/>
     <use x="565.869141" xlink:href="#DejaVuSans-69"/>
     <use x="593.652344" xlink:href="#DejaVuSans-73"/>
     <use x="645.751953" xlink:href="#DejaVuSans-20"/>
     <use x="677.539062" xlink:href="#DejaVuSans-74"/>
     <use x="716.748047" xlink:href="#DejaVuSans-68"/>
     <use x="780.126953" xlink:href="#DejaVuSans-65"/>
     <use x="841.650391" xlink:href="#DejaVuSans-20"/>
     <use x="873.4375" xlink:href="#DejaVuSans-65"/>
     <use x="934.960938" xlink:href="#DejaVuSans-76"/>
     <use x="994.140625" xlink:href="#DejaVuSans-69"/>
     <use x="1021.923828" xlink:href="#DejaVuSans-6c"/>
     <use x="1049.707031" xlink:href="#DejaVuSans-20"/>
     <use x="1081.494141" xlink:href="#DejaVuSans-6f"/>
     <use x="1142.675781" xlink:href="#DejaVuSans-66"/>
     <use x="1177.880859" xlink:href="#DejaVuSans-66"/>
     <use x="1213.085938" xlink:href="#DejaVuSans-73"/>
     <use x="1265.185547" xlink:href="#DejaVuSans-70"/>
     <use x="1328.662109" xlink:href="#DejaVuSans-72"/>
     <use x="1369.775391" xlink:href="#DejaVuSans-69"/>
     <use x="1397.558594" xlink:href="#DejaVuSans-6e"/>
     <use x="1460.9375" xlink:href="#DejaVuSans-67"/>
     <use x="1524.414062" xlink:href="#DejaVuSans-20"/>
     <use x="1556.201172" xlink:href="#DejaVuSans-6f"/>
     <use x="1617.382812" xlink:href="#DejaVuSans-66"/>
     <use x="1652.587891" xlink:href="#DejaVuSans-20"/>
     <use x="1684.375" xlink:href="#DejaVuSans-4d"/>
     <use x="1770.654297" xlink:href="#DejaVuSans-6f"/>
     <use x="1831.835938" xlink:href="#DejaVuSans-74"/>
     <use x="1871.044922" xlink:href="#DejaVuSans-69"/>
     <use x="1898.828125" xlink:href="#DejaVuSans-6f"/>
     <use x="1960.009766" xlink:href="#DejaVuSans-6e"/>
     <use x="2023.388672" xlink:href="#DejaVuSans-20"/>
     <use x="2055.175781" xlink:href="#DejaVuSans-54"/>
     <use x="2099.759766" xlink:href="#DejaVuSans-77"/>
     <use x="2181.546875" xlink:href="#DejaVuSans-69"/>
     <use x="2209.330078" xlink:href="#DejaVuSans-6e"/>
    </g>
   </g>
   <g id="text_2">
    <!-- Music -->
    <g style="fill:#ff00ff;" transform="translate(446.218551 469.613667)scale(0.083666 -0.083666)">
     <defs>
      <path d="M 544 1381 
L 544 3500 
L 1119 3500 
L 1119 1403 
Q 1119 906 1312 657 
Q 1506 409 1894 409 
Q 2359 409 2629 706 
Q 2900 1003 2900 1516 
L 2900 3500 
L 3475 3500 
L 3475 0 
L 2900 0 
L 2900 538 
Q 2691 219 2414 64 
Q 2138 -91 1772 -91 
Q 1169 -91 856 284 
Q 544 659 544 1381 
z
M 1991 3584 
L 1991 3584 
z
" id="DejaVuSans-75" transform="scale(0.015625)"/>
      <path d="M 3122 3366 
L 3122 2828 
Q 2878 2963 2633 3030 
Q 2388 3097 2138 3097 
Q 1578 3097 1268 2742 
Q 959 2388 959 1747 
Q 959 1106 1268 751 
Q 1578 397 2138 397 
Q 2388 397 2633 464 
Q 2878 531 3122 666 
L 3122 134 
Q 2881 22 2623 -34 
Q 2366 -91 2075 -91 
Q 1284 -91 818 406 
Q 353 903 353 1747 
Q 353 2603 823 3093 
Q 1294 3584 2113 3584 
Q 2378 3584 2631 3529 
Q 2884 3475 3122 3366 
z
" id="DejaVuSans-63" transform="scale(0.015625)"/>
     </defs>
     <use xlink:href="#DejaVuSans-4d"/>
     <use x="86.279297" xlink:href="#DejaVuSans-75"/>
     <use x="149.658203" xlink:href="#DejaVuSans-73"/>
     <use x="201.757812" xlink:href="#DejaVuSans-69"/>
     <use x="229.541016" xlink:href="#DejaVuSans-63"/>
    </g>
   </g>
   <g id="text_3">
    <!-- Marketing -->
    <g style="fill:#0080ff;" transform="translate(125.423829 76.828878)scale(0.067958 -0.067958)">
     <defs>
      <path d="M 581 4863 
L 1159 4863 
L 1159 1991 
L 2875 3500 
L 3609 3500 
L 1753 1863 
L 3688 0 
L 2938 0 
L 1159 1709 
L 1159 0 
L 581 0 
L 581 4863 
z
" id="DejaVuSans-6b" transform="scale(0.015625)"/>
     </defs>
     <use xlink:href="#DejaVuSans-4d"/>
     <use x="86.279297" xlink:href="#DejaVuSans-61"/>
     <use x="147.558594" xlink:href="#DejaVuSans-72"/>
     <use x="188.671875" xlink:href="#DejaVuSans-6b"/>
     <use x="242.957031" xlink:href="#DejaVuSans-65"/>
     <use x="304.480469" xlink:href="#DejaVuSans-74"/>
     <use x="343.689453" xlink:href="#DejaVuSans-69"/>
     <use x="371.472656" xlink:href="#DejaVuSans-6e"/>
     <use x="434.851562" xlink:href="#DejaVuSans-67"/>
    </g>
   </g>
   <g id="text_4">
    <!-- Japanese Localization -->
    <g style="fill:#ff8000;" transform="translate(7.2 388.023689)scale(0.083666 -0.083666)">
     <defs>
      <path d="M 628 4666 
L 1259 4666 
L 1259 325 
Q 1259 -519 939 -900 
Q 619 -1281 -91 -1281 
L -331 -1281 
L -331 -750 
L -134 -750 
Q 284 -750 456 -515 
Q 628 -281 628 325 
L 628 4666 
z
" id="DejaVuSans-4a" transform="scale(0.015625)"/>
      <path d="M 628 4666 
L 1259 4666 
L 1259 531 
L 3531 531 
L 3531 0 
L 628 0 
L 628 4666 
z
" id="DejaVuSans-4c" transform="scale(0.015625)"/>
      <path d="M 353 3500 
L 3084 3500 
L 3084 2975 
L 922 459 
L 3084 459 
L 3084 0 
L 275 0 
L 275 525 
L 2438 3041 
L 353 3041 
L 353 3500 
z
" id="DejaVuSans-7a" transform="scale(0.015625)"/>
     </defs>
     <use xlink:href="#DejaVuSans-4a"/>
     <use x="29.492188" xlink:href="#DejaVuSans-61"/>
     <use x="90.771484" xlink:href="#DejaVuSans-70"/>
     <use x="154.248047" xlink:href="#DejaVuSans-61"/>
     <use x="215.527344" xlink:href="#DejaVuSans-6e"/>
     <use x="278.90625" xlink:href="#DejaVuSans-65"/>
     <use x="340.429688" xlink:href="#DejaVuSans-73"/>
     <use x="392.529297" xlink:href="#DejaVuSans-65"/>
     <use x="454.052734" xlink:href="#DejaVuSans-20"/>
     <use x="485.839844" xlink:href="#DejaVuSans-4c"/>
     <use x="539.802734" xlink:href="#DejaVuSans-6f"/>
     <use x="600.984375" xlink:href="#DejaVuSans-63"/>
     <use x="655.964844" xlink:href="#DejaVuSans-61"/>
     <use x="717.244141" xlink:href="#DejaVuSans-6c"/>
     <use x="745.027344" xlink:href="#DejaVuSans-69"/>
     <use x="772.810547" xlink:href="#DejaVuSans-7a"/>
     <use x="825.300781" xlink:href="#DejaVuSans-61"/>
     <use x="886.580078" xlink:href="#DejaVuSans-74"/>
     <use x="925.789062" xlink:href="#DejaVuSans-69"/>
     <use x="953.572266" xlink:href="#DejaVuSans-6f"/>
     <use x="1014.753906" xlink:href="#DejaVuSans-6e"/>
    </g>
   </g>
   <g id="text_5">
    <!-- dead-cells: Who worked with who?  -->
    <g transform="translate(140.746603 17.077969)scale(0.13 -0.13)">
     <defs>
      <path d="M 313 2009 
L 1997 2009 
L 1997 1497 
L 313 1497 
L 313 2009 
z
" id="DejaVuSans-2d" transform="scale(0.015625)"/>
      <path d="M 750 794 
L 1409 794 
L 1409 0 
L 750 0 
L 750 794 
z
M 750 3309 
L 1409 3309 
L 1409 2516 
L 750 2516 
L 750 3309 
z
" id="DejaVuSans-3a" transform="scale(0.015625)"/>
      <path d="M 213 4666 
L 850 4666 
L 1831 722 
L 2809 4666 
L 3519 4666 
L 4500 722 
L 5478 4666 
L 6119 4666 
L 4947 0 
L 4153 0 
L 3169 4050 
L 2175 0 
L 1381 0 
L 213 4666 
z
" id="DejaVuSans-57" transform="scale(0.015625)"/>
      <path d="M 1222 794 
L 1856 794 
L 1856 0 
L 1222 0 
L 1222 794 
z
M 1838 1253 
L 1241 1253 
L 1241 1734 
Q 1241 2050 1328 2253 
Q 1416 2456 1697 2725 
L 1978 3003 
Q 2156 3169 2236 3316 
Q 2316 3463 2316 3616 
Q 2316 3894 2111 4066 
Q 1906 4238 1569 4238 
Q 1322 4238 1042 4128 
Q 763 4019 459 3809 
L 459 4397 
Q 753 4575 1054 4662 
Q 1356 4750 1678 4750 
Q 2253 4750 2601 4447 
Q 2950 4144 2950 3647 
Q 2950 3409 2837 3195 
Q 2725 2981 2444 2713 
L 2169 2444 
Q 2022 2297 1961 2214 
Q 1900 2131 1875 2053 
Q 1856 1988 1847 1894 
Q 1838 1800 1838 1638 
L 1838 1253 
z
" id="DejaVuSans-3f" transform="scale(0.015625)"/>
     </defs>
     <use xlink:href="#DejaVuSans-64"/>
     <use x="63.476562" xlink:href="#DejaVuSans-65"/>
     <use x="125" xlink:href="#DejaVuSans-61"/>
     <use x="186.279297" xlink:href="#DejaVuSans-64"/>
     <use x="249.755859" xlink:href="#DejaVuSans-2d"/>
     <use x="285.839844" xlink:href="#DejaVuSans-63"/>
     <use x="340.820312" xlink:href="#DejaVuSans-65"/>
     <use x="402.34375" xlink:href="#DejaVuSans-6c"/>
     <use x="430.126953" xlink:href="#DejaVuSans-6c"/>
     <use x="457.910156" xlink:href="#DejaVuSans-73"/>
     <use x="510.009766" xlink:href="#DejaVuSans-3a"/>
     <use x="543.701172" xlink:href="#DejaVuSans-20"/>
     <use x="575.488281" xlink:href="#DejaVuSans-57"/>
     <use x="674.365234" xlink:href="#DejaVuSans-68"/>
     <use x="737.744141" xlink:href="#DejaVuSans-6f"/>
     <use x="798.925781" xlink:href="#DejaVuSans-20"/>
     <use x="830.712891" xlink:href="#DejaVuSans-77"/>
     <use x="912.5" xlink:href="#DejaVuSans-6f"/>
     <use x="973.681641" xlink:href="#DejaVuSans-72"/>
     <use x="1014.794922" xlink:href="#DejaVuSans-6b"/>
     <use x="1069.080078" xlink:href="#DejaVuSans-65"/>
     <use x="1130.603516" xlink:href="#DejaVuSans-64"/>
     <use x="1194.080078" xlink:href="#DejaVuSans-20"/>
     <use x="1225.867188" xlink:href="#DejaVuSans-77"/>
     <use x="1307.654297" xlink:href="#DejaVuSans-69"/>
     <use x="1335.4375" xlink:href="#DejaVuSans-74"/>
     <use x="1374.646484" xlink:href="#DejaVuSans-68"/>
     <use x="1438.025391" xlink:href="#DejaVuSans-20"/>
     <use x="1469.8125" xlink:href="#DejaVuSans-77"/>
     <use x="1551.599609" xlink:href="#DejaVuSans-68"/>
     <use x="1614.978516" xlink:href="#DejaVuSans-6f"/>
     <use x="1676.160156" xlink:href="#DejaVuSans-3f"/>
     <use x="1729.236328" xlink:href="#DejaVuSans-20"/>
    </g>
    <!-- Prior shared game dev experience network of members  -->
    <g transform="translate(71.660743 31.635125)scale(0.13 -0.13)">
     <defs>
      <path d="M 1259 4147 
L 1259 2394 
L 2053 2394 
Q 2494 2394 2734 2622 
Q 2975 2850 2975 3272 
Q 2975 3691 2734 3919 
Q 2494 4147 2053 4147 
L 1259 4147 
z
M 628 4666 
L 2053 4666 
Q 2838 4666 3239 4311 
Q 3641 3956 3641 3272 
Q 3641 2581 3239 2228 
Q 2838 1875 2053 1875 
L 1259 1875 
L 1259 0 
L 628 0 
L 628 4666 
z
" id="DejaVuSans-50" transform="scale(0.015625)"/>
      <path d="M 3328 2828 
Q 3544 3216 3844 3400 
Q 4144 3584 4550 3584 
Q 5097 3584 5394 3201 
Q 5691 2819 5691 2113 
L 5691 0 
L 5113 0 
L 5113 2094 
Q 5113 2597 4934 2840 
Q 4756 3084 4391 3084 
Q 3944 3084 3684 2787 
Q 3425 2491 3425 1978 
L 3425 0 
L 2847 0 
L 2847 2094 
Q 2847 2600 2669 2842 
Q 2491 3084 2119 3084 
Q 1678 3084 1418 2786 
Q 1159 2488 1159 1978 
L 1159 0 
L 581 0 
L 581 3500 
L 1159 3500 
L 1159 2956 
Q 1356 3278 1631 3431 
Q 1906 3584 2284 3584 
Q 2666 3584 2933 3390 
Q 3200 3197 3328 2828 
z
" id="DejaVuSans-6d" transform="scale(0.015625)"/>
      <path d="M 3513 3500 
L 2247 1797 
L 3578 0 
L 2900 0 
L 1881 1375 
L 863 0 
L 184 0 
L 1544 1831 
L 300 3500 
L 978 3500 
L 1906 2253 
L 2834 3500 
L 3513 3500 
z
" id="DejaVuSans-78" transform="scale(0.015625)"/>
      <path d="M 3116 1747 
Q 3116 2381 2855 2742 
Q 2594 3103 2138 3103 
Q 1681 3103 1420 2742 
Q 1159 2381 1159 1747 
Q 1159 1113 1420 752 
Q 1681 391 2138 391 
Q 2594 391 2855 752 
Q 3116 1113 3116 1747 
z
M 1159 2969 
Q 1341 3281 1617 3432 
Q 1894 3584 2278 3584 
Q 2916 3584 3314 3078 
Q 3713 2572 3713 1747 
Q 3713 922 3314 415 
Q 2916 -91 2278 -91 
Q 1894 -91 1617 61 
Q 1341 213 1159 525 
L 1159 0 
L 581 0 
L 581 4863 
L 1159 4863 
L 1159 2969 
z
" id="DejaVuSans-62" transform="scale(0.015625)"/>
     </defs>
     <use xlink:href="#DejaVuSans-50"/>
     <use x="58.552734" xlink:href="#DejaVuSans-72"/>
     <use x="99.666016" xlink:href="#DejaVuSans-69"/>
     <use x="127.449219" xlink:href="#DejaVuSans-6f"/>
     <use x="188.630859" xlink:href="#DejaVuSans-72"/>
     <use x="229.744141" xlink:href="#DejaVuSans-20"/>
     <use x="261.53125" xlink:href="#DejaVuSans-73"/>
     <use x="313.630859" xlink:href="#DejaVuSans-68"/>
     <use x="377.009766" xlink:href="#DejaVuSans-61"/>
     <use x="438.289062" xlink:href="#DejaVuSans-72"/>
     <use x="477.152344" xlink:href="#DejaVuSans-65"/>
     <use x="538.675781" xlink:href="#DejaVuSans-64"/>
     <use x="602.152344" xlink:href="#DejaVuSans-20"/>
     <use x="633.939453" xlink:href="#DejaVuSans-67"/>
     <use x="697.416016" xlink:href="#DejaVuSans-61"/>
     <use x="758.695312" xlink:href="#DejaVuSans-6d"/>
     <use x="856.107422" xlink:href="#DejaVuSans-65"/>
     <use x="917.630859" xlink:href="#DejaVuSans-20"/>
     <use x="949.417969" xlink:href="#DejaVuSans-64"/>
     <use x="1012.894531" xlink:href="#DejaVuSans-65"/>
     <use x="1074.417969" xlink:href="#DejaVuSans-76"/>
     <use x="1133.597656" xlink:href="#DejaVuSans-20"/>
     <use x="1165.384766" xlink:href="#DejaVuSans-65"/>
     <use x="1225.158203" xlink:href="#DejaVuSans-78"/>
     <use x="1284.337891" xlink:href="#DejaVuSans-70"/>
     <use x="1347.814453" xlink:href="#DejaVuSans-65"/>
     <use x="1409.337891" xlink:href="#DejaVuSans-72"/>
     <use x="1450.451172" xlink:href="#DejaVuSans-69"/>
     <use x="1478.234375" xlink:href="#DejaVuSans-65"/>
     <use x="1539.757812" xlink:href="#DejaVuSans-6e"/>
     <use x="1603.136719" xlink:href="#DejaVuSans-63"/>
     <use x="1658.117188" xlink:href="#DejaVuSans-65"/>
     <use x="1719.640625" xlink:href="#DejaVuSans-20"/>
     <use x="1751.427734" xlink:href="#DejaVuSans-6e"/>
     <use x="1814.806641" xlink:href="#DejaVuSans-65"/>
     <use x="1876.330078" xlink:href="#DejaVuSans-74"/>
     <use x="1915.539062" xlink:href="#DejaVuSans-77"/>
     <use x="1997.326172" xlink:href="#DejaVuSans-6f"/>
     <use x="2058.507812" xlink:href="#DejaVuSans-72"/>
     <use x="2099.621094" xlink:href="#DejaVuSans-6b"/>
     <use x="2157.53125" xlink:href="#DejaVuSans-20"/>
     <use x="2189.318359" xlink:href="#DejaVuSans-6f"/>
     <use x="2250.5" xlink:href="#DejaVuSans-66"/>
     <use x="2285.705078" xlink:href="#DejaVuSans-20"/>
     <use x="2317.492188" xlink:href="#DejaVuSans-6d"/>
     <use x="2414.904297" xlink:href="#DejaVuSans-65"/>
     <use x="2476.427734" xlink:href="#DejaVuSans-6d"/>
     <use x="2573.839844" xlink:href="#DejaVuSans-62"/>
     <use x="2637.316406" xlink:href="#DejaVuSans-65"/>
     <use x="2698.839844" xlink:href="#DejaVuSans-72"/>
     <use x="2739.953125" xlink:href="#DejaVuSans-73"/>
     <use x="2792.052734" xlink:href="#DejaVuSans-20"/>
    </g>
    <!-- (colored by their role in dev team) -->
    <g transform="translate(143.571056 46.192281)scale(0.13 -0.13)">
     <defs>
      <path d="M 1984 4856 
Q 1566 4138 1362 3434 
Q 1159 2731 1159 2009 
Q 1159 1288 1364 580 
Q 1569 -128 1984 -844 
L 1484 -844 
Q 1016 -109 783 600 
Q 550 1309 550 2009 
Q 550 2706 781 3412 
Q 1013 4119 1484 4856 
L 1984 4856 
z
" id="DejaVuSans-28" transform="scale(0.015625)"/>
      <path d="M 2059 -325 
Q 1816 -950 1584 -1140 
Q 1353 -1331 966 -1331 
L 506 -1331 
L 506 -850 
L 844 -850 
Q 1081 -850 1212 -737 
Q 1344 -625 1503 -206 
L 1606 56 
L 191 3500 
L 800 3500 
L 1894 763 
L 2988 3500 
L 3597 3500 
L 2059 -325 
z
" id="DejaVuSans-79" transform="scale(0.015625)"/>
      <path d="M 513 4856 
L 1013 4856 
Q 1481 4119 1714 3412 
Q 1947 2706 1947 2009 
Q 1947 1309 1714 600 
Q 1481 -109 1013 -844 
L 513 -844 
Q 928 -128 1133 580 
Q 1338 1288 1338 2009 
Q 1338 2731 1133 3434 
Q 928 4138 513 4856 
z
" id="DejaVuSans-29" transform="scale(0.015625)"/>
     </defs>
     <use xlink:href="#DejaVuSans-28"/>
     <use x="39.013672" xlink:href="#DejaVuSans-63"/>
     <use x="93.994141" xlink:href="#DejaVuSans-6f"/>
     <use x="155.175781" xlink:href="#DejaVuSans-6c"/>
     <use x="182.958984" xlink:href="#DejaVuSans-6f"/>
     <use x="244.140625" xlink:href="#DejaVuSans-72"/>
     <use x="283.003906" xlink:href="#DejaVuSans-65"/>
     <use x="344.527344" xlink:href="#DejaVuSans-64"/>
     <use x="408.003906" xlink:href="#DejaVuSans-20"/>
     <use x="439.791016" xlink:href="#DejaVuSans-62"/>
     <use x="503.267578" xlink:href="#DejaVuSans-79"/>
     <use x="562.447266" xlink:href="#DejaVuSans-20"/>
     <use x="594.234375" xlink:href="#DejaVuSans-74"/>
     <use x="633.443359" xlink:href="#DejaVuSans-68"/>
     <use x="696.822266" xlink:href="#DejaVuSans-65"/>
     <use x="758.345703" xlink:href="#DejaVuSans-69"/>
     <use x="786.128906" xlink:href="#DejaVuSans-72"/>
     <use x="827.242188" xlink:href="#DejaVuSans-20"/>
     <use x="859.029297" xlink:href="#DejaVuSans-72"/>
     <use x="897.892578" xlink:href="#DejaVuSans-6f"/>
     <use x="959.074219" xlink:href="#DejaVuSans-6c"/>
     <use x="986.857422" xlink:href="#DejaVuSans-65"/>
     <use x="1048.380859" xlink:href="#DejaVuSans-20"/>
     <use x="1080.167969" xlink:href="#DejaVuSans-69"/>
     <use x="1107.951172" xlink:href="#DejaVuSans-6e"/>
     <use x="1171.330078" xlink:href="#DejaVuSans-20"/>
     <use x="1203.117188" xlink:href="#DejaVuSans-64"/>
     <use x="1266.59375" xlink:href="#DejaVuSans-65"/>
     <use x="1328.117188" xlink:href="#DejaVuSans-76"/>
     <use x="1387.296875" xlink:href="#DejaVuSans-20"/>
     <use x="1419.083984" xlink:href="#DejaVuSans-74"/>
     <use x="1458.292969" xlink:href="#DejaVuSans-65"/>
     <use x="1519.816406" xlink:href="#DejaVuSans-61"/>
     <use x="1581.095703" xlink:href="#DejaVuSans-6d"/>
     <use x="1678.507812" xlink:href="#DejaVuSans-29"/>
    </g>
   </g>
   <g id="legend_1">
    <g id="patch_2">
     <path d="M 483.311603 99.262281 
L 773.869571 99.262281 
Q 775.269571 99.262281 775.269571 97.862281 
L 775.269571 57.092281 
Q 775.269571 55.692281 773.869571 55.692281 
L 483.311603 55.692281 
Q 481.911603 55.692281 481.911603 57.092281 
L 481.911603 97.862281 
Q 481.911603 99.262281 483.311603 99.262281 
z
" style="fill:#ffffff;opacity:0.8;stroke:#cccccc;stroke-linejoin:miter;stroke-width:1.5;"/>
    </g>
    <g id="text_6">
     <!-- Roles -->
     <g transform="translate(604.508556 72.169469)scale(0.18 -0.18)">
      <defs>
       <path d="M 2841 2188 
Q 3044 2119 3236 1894 
Q 3428 1669 3622 1275 
L 4263 0 
L 3584 0 
L 2988 1197 
Q 2756 1666 2539 1819 
Q 2322 1972 1947 1972 
L 1259 1972 
L 1259 0 
L 628 0 
L 628 4666 
L 2053 4666 
Q 2853 4666 3247 4331 
Q 3641 3997 3641 3322 
Q 3641 2881 3436 2590 
Q 3231 2300 2841 2188 
z
M 1259 4147 
L 1259 2491 
L 2053 2491 
Q 2509 2491 2742 2702 
Q 2975 2913 2975 3322 
Q 2975 3731 2742 3939 
Q 2509 4147 2053 4147 
L 1259 4147 
z
" id="DejaVuSans-52" transform="scale(0.015625)"/>
      </defs>
      <use xlink:href="#DejaVuSans-52"/>
      <use x="64.982422" xlink:href="#DejaVuSans-6f"/>
      <use x="126.164062" xlink:href="#DejaVuSans-6c"/>
      <use x="153.947266" xlink:href="#DejaVuSans-65"/>
      <use x="215.470703" xlink:href="#DejaVuSans-73"/>
     </g>
    </g>
    <g id="patch_3">
     <path d="M 484.711603 84.731812 
L 498.711603 84.731812 
L 498.711603 79.831812 
L 484.711603 79.831812 
z
" style="fill:#00ff00;stroke:#00ff00;stroke-linejoin:miter;stroke-width:1.5;"/>
    </g>
    <g id="text_7">
     <!-- Dead Cells is the evil offspring of Motion Twin -->
     <g transform="translate(504.311603 84.731812)scale(0.07 -0.07)">
      <use xlink:href="#DejaVuSans-44"/>
      <use x="77.001953" xlink:href="#DejaVuSans-65"/>
      <use x="138.525391" xlink:href="#DejaVuSans-61"/>
      <use x="199.804688" xlink:href="#DejaVuSans-64"/>
      <use x="263.28125" xlink:href="#DejaVuSans-20"/>
      <use x="295.068359" xlink:href="#DejaVuSans-43"/>
      <use x="364.892578" xlink:href="#DejaVuSans-65"/>
      <use x="426.416016" xlink:href="#DejaVuSans-6c"/>
      <use x="454.199219" xlink:href="#DejaVuSans-6c"/>
      <use x="481.982422" xlink:href="#DejaVuSans-73"/>
      <use x="534.082031" xlink:href="#DejaVuSans-20"/>
      <use x="565.869141" xlink:href="#DejaVuSans-69"/>
      <use x="593.652344" xlink:href="#DejaVuSans-73"/>
      <use x="645.751953" xlink:href="#DejaVuSans-20"/>
      <use x="677.539062" xlink:href="#DejaVuSans-74"/>
      <use x="716.748047" xlink:href="#DejaVuSans-68"/>
      <use x="780.126953" xlink:href="#DejaVuSans-65"/>
      <use x="841.650391" xlink:href="#DejaVuSans-20"/>
      <use x="873.4375" xlink:href="#DejaVuSans-65"/>
      <use x="934.960938" xlink:href="#DejaVuSans-76"/>
      <use x="994.140625" xlink:href="#DejaVuSans-69"/>
      <use x="1021.923828" xlink:href="#DejaVuSans-6c"/>
      <use x="1049.707031" xlink:href="#DejaVuSans-20"/>
      <use x="1081.494141" xlink:href="#DejaVuSans-6f"/>
      <use x="1142.675781" xlink:href="#DejaVuSans-66"/>
      <use x="1177.880859" xlink:href="#DejaVuSans-66"/>
      <use x="1213.085938" xlink:href="#DejaVuSans-73"/>
      <use x="1265.185547" xlink:href="#DejaVuSans-70"/>
      <use x="1328.662109" xlink:href="#DejaVuSans-72"/>
      <use x="1369.775391" xlink:href="#DejaVuSans-69"/>
      <use x="1397.558594" xlink:href="#DejaVuSans-6e"/>
      <use x="1460.9375" xlink:href="#DejaVuSans-67"/>
      <use x="1524.414062" xlink:href="#DejaVuSans-20"/>
      <use x="1556.201172" xlink:href="#DejaVuSans-6f"/>
      <use x="1617.382812" xlink:href="#DejaVuSans-66"/>
      <use x="1652.587891" xlink:href="#DejaVuSans-20"/>
      <use x="1684.375" xlink:href="#DejaVuSans-4d"/>
      <use x="1770.654297" xlink:href="#DejaVuSans-6f"/>
      <use x="1831.835938" xlink:href="#DejaVuSans-74"/>
      <use x="1871.044922" xlink:href="#DejaVuSans-69"/>
      <use x="1898.828125" xlink:href="#DejaVuSans-6f"/>
      <use x="1960.009766" xlink:href="#DejaVuSans-6e"/>
      <use x="2023.388672" xlink:href="#DejaVuSans-20"/>
      <use x="2055.175781" xlink:href="#DejaVuSans-54"/>
      <use x="2099.759766" xlink:href="#DejaVuSans-77"/>
      <use x="2181.546875" xlink:href="#DejaVuSans-69"/>
      <use x="2209.330078" xlink:href="#DejaVuSans-6e"/>
     </g>
    </g>
    <g id="patch_4">
     <path d="M 484.711603 95.0065 
L 498.711603 95.0065 
L 498.711603 90.1065 
L 484.711603 90.1065 
z
" style="fill:#ff00ff;stroke:#ff00ff;stroke-linejoin:miter;stroke-width:1.5;"/>
    </g>
    <g id="text_8">
     <!-- Music -->
     <g transform="translate(504.311603 95.0065)scale(0.07 -0.07)">
      <use xlink:href="#DejaVuSans-4d"/>
      <use x="86.279297" xlink:href="#DejaVuSans-75"/>
      <use x="149.658203" xlink:href="#DejaVuSans-73"/>
      <use x="201.757812" xlink:href="#DejaVuSans-69"/>
      <use x="229.541016" xlink:href="#DejaVuSans-63"/>
     </g>
    </g>
    <g id="patch_5">
     <path d="M 677.398634 84.731812 
L 691.398634 84.731812 
L 691.398634 79.831812 
L 677.398634 79.831812 
z
" style="fill:#0080ff;stroke:#0080ff;stroke-linejoin:miter;stroke-width:1.5;"/>
    </g>
    <g id="text_9">
     <!-- Marketing -->
     <g transform="translate(696.998634 84.731812)scale(0.07 -0.07)">
      <use xlink:href="#DejaVuSans-4d"/>
      <use x="86.279297" xlink:href="#DejaVuSans-61"/>
      <use x="147.558594" xlink:href="#DejaVuSans-72"/>
      <use x="188.671875" xlink:href="#DejaVuSans-6b"/>
      <use x="242.957031" xlink:href="#DejaVuSans-65"/>
      <use x="304.480469" xlink:href="#DejaVuSans-74"/>
      <use x="343.689453" xlink:href="#DejaVuSans-69"/>
      <use x="371.472656" xlink:href="#DejaVuSans-6e"/>
      <use x="434.851562" xlink:href="#DejaVuSans-67"/>
     </g>
    </g>
    <g id="patch_6">
     <path d="M 677.398634 95.0065 
L 691.398634 95.0065 
L 691.398634 90.1065 
L 677.398634 90.1065 
z
" style="fill:#ff8000;stroke:#ff8000;stroke-linejoin:miter;stroke-width:1.5;"/>
    </g>
    <g id="text_10">
     <!-- Japanese Localization -->
     <g transform="translate(696.998634 95.0065)scale(0.07 -0.07)">
      <use xlink:href="#DejaVuSans-4a"/>
      <use x="29.492188" xlink:href="#DejaVuSans-61"/>
      <use x="90.771484" xlink:href="#DejaVuSans-70"/>
      <use x="154.248047" xlink:href="#DejaVuSans-61"/>
      <use x="215.527344" xlink:href="#DejaVuSans-6e"/>
      <use x="278.90625" xlink:href="#DejaVuSans-65"/>
      <use x="340.429688" xlink:href="#DejaVuSans-73"/>
      <use x="392.529297" xlink:href="#DejaVuSans-65"/>
      <use x="454.052734" xlink:href="#DejaVuSans-20"/>
      <use x="485.839844" xlink:href="#DejaVuSans-4c"/>
      <use x="539.802734" xlink:href="#DejaVuSans-6f"/>
      <use x="600.984375" xlink:href="#DejaVuSans-63"/>
      <use x="655.964844" xlink:href="#DejaVuSans-61"/>
      <use x="717.244141" xlink:href="#DejaVuSans-6c"/>
      <use x="745.027344" xlink:href="#DejaVuSans-69"/>
      <use x="772.810547" xlink:href="#DejaVuSans-7a"/>
      <use x="825.300781" xlink:href="#DejaVuSans-61"/>
      <use x="886.580078" xlink:href="#DejaVuSans-74"/>
      <use x="925.789062" xlink:href="#DejaVuSans-69"/>
      <use x="953.572266" xlink:href="#DejaVuSans-6f"/>
      <use x="1014.753906" xlink:href="#DejaVuSans-6e"/>
     </g>
    </g>
   </g>
  </g>
 </g>
 <defs>
  <clipPath id="pcbb087ce78">
   <rect height="434.88" width="446.4" x="32.011603" y="52.192281"/>
  </clipPath>
 </defs>
</svg>
