<?xml version="1.0" encoding="utf-8" standalone="no"?>
<!DOCTYPE svg PUBLIC "-//W3C//DTD SVG 1.1//EN"
  "http://www.w3.org/Graphics/SVG/1.1/DTD/svg11.dtd">
<svg height="494.272281pt" version="1.1" viewBox="0 0 700.605781 494.272281" width="700.605781pt" xmlns="http://www.w3.org/2000/svg" xmlns:xlink="http://www.w3.org/1999/xlink">
 <metadata>
  <rdf:RDF xmlns:cc="http://creativecommons.org/ns#" xmlns:dc="http://purl.org/dc/elements/1.1/" xmlns:rdf="http://www.w3.org/1999/02/22-rdf-syntax-ns#">
   <cc:Work>
    <dc:type rdf:resource="http://purl.org/dc/dcmitype/StillImage"/>
    <dc:date>2023-12-06T12:08:47.508917</dc:date>
    <dc:format>image/svg+xml</dc:format>
    <dc:creator>
     <cc:Agent>
      <dc:title>Matplotlib v3.4.1, https://matplotlib.org/</dc:title>
     </cc:Agent>
    </dc:creator>
   </cc:Work>
  </rdf:RDF>
 </metadata>
 <defs>
  <style type="text/css">*{stroke-linecap:butt;stroke-linejoin:round;}</style>
 </defs>
 <g id="figure_1">
  <g id="patch_1">
   <path d="M 0 494.272281 
L 700.605781 494.272281 
L 700.605781 0 
L 0 0 
z
" style="fill:none;"/>
  </g>
  <g id="axes_1">
   <g id="LineCollection_1">
    <path clip-path="url(#pe895f9fe23)" d="M 192.069036 425.97891 
L 207.435891 467.305009 
" style="fill:none;stroke:#000000;stroke-opacity:0.1;stroke-width:1.414214;"/>
    <path clip-path="url(#pe895f9fe23)" d="M 198.857152 248.362431 
L 174.054335 256.803368 
" style="fill:none;stroke:#000000;stroke-opacity:0.1;stroke-width:1.414214;"/>
    <path clip-path="url(#pe895f9fe23)" d="M 198.857152 248.362431 
L 188.205596 280.34267 
" style="fill:none;stroke:#000000;stroke-opacity:0.1;stroke-width:1.414214;"/>
    <path clip-path="url(#pe895f9fe23)" d="M 198.857152 248.362431 
L 168.149432 273.476611 
" style="fill:none;stroke:#000000;stroke-opacity:0.1;stroke-width:1.414214;"/>
    <path clip-path="url(#pe895f9fe23)" d="M 198.857152 248.362431 
L 175.444232 291.252234 
" style="fill:none;stroke:#000000;stroke-opacity:0.1;stroke-width:1.414214;"/>
    <path clip-path="url(#pe895f9fe23)" d="M 198.857152 248.362431 
L 221.025437 255.926299 
" style="fill:none;stroke:#000000;stroke-opacity:0.1;stroke-width:1.414214;"/>
    <path clip-path="url(#pe895f9fe23)" d="M 198.857152 248.362431 
L 209.124845 268.007154 
" style="fill:none;stroke:#000000;stroke-opacity:0.1;stroke-width:1.414214;"/>
    <path clip-path="url(#pe895f9fe23)" d="M 198.857152 248.362431 
L 191.845207 265.024838 
" style="fill:none;stroke:#000000;stroke-opacity:0.1;stroke-width:1.414214;"/>
    <path clip-path="url(#pe895f9fe23)" d="M 198.857152 248.362431 
L 209.205957 284.507158 
" style="fill:none;stroke:#000000;stroke-opacity:0.1;stroke-width:1.414214;"/>
    <path clip-path="url(#pe895f9fe23)" d="M 198.857152 248.362431 
L 223.929396 287.026043 
" style="fill:none;stroke:#000000;stroke-opacity:0.1;stroke-width:1.414214;"/>
    <path clip-path="url(#pe895f9fe23)" d="M 198.857152 248.362431 
L 228.097412 273.418343 
" style="fill:none;stroke:#000000;stroke-opacity:0.1;stroke-width:1.414214;"/>
    <path clip-path="url(#pe895f9fe23)" d="M 198.857152 248.362431 
L 200.712837 296.180247 
" style="fill:none;stroke:#000000;stroke-opacity:0.1;stroke-width:1.414214;"/>
    <path clip-path="url(#pe895f9fe23)" d="M 174.054335 256.803368 
L 188.205596 280.34267 
" style="fill:none;stroke:#000000;stroke-opacity:0.1;stroke-width:1.414214;"/>
    <path clip-path="url(#pe895f9fe23)" d="M 174.054335 256.803368 
L 168.149432 273.476611 
" style="fill:none;stroke:#000000;stroke-opacity:0.1;stroke-width:1.414214;"/>
    <path clip-path="url(#pe895f9fe23)" d="M 174.054335 256.803368 
L 175.444232 291.252234 
" style="fill:none;stroke:#000000;stroke-opacity:0.1;stroke-width:1.414214;"/>
    <path clip-path="url(#pe895f9fe23)" d="M 174.054335 256.803368 
L 221.025437 255.926299 
" style="fill:none;stroke:#000000;stroke-opacity:0.1;stroke-width:1.414214;"/>
    <path clip-path="url(#pe895f9fe23)" d="M 174.054335 256.803368 
L 209.124845 268.007154 
" style="fill:none;stroke:#000000;stroke-opacity:0.1;stroke-width:1.414214;"/>
    <path clip-path="url(#pe895f9fe23)" d="M 174.054335 256.803368 
L 191.845207 265.024838 
" style="fill:none;stroke:#000000;stroke-opacity:0.1;stroke-width:1.414214;"/>
    <path clip-path="url(#pe895f9fe23)" d="M 174.054335 256.803368 
L 209.205957 284.507158 
" style="fill:none;stroke:#000000;stroke-opacity:0.1;stroke-width:1.414214;"/>
    <path clip-path="url(#pe895f9fe23)" d="M 174.054335 256.803368 
L 223.929396 287.026043 
" style="fill:none;stroke:#000000;stroke-opacity:0.1;stroke-width:1.414214;"/>
    <path clip-path="url(#pe895f9fe23)" d="M 174.054335 256.803368 
L 228.097412 273.418343 
" style="fill:none;stroke:#000000;stroke-opacity:0.1;stroke-width:1.414214;"/>
    <path clip-path="url(#pe895f9fe23)" d="M 174.054335 256.803368 
L 200.712837 296.180247 
" style="fill:none;stroke:#000000;stroke-opacity:0.1;stroke-width:1.414214;"/>
    <path clip-path="url(#pe895f9fe23)" d="M 188.205596 280.34267 
L 168.149432 273.476611 
" style="fill:none;stroke:#000000;stroke-opacity:0.1;stroke-width:1.732051;"/>
    <path clip-path="url(#pe895f9fe23)" d="M 188.205596 280.34267 
L 175.444232 291.252234 
" style="fill:none;stroke:#000000;stroke-opacity:0.1;stroke-width:1.414214;"/>
    <path clip-path="url(#pe895f9fe23)" d="M 188.205596 280.34267 
L 221.025437 255.926299 
" style="fill:none;stroke:#000000;stroke-opacity:0.1;stroke-width:1.414214;"/>
    <path clip-path="url(#pe895f9fe23)" d="M 188.205596 280.34267 
L 209.124845 268.007154 
" style="fill:none;stroke:#000000;stroke-opacity:0.1;stroke-width:2;"/>
    <path clip-path="url(#pe895f9fe23)" d="M 188.205596 280.34267 
L 191.845207 265.024838 
" style="fill:none;stroke:#000000;stroke-opacity:0.1;stroke-width:2;"/>
    <path clip-path="url(#pe895f9fe23)" d="M 188.205596 280.34267 
L 209.205957 284.507158 
" style="fill:none;stroke:#000000;stroke-opacity:0.1;stroke-width:1.732051;"/>
    <path clip-path="url(#pe895f9fe23)" d="M 188.205596 280.34267 
L 223.929396 287.026043 
" style="fill:none;stroke:#000000;stroke-opacity:0.1;stroke-width:1.732051;"/>
    <path clip-path="url(#pe895f9fe23)" d="M 188.205596 280.34267 
L 228.097412 273.418343 
" style="fill:none;stroke:#000000;stroke-opacity:0.1;stroke-width:1.732051;"/>
    <path clip-path="url(#pe895f9fe23)" d="M 188.205596 280.34267 
L 200.712837 296.180247 
" style="fill:none;stroke:#000000;stroke-opacity:0.1;stroke-width:1.732051;"/>
    <path clip-path="url(#pe895f9fe23)" d="M 168.149432 273.476611 
L 175.444232 291.252234 
" style="fill:none;stroke:#000000;stroke-opacity:0.1;stroke-width:1.414214;"/>
    <path clip-path="url(#pe895f9fe23)" d="M 168.149432 273.476611 
L 221.025437 255.926299 
" style="fill:none;stroke:#000000;stroke-opacity:0.1;stroke-width:1.414214;"/>
    <path clip-path="url(#pe895f9fe23)" d="M 168.149432 273.476611 
L 209.124845 268.007154 
" style="fill:none;stroke:#000000;stroke-opacity:0.1;stroke-width:1.732051;"/>
    <path clip-path="url(#pe895f9fe23)" d="M 168.149432 273.476611 
L 191.845207 265.024838 
" style="fill:none;stroke:#000000;stroke-opacity:0.1;stroke-width:1.732051;"/>
    <path clip-path="url(#pe895f9fe23)" d="M 168.149432 273.476611 
L 209.205957 284.507158 
" style="fill:none;stroke:#000000;stroke-opacity:0.1;stroke-width:1.414214;"/>
    <path clip-path="url(#pe895f9fe23)" d="M 168.149432 273.476611 
L 223.929396 287.026043 
" style="fill:none;stroke:#000000;stroke-opacity:0.1;stroke-width:1.414214;"/>
    <path clip-path="url(#pe895f9fe23)" d="M 168.149432 273.476611 
L 228.097412 273.418343 
" style="fill:none;stroke:#000000;stroke-opacity:0.1;stroke-width:1.414214;"/>
    <path clip-path="url(#pe895f9fe23)" d="M 168.149432 273.476611 
L 200.712837 296.180247 
" style="fill:none;stroke:#000000;stroke-opacity:0.1;stroke-width:1.414214;"/>
    <path clip-path="url(#pe895f9fe23)" d="M 175.444232 291.252234 
L 221.025437 255.926299 
" style="fill:none;stroke:#000000;stroke-opacity:0.1;stroke-width:1.414214;"/>
    <path clip-path="url(#pe895f9fe23)" d="M 175.444232 291.252234 
L 209.124845 268.007154 
" style="fill:none;stroke:#000000;stroke-opacity:0.1;stroke-width:1.414214;"/>
    <path clip-path="url(#pe895f9fe23)" d="M 175.444232 291.252234 
L 191.845207 265.024838 
" style="fill:none;stroke:#000000;stroke-opacity:0.1;stroke-width:1.414214;"/>
    <path clip-path="url(#pe895f9fe23)" d="M 175.444232 291.252234 
L 209.205957 284.507158 
" style="fill:none;stroke:#000000;stroke-opacity:0.1;stroke-width:1.414214;"/>
    <path clip-path="url(#pe895f9fe23)" d="M 175.444232 291.252234 
L 223.929396 287.026043 
" style="fill:none;stroke:#000000;stroke-opacity:0.1;stroke-width:1.414214;"/>
    <path clip-path="url(#pe895f9fe23)" d="M 175.444232 291.252234 
L 228.097412 273.418343 
" style="fill:none;stroke:#000000;stroke-opacity:0.1;stroke-width:1.414214;"/>
    <path clip-path="url(#pe895f9fe23)" d="M 175.444232 291.252234 
L 200.712837 296.180247 
" style="fill:none;stroke:#000000;stroke-opacity:0.1;stroke-width:1.414214;"/>
    <path clip-path="url(#pe895f9fe23)" d="M 221.025437 255.926299 
L 209.124845 268.007154 
" style="fill:none;stroke:#000000;stroke-opacity:0.1;stroke-width:1.414214;"/>
    <path clip-path="url(#pe895f9fe23)" d="M 221.025437 255.926299 
L 191.845207 265.024838 
" style="fill:none;stroke:#000000;stroke-opacity:0.1;stroke-width:1.414214;"/>
    <path clip-path="url(#pe895f9fe23)" d="M 221.025437 255.926299 
L 209.205957 284.507158 
" style="fill:none;stroke:#000000;stroke-opacity:0.1;stroke-width:1.414214;"/>
    <path clip-path="url(#pe895f9fe23)" d="M 221.025437 255.926299 
L 223.929396 287.026043 
" style="fill:none;stroke:#000000;stroke-opacity:0.1;stroke-width:1.414214;"/>
    <path clip-path="url(#pe895f9fe23)" d="M 221.025437 255.926299 
L 228.097412 273.418343 
" style="fill:none;stroke:#000000;stroke-opacity:0.1;stroke-width:1.414214;"/>
    <path clip-path="url(#pe895f9fe23)" d="M 221.025437 255.926299 
L 200.712837 296.180247 
" style="fill:none;stroke:#000000;stroke-opacity:0.1;stroke-width:1.414214;"/>
    <path clip-path="url(#pe895f9fe23)" d="M 209.124845 268.007154 
L 191.845207 265.024838 
" style="fill:none;stroke:#000000;stroke-opacity:0.1;stroke-width:2;"/>
    <path clip-path="url(#pe895f9fe23)" d="M 209.124845 268.007154 
L 209.205957 284.507158 
" style="fill:none;stroke:#000000;stroke-opacity:0.1;stroke-width:1.732051;"/>
    <path clip-path="url(#pe895f9fe23)" d="M 209.124845 268.007154 
L 223.929396 287.026043 
" style="fill:none;stroke:#000000;stroke-opacity:0.1;stroke-width:1.732051;"/>
    <path clip-path="url(#pe895f9fe23)" d="M 209.124845 268.007154 
L 228.097412 273.418343 
" style="fill:none;stroke:#000000;stroke-opacity:0.1;stroke-width:1.732051;"/>
    <path clip-path="url(#pe895f9fe23)" d="M 209.124845 268.007154 
L 200.712837 296.180247 
" style="fill:none;stroke:#000000;stroke-opacity:0.1;stroke-width:1.732051;"/>
    <path clip-path="url(#pe895f9fe23)" d="M 191.845207 265.024838 
L 209.205957 284.507158 
" style="fill:none;stroke:#000000;stroke-opacity:0.1;stroke-width:1.732051;"/>
    <path clip-path="url(#pe895f9fe23)" d="M 191.845207 265.024838 
L 223.929396 287.026043 
" style="fill:none;stroke:#000000;stroke-opacity:0.1;stroke-width:1.732051;"/>
    <path clip-path="url(#pe895f9fe23)" d="M 191.845207 265.024838 
L 228.097412 273.418343 
" style="fill:none;stroke:#000000;stroke-opacity:0.1;stroke-width:1.732051;"/>
    <path clip-path="url(#pe895f9fe23)" d="M 191.845207 265.024838 
L 200.712837 296.180247 
" style="fill:none;stroke:#000000;stroke-opacity:0.1;stroke-width:1.732051;"/>
    <path clip-path="url(#pe895f9fe23)" d="M 209.205957 284.507158 
L 223.929396 287.026043 
" style="fill:none;stroke:#000000;stroke-opacity:0.1;stroke-width:1.732051;"/>
    <path clip-path="url(#pe895f9fe23)" d="M 209.205957 284.507158 
L 228.097412 273.418343 
" style="fill:none;stroke:#000000;stroke-opacity:0.1;stroke-width:1.732051;"/>
    <path clip-path="url(#pe895f9fe23)" d="M 209.205957 284.507158 
L 200.712837 296.180247 
" style="fill:none;stroke:#000000;stroke-opacity:0.1;stroke-width:1.732051;"/>
    <path clip-path="url(#pe895f9fe23)" d="M 223.929396 287.026043 
L 228.097412 273.418343 
" style="fill:none;stroke:#000000;stroke-opacity:0.1;stroke-width:2;"/>
    <path clip-path="url(#pe895f9fe23)" d="M 223.929396 287.026043 
L 200.712837 296.180247 
" style="fill:none;stroke:#000000;stroke-opacity:0.1;stroke-width:2;"/>
    <path clip-path="url(#pe895f9fe23)" d="M 228.097412 273.418343 
L 200.712837 296.180247 
" style="fill:none;stroke:#000000;stroke-opacity:0.1;stroke-width:2;"/>
    <path clip-path="url(#pe895f9fe23)" d="M 27.490909 157.067315 
L 30.226447 172.142522 
" style="fill:none;stroke:#000000;stroke-opacity:0.1;stroke-width:4.582576;"/>
   </g>
   <g id="PathCollection_1">
    <path clip-path="url(#pe895f9fe23)" d="M 192.069036 429.138801 
C 192.907048 429.138801 193.710851 428.805855 194.303416 428.21329 
C 194.89598 427.620726 195.228926 426.816923 195.228926 425.97891 
C 195.228926 425.140897 194.89598 424.337095 194.303416 423.74453 
C 193.710851 423.151966 192.907048 422.81902 192.069036 422.81902 
C 191.231023 422.81902 190.42722 423.151966 189.834656 423.74453 
C 189.242091 424.337095 188.909145 425.140897 188.909145 425.97891 
C 188.909145 426.816923 189.242091 427.620726 189.834656 428.21329 
C 190.42722 428.805855 191.231023 429.138801 192.069036 429.138801 
z
" style="fill:#00ff00;fill-opacity:0.5;stroke:#00ff00;stroke-opacity:0.5;stroke-width:1.5;"/>
    <path clip-path="url(#pe895f9fe23)" d="M 207.435891 471.698486 
C 208.601055 471.698486 209.718653 471.235562 210.542548 470.411666 
C 211.366444 469.587771 211.829368 468.470172 211.829368 467.305009 
C 211.829368 466.139845 211.366444 465.022246 210.542548 464.198351 
C 209.718653 463.374455 208.601055 462.911531 207.435891 462.911531 
C 206.270727 462.911531 205.153128 463.374455 204.329233 464.198351 
C 203.505338 465.022246 203.042413 466.139845 203.042413 467.305009 
C 203.042413 468.470172 203.505338 469.587771 204.329233 470.411666 
C 205.153128 471.235562 206.270727 471.698486 207.435891 471.698486 
z
" style="fill:#0080ff;fill-opacity:0.5;stroke:#0080ff;stroke-opacity:0.5;stroke-width:1.5;"/>
    <path clip-path="url(#pe895f9fe23)" d="M 198.857152 250.352967 
C 199.385048 250.352967 199.891394 250.143231 200.264673 249.769952 
C 200.637952 249.396673 200.847688 248.890327 200.847688 248.362431 
C 200.847688 247.834535 200.637952 247.328188 200.264673 246.954909 
C 199.891394 246.58163 199.385048 246.371895 198.857152 246.371895 
C 198.329255 246.371895 197.822909 246.58163 197.44963 246.954909 
C 197.076351 247.328188 196.866616 247.834535 196.866616 248.362431 
C 196.866616 248.890327 197.076351 249.396673 197.44963 249.769952 
C 197.822909 250.143231 198.329255 250.352967 198.857152 250.352967 
z
" style="fill:#d88b00;fill-opacity:0.5;stroke:#d88b00;stroke-opacity:0.5;stroke-width:1.5;"/>
    <path clip-path="url(#pe895f9fe23)" d="M 174.054335 258.793904 
C 174.582231 258.793904 175.088577 258.584168 175.461856 258.210889 
C 175.835135 257.83761 176.044871 257.331264 176.044871 256.803368 
C 176.044871 256.275472 175.835135 255.769126 175.461856 255.395847 
C 175.088577 255.022568 174.582231 254.812832 174.054335 254.812832 
C 173.526438 254.812832 173.020092 255.022568 172.646813 255.395847 
C 172.273534 255.769126 172.063799 256.275472 172.063799 256.803368 
C 172.063799 257.331264 172.273534 257.83761 172.646813 258.210889 
C 173.020092 258.584168 173.526438 258.793904 174.054335 258.793904 
z
" style="fill:#d88b00;fill-opacity:0.5;stroke:#d88b00;stroke-opacity:0.5;stroke-width:1.5;"/>
    <path clip-path="url(#pe895f9fe23)" d="M 188.205596 282.333205 
C 188.733493 282.333205 189.239839 282.12347 189.613118 281.750191 
C 189.986397 281.376912 190.196132 280.870566 190.196132 280.34267 
C 190.196132 279.814773 189.986397 279.308427 189.613118 278.935148 
C 189.239839 278.561869 188.733493 278.352134 188.205596 278.352134 
C 187.6777 278.352134 187.171354 278.561869 186.798075 278.935148 
C 186.424796 279.308427 186.21506 279.814773 186.21506 280.34267 
C 186.21506 280.870566 186.424796 281.376912 186.798075 281.750191 
C 187.171354 282.12347 187.6777 282.333205 188.205596 282.333205 
z
" style="fill:#d88b00;fill-opacity:0.5;stroke:#d88b00;stroke-opacity:0.5;stroke-width:1.5;"/>
    <path clip-path="url(#pe895f9fe23)" d="M 168.149432 275.467147 
C 168.677328 275.467147 169.183674 275.257411 169.556954 274.884132 
C 169.930233 274.510853 170.139968 274.004507 170.139968 273.476611 
C 170.139968 272.948715 169.930233 272.442368 169.556954 272.069089 
C 169.183674 271.69581 168.677328 271.486075 168.149432 271.486075 
C 167.621536 271.486075 167.11519 271.69581 166.741911 272.069089 
C 166.368632 272.442368 166.158896 272.948715 166.158896 273.476611 
C 166.158896 274.004507 166.368632 274.510853 166.741911 274.884132 
C 167.11519 275.257411 167.621536 275.467147 168.149432 275.467147 
z
" style="fill:#d88b00;fill-opacity:0.5;stroke:#d88b00;stroke-opacity:0.5;stroke-width:1.5;"/>
    <path clip-path="url(#pe895f9fe23)" d="M 175.444232 293.24277 
C 175.972128 293.24277 176.478474 293.033035 176.851753 292.659756 
C 177.225032 292.286477 177.434768 291.780131 177.434768 291.252234 
C 177.434768 290.724338 177.225032 290.217992 176.851753 289.844713 
C 176.478474 289.471434 175.972128 289.261698 175.444232 289.261698 
C 174.916335 289.261698 174.409989 289.471434 174.03671 289.844713 
C 173.663431 290.217992 173.453696 290.724338 173.453696 291.252234 
C 173.453696 291.780131 173.663431 292.286477 174.03671 292.659756 
C 174.409989 293.033035 174.916335 293.24277 175.444232 293.24277 
z
" style="fill:#d88b00;fill-opacity:0.5;stroke:#d88b00;stroke-opacity:0.5;stroke-width:1.5;"/>
    <path clip-path="url(#pe895f9fe23)" d="M 221.025437 257.916835 
C 221.553333 257.916835 222.059679 257.707099 222.432959 257.33382 
C 222.806238 256.960541 223.015973 256.454195 223.015973 255.926299 
C 223.015973 255.398403 222.806238 254.892057 222.432959 254.518778 
C 222.059679 254.145499 221.553333 253.935763 221.025437 253.935763 
C 220.497541 253.935763 219.991195 254.145499 219.617916 254.518778 
C 219.244637 254.892057 219.034901 255.398403 219.034901 255.926299 
C 219.034901 256.454195 219.244637 256.960541 219.617916 257.33382 
C 219.991195 257.707099 220.497541 257.916835 221.025437 257.916835 
z
" style="fill:#d88b00;fill-opacity:0.5;stroke:#d88b00;stroke-opacity:0.5;stroke-width:1.5;"/>
    <path clip-path="url(#pe895f9fe23)" d="M 209.124845 269.99769 
C 209.652742 269.99769 210.159088 269.787955 210.532367 269.414676 
C 210.905646 269.041397 211.115381 268.535051 211.115381 268.007154 
C 211.115381 267.479258 210.905646 266.972912 210.532367 266.599633 
C 210.159088 266.226354 209.652742 266.016618 209.124845 266.016618 
C 208.596949 266.016618 208.090603 266.226354 207.717324 266.599633 
C 207.344045 266.972912 207.134309 267.479258 207.134309 268.007154 
C 207.134309 268.535051 207.344045 269.041397 207.717324 269.414676 
C 208.090603 269.787955 208.596949 269.99769 209.124845 269.99769 
z
" style="fill:#d88b00;fill-opacity:0.5;stroke:#d88b00;stroke-opacity:0.5;stroke-width:1.5;"/>
    <path clip-path="url(#pe895f9fe23)" d="M 191.845207 267.015374 
C 192.373103 267.015374 192.879449 266.805638 193.252728 266.432359 
C 193.626007 266.05908 193.835742 265.552734 193.835742 265.024838 
C 193.835742 264.496941 193.626007 263.990595 193.252728 263.617316 
C 192.879449 263.244037 192.373103 263.034302 191.845207 263.034302 
C 191.31731 263.034302 190.810964 263.244037 190.437685 263.617316 
C 190.064406 263.990595 189.854671 264.496941 189.854671 265.024838 
C 189.854671 265.552734 190.064406 266.05908 190.437685 266.432359 
C 190.810964 266.805638 191.31731 267.015374 191.845207 267.015374 
z
" style="fill:#d88b00;fill-opacity:0.5;stroke:#d88b00;stroke-opacity:0.5;stroke-width:1.5;"/>
    <path clip-path="url(#pe895f9fe23)" d="M 209.205957 286.497694 
C 209.733853 286.497694 210.240199 286.287958 210.613478 285.914679 
C 210.986757 285.5414 211.196492 285.035054 211.196492 284.507158 
C 211.196492 283.979262 210.986757 283.472916 210.613478 283.099636 
C 210.240199 282.726357 209.733853 282.516622 209.205957 282.516622 
C 208.67806 282.516622 208.171714 282.726357 207.798435 283.099636 
C 207.425156 283.472916 207.215421 283.979262 207.215421 284.507158 
C 207.215421 285.035054 207.425156 285.5414 207.798435 285.914679 
C 208.171714 286.287958 208.67806 286.497694 209.205957 286.497694 
z
" style="fill:#d88b00;fill-opacity:0.5;stroke:#d88b00;stroke-opacity:0.5;stroke-width:1.5;"/>
    <path clip-path="url(#pe895f9fe23)" d="M 223.929396 289.016579 
C 224.457292 289.016579 224.963638 288.806844 225.336917 288.433565 
C 225.710196 288.060286 225.919931 287.55394 225.919931 287.026043 
C 225.919931 286.498147 225.710196 285.991801 225.336917 285.618522 
C 224.963638 285.245243 224.457292 285.035508 223.929396 285.035508 
C 223.401499 285.035508 222.895153 285.245243 222.521874 285.618522 
C 222.148595 285.991801 221.93886 286.498147 221.93886 287.026043 
C 221.93886 287.55394 222.148595 288.060286 222.521874 288.433565 
C 222.895153 288.806844 223.401499 289.016579 223.929396 289.016579 
z
" style="fill:#d88b00;fill-opacity:0.5;stroke:#d88b00;stroke-opacity:0.5;stroke-width:1.5;"/>
    <path clip-path="url(#pe895f9fe23)" d="M 228.097412 275.408879 
C 228.625308 275.408879 229.131654 275.199143 229.504933 274.825864 
C 229.878212 274.452585 230.087947 273.946239 230.087947 273.418343 
C 230.087947 272.890447 229.878212 272.384101 229.504933 272.010822 
C 229.131654 271.637543 228.625308 271.427807 228.097412 271.427807 
C 227.569515 271.427807 227.063169 271.637543 226.68989 272.010822 
C 226.316611 272.384101 226.106876 272.890447 226.106876 273.418343 
C 226.106876 273.946239 226.316611 274.452585 226.68989 274.825864 
C 227.063169 275.199143 227.569515 275.408879 228.097412 275.408879 
z
" style="fill:#d88b00;fill-opacity:0.5;stroke:#d88b00;stroke-opacity:0.5;stroke-width:1.5;"/>
    <path clip-path="url(#pe895f9fe23)" d="M 200.712837 298.170782 
C 201.240733 298.170782 201.747079 297.961047 202.120358 297.587768 
C 202.493637 297.214489 202.703372 296.708143 202.703372 296.180247 
C 202.703372 295.65235 202.493637 295.146004 202.120358 294.772725 
C 201.747079 294.399446 201.240733 294.189711 200.712837 294.189711 
C 200.18494 294.189711 199.678594 294.399446 199.305315 294.772725 
C 198.932036 295.146004 198.722301 295.65235 198.722301 296.180247 
C 198.722301 296.708143 198.932036 297.214489 199.305315 297.587768 
C 199.678594 297.961047 200.18494 298.170782 200.712837 298.170782 
z
" style="fill:#d88b00;fill-opacity:0.5;stroke:#d88b00;stroke-opacity:0.5;stroke-width:1.5;"/>
    <path clip-path="url(#pe895f9fe23)" d="M 27.490909 159.057851 
C 28.018805 159.057851 28.525151 158.848115 28.89843 158.474836 
C 29.27171 158.101557 29.481445 157.595211 29.481445 157.067315 
C 29.481445 156.539419 29.27171 156.033072 28.89843 155.659793 
C 28.525151 155.286514 28.018805 155.076779 27.490909 155.076779 
C 26.963013 155.076779 26.456667 155.286514 26.083388 155.659793 
C 25.710109 156.033072 25.500373 156.539419 25.500373 157.067315 
C 25.500373 157.595211 25.710109 158.101557 26.083388 158.474836 
C 26.456667 158.848115 26.963013 159.057851 27.490909 159.057851 
z
" style="fill:#d88b00;fill-opacity:0.5;stroke:#d88b00;stroke-opacity:0.5;stroke-width:1.5;"/>
    <path clip-path="url(#pe895f9fe23)" d="M 30.226447 174.133058 
C 30.754343 174.133058 31.260689 173.923323 31.633968 173.550044 
C 32.007247 173.176765 32.216982 172.670419 32.216982 172.142522 
C 32.216982 171.614626 32.007247 171.10828 31.633968 170.735001 
C 31.260689 170.361722 30.754343 170.151986 30.226447 170.151986 
C 29.69855 170.151986 29.192204 170.361722 28.818925 170.735001 
C 28.445646 171.10828 28.235911 171.614626 28.235911 172.142522 
C 28.235911 172.670419 28.445646 173.176765 28.818925 173.550044 
C 29.192204 173.923323 29.69855 174.133058 30.226447 174.133058 
z
" style="fill:#d88b00;fill-opacity:0.5;stroke:#d88b00;stroke-opacity:0.5;stroke-width:1.5;"/>
    <path clip-path="url(#pe895f9fe23)" d="M 332.292223 75.119445 
C 333.130236 75.119445 333.934039 74.786499 334.526603 74.193934 
C 335.119168 73.601369 335.452114 72.797567 335.452114 71.959554 
C 335.452114 71.121541 335.119168 70.317738 334.526603 69.725174 
C 333.934039 69.132609 333.130236 68.799663 332.292223 68.799663 
C 331.45421 68.799663 330.650407 69.132609 330.057843 69.725174 
C 329.465278 70.317738 329.132332 71.121541 329.132332 71.959554 
C 329.132332 72.797567 329.465278 73.601369 330.057843 74.193934 
C 330.650407 74.786499 331.45421 75.119445 332.292223 75.119445 
z
" style="fill:#00ff00;fill-opacity:0.5;stroke:#00ff00;stroke-opacity:0.5;stroke-width:1.5;"/>
    <path clip-path="url(#pe895f9fe23)" d="M 433.309091 155.680515 
C 434.147104 155.680515 434.950906 155.347569 435.543471 154.755004 
C 436.136035 154.16244 436.468981 153.358637 436.468981 152.520624 
C 436.468981 151.682611 436.136035 150.878809 435.543471 150.286244 
C 434.950906 149.69368 434.147104 149.360734 433.309091 149.360734 
C 432.471078 149.360734 431.667275 149.69368 431.074711 150.286244 
C 430.482146 150.878809 430.1492 151.682611 430.1492 152.520624 
C 430.1492 153.358637 430.482146 154.16244 431.074711 154.755004 
C 431.667275 155.347569 432.471078 155.680515 433.309091 155.680515 
z
" style="fill:#00ff00;fill-opacity:0.5;stroke:#00ff00;stroke-opacity:0.5;stroke-width:1.5;"/>
   </g>
   <g id="text_1">
    <!-- Stardew Valley Team (update 1.4) -->
    <g style="fill:#00ff00;" transform="translate(268.400425 218.480137)scale(0.060175 -0.060175)">
     <defs>
      <path d="M 3425 4513 
L 3425 3897 
Q 3066 4069 2747 4153 
Q 2428 4238 2131 4238 
Q 1616 4238 1336 4038 
Q 1056 3838 1056 3469 
Q 1056 3159 1242 3001 
Q 1428 2844 1947 2747 
L 2328 2669 
Q 3034 2534 3370 2195 
Q 3706 1856 3706 1288 
Q 3706 609 3251 259 
Q 2797 -91 1919 -91 
Q 1588 -91 1214 -16 
Q 841 59 441 206 
L 441 856 
Q 825 641 1194 531 
Q 1563 422 1919 422 
Q 2459 422 2753 634 
Q 3047 847 3047 1241 
Q 3047 1584 2836 1778 
Q 2625 1972 2144 2069 
L 1759 2144 
Q 1053 2284 737 2584 
Q 422 2884 422 3419 
Q 422 4038 858 4394 
Q 1294 4750 2059 4750 
Q 2388 4750 2728 4690 
Q 3069 4631 3425 4513 
z
" id="DejaVuSans-53" transform="scale(0.015625)"/>
      <path d="M 1172 4494 
L 1172 3500 
L 2356 3500 
L 2356 3053 
L 1172 3053 
L 1172 1153 
Q 1172 725 1289 603 
Q 1406 481 1766 481 
L 2356 481 
L 2356 0 
L 1766 0 
Q 1100 0 847 248 
Q 594 497 594 1153 
L 594 3053 
L 172 3053 
L 172 3500 
L 594 3500 
L 594 4494 
L 1172 4494 
z
" id="DejaVuSans-74" transform="scale(0.015625)"/>
      <path d="M 2194 1759 
Q 1497 1759 1228 1600 
Q 959 1441 959 1056 
Q 959 750 1161 570 
Q 1363 391 1709 391 
Q 2188 391 2477 730 
Q 2766 1069 2766 1631 
L 2766 1759 
L 2194 1759 
z
M 3341 1997 
L 3341 0 
L 2766 0 
L 2766 531 
Q 2569 213 2275 61 
Q 1981 -91 1556 -91 
Q 1019 -91 701 211 
Q 384 513 384 1019 
Q 384 1609 779 1909 
Q 1175 2209 1959 2209 
L 2766 2209 
L 2766 2266 
Q 2766 2663 2505 2880 
Q 2244 3097 1772 3097 
Q 1472 3097 1187 3025 
Q 903 2953 641 2809 
L 641 3341 
Q 956 3463 1253 3523 
Q 1550 3584 1831 3584 
Q 2591 3584 2966 3190 
Q 3341 2797 3341 1997 
z
" id="DejaVuSans-61" transform="scale(0.015625)"/>
      <path d="M 2631 2963 
Q 2534 3019 2420 3045 
Q 2306 3072 2169 3072 
Q 1681 3072 1420 2755 
Q 1159 2438 1159 1844 
L 1159 0 
L 581 0 
L 581 3500 
L 1159 3500 
L 1159 2956 
Q 1341 3275 1631 3429 
Q 1922 3584 2338 3584 
Q 2397 3584 2469 3576 
Q 2541 3569 2628 3553 
L 2631 2963 
z
" id="DejaVuSans-72" transform="scale(0.015625)"/>
      <path d="M 2906 2969 
L 2906 4863 
L 3481 4863 
L 3481 0 
L 2906 0 
L 2906 525 
Q 2725 213 2448 61 
Q 2172 -91 1784 -91 
Q 1150 -91 751 415 
Q 353 922 353 1747 
Q 353 2572 751 3078 
Q 1150 3584 1784 3584 
Q 2172 3584 2448 3432 
Q 2725 3281 2906 2969 
z
M 947 1747 
Q 947 1113 1208 752 
Q 1469 391 1925 391 
Q 2381 391 2643 752 
Q 2906 1113 2906 1747 
Q 2906 2381 2643 2742 
Q 2381 3103 1925 3103 
Q 1469 3103 1208 2742 
Q 947 2381 947 1747 
z
" id="DejaVuSans-64" transform="scale(0.015625)"/>
      <path d="M 3597 1894 
L 3597 1613 
L 953 1613 
Q 991 1019 1311 708 
Q 1631 397 2203 397 
Q 2534 397 2845 478 
Q 3156 559 3463 722 
L 3463 178 
Q 3153 47 2828 -22 
Q 2503 -91 2169 -91 
Q 1331 -91 842 396 
Q 353 884 353 1716 
Q 353 2575 817 3079 
Q 1281 3584 2069 3584 
Q 2775 3584 3186 3129 
Q 3597 2675 3597 1894 
z
M 3022 2063 
Q 3016 2534 2758 2815 
Q 2500 3097 2075 3097 
Q 1594 3097 1305 2825 
Q 1016 2553 972 2059 
L 3022 2063 
z
" id="DejaVuSans-65" transform="scale(0.015625)"/>
      <path d="M 269 3500 
L 844 3500 
L 1563 769 
L 2278 3500 
L 2956 3500 
L 3675 769 
L 4391 3500 
L 4966 3500 
L 4050 0 
L 3372 0 
L 2619 2869 
L 1863 0 
L 1184 0 
L 269 3500 
z
" id="DejaVuSans-77" transform="scale(0.015625)"/>
      <path id="DejaVuSans-20" transform="scale(0.015625)"/>
      <path d="M 1831 0 
L 50 4666 
L 709 4666 
L 2188 738 
L 3669 4666 
L 4325 4666 
L 2547 0 
L 1831 0 
z
" id="DejaVuSans-56" transform="scale(0.015625)"/>
      <path d="M 603 4863 
L 1178 4863 
L 1178 0 
L 603 0 
L 603 4863 
z
" id="DejaVuSans-6c" transform="scale(0.015625)"/>
      <path d="M 2059 -325 
Q 1816 -950 1584 -1140 
Q 1353 -1331 966 -1331 
L 506 -1331 
L 506 -850 
L 844 -850 
Q 1081 -850 1212 -737 
Q 1344 -625 1503 -206 
L 1606 56 
L 191 3500 
L 800 3500 
L 1894 763 
L 2988 3500 
L 3597 3500 
L 2059 -325 
z
" id="DejaVuSans-79" transform="scale(0.015625)"/>
      <path d="M -19 4666 
L 3928 4666 
L 3928 4134 
L 2272 4134 
L 2272 0 
L 1638 0 
L 1638 4134 
L -19 4134 
L -19 4666 
z
" id="DejaVuSans-54" transform="scale(0.015625)"/>
      <path d="M 3328 2828 
Q 3544 3216 3844 3400 
Q 4144 3584 4550 3584 
Q 5097 3584 5394 3201 
Q 5691 2819 5691 2113 
L 5691 0 
L 5113 0 
L 5113 2094 
Q 5113 2597 4934 2840 
Q 4756 3084 4391 3084 
Q 3944 3084 3684 2787 
Q 3425 2491 3425 1978 
L 3425 0 
L 2847 0 
L 2847 2094 
Q 2847 2600 2669 2842 
Q 2491 3084 2119 3084 
Q 1678 3084 1418 2786 
Q 1159 2488 1159 1978 
L 1159 0 
L 581 0 
L 581 3500 
L 1159 3500 
L 1159 2956 
Q 1356 3278 1631 3431 
Q 1906 3584 2284 3584 
Q 2666 3584 2933 3390 
Q 3200 3197 3328 2828 
z
" id="DejaVuSans-6d" transform="scale(0.015625)"/>
      <path d="M 1984 4856 
Q 1566 4138 1362 3434 
Q 1159 2731 1159 2009 
Q 1159 1288 1364 580 
Q 1569 -128 1984 -844 
L 1484 -844 
Q 1016 -109 783 600 
Q 550 1309 550 2009 
Q 550 2706 781 3412 
Q 1013 4119 1484 4856 
L 1984 4856 
z
" id="DejaVuSans-28" transform="scale(0.015625)"/>
      <path d="M 544 1381 
L 544 3500 
L 1119 3500 
L 1119 1403 
Q 1119 906 1312 657 
Q 1506 409 1894 409 
Q 2359 409 2629 706 
Q 2900 1003 2900 1516 
L 2900 3500 
L 3475 3500 
L 3475 0 
L 2900 0 
L 2900 538 
Q 2691 219 2414 64 
Q 2138 -91 1772 -91 
Q 1169 -91 856 284 
Q 544 659 544 1381 
z
M 1991 3584 
L 1991 3584 
z
" id="DejaVuSans-75" transform="scale(0.015625)"/>
      <path d="M 1159 525 
L 1159 -1331 
L 581 -1331 
L 581 3500 
L 1159 3500 
L 1159 2969 
Q 1341 3281 1617 3432 
Q 1894 3584 2278 3584 
Q 2916 3584 3314 3078 
Q 3713 2572 3713 1747 
Q 3713 922 3314 415 
Q 2916 -91 2278 -91 
Q 1894 -91 1617 61 
Q 1341 213 1159 525 
z
M 3116 1747 
Q 3116 2381 2855 2742 
Q 2594 3103 2138 3103 
Q 1681 3103 1420 2742 
Q 1159 2381 1159 1747 
Q 1159 1113 1420 752 
Q 1681 391 2138 391 
Q 2594 391 2855 752 
Q 3116 1113 3116 1747 
z
" id="DejaVuSans-70" transform="scale(0.015625)"/>
      <path d="M 794 531 
L 1825 531 
L 1825 4091 
L 703 3866 
L 703 4441 
L 1819 4666 
L 2450 4666 
L 2450 531 
L 3481 531 
L 3481 0 
L 794 0 
L 794 531 
z
" id="DejaVuSans-31" transform="scale(0.015625)"/>
      <path d="M 684 794 
L 1344 794 
L 1344 0 
L 684 0 
L 684 794 
z
" id="DejaVuSans-2e" transform="scale(0.015625)"/>
      <path d="M 2419 4116 
L 825 1625 
L 2419 1625 
L 2419 4116 
z
M 2253 4666 
L 3047 4666 
L 3047 1625 
L 3713 1625 
L 3713 1100 
L 3047 1100 
L 3047 0 
L 2419 0 
L 2419 1100 
L 313 1100 
L 313 1709 
L 2253 4666 
z
" id="DejaVuSans-34" transform="scale(0.015625)"/>
      <path d="M 513 4856 
L 1013 4856 
Q 1481 4119 1714 3412 
Q 1947 2706 1947 2009 
Q 1947 1309 1714 600 
Q 1481 -109 1013 -844 
L 513 -844 
Q 928 -128 1133 580 
Q 1338 1288 1338 2009 
Q 1338 2731 1133 3434 
Q 928 4138 513 4856 
z
" id="DejaVuSans-29" transform="scale(0.015625)"/>
     </defs>
     <use xlink:href="#DejaVuSans-53"/>
     <use x="63.476562" xlink:href="#DejaVuSans-74"/>
     <use x="102.685547" xlink:href="#DejaVuSans-61"/>
     <use x="163.964844" xlink:href="#DejaVuSans-72"/>
     <use x="203.328125" xlink:href="#DejaVuSans-64"/>
     <use x="266.804688" xlink:href="#DejaVuSans-65"/>
     <use x="328.328125" xlink:href="#DejaVuSans-77"/>
     <use x="410.115234" xlink:href="#DejaVuSans-20"/>
     <use x="441.902344" xlink:href="#DejaVuSans-56"/>
     <use x="502.560547" xlink:href="#DejaVuSans-61"/>
     <use x="563.839844" xlink:href="#DejaVuSans-6c"/>
     <use x="591.623047" xlink:href="#DejaVuSans-6c"/>
     <use x="619.40625" xlink:href="#DejaVuSans-65"/>
     <use x="680.929688" xlink:href="#DejaVuSans-79"/>
     <use x="740.109375" xlink:href="#DejaVuSans-20"/>
     <use x="771.896484" xlink:href="#DejaVuSans-54"/>
     <use x="815.980469" xlink:href="#DejaVuSans-65"/>
     <use x="877.503906" xlink:href="#DejaVuSans-61"/>
     <use x="938.783203" xlink:href="#DejaVuSans-6d"/>
     <use x="1036.195312" xlink:href="#DejaVuSans-20"/>
     <use x="1067.982422" xlink:href="#DejaVuSans-28"/>
     <use x="1106.996094" xlink:href="#DejaVuSans-75"/>
     <use x="1170.375" xlink:href="#DejaVuSans-70"/>
     <use x="1233.851562" xlink:href="#DejaVuSans-64"/>
     <use x="1297.328125" xlink:href="#DejaVuSans-61"/>
     <use x="1358.607422" xlink:href="#DejaVuSans-74"/>
     <use x="1397.816406" xlink:href="#DejaVuSans-65"/>
     <use x="1459.339844" xlink:href="#DejaVuSans-20"/>
     <use x="1491.126953" xlink:href="#DejaVuSans-31"/>
     <use x="1554.75" xlink:href="#DejaVuSans-2e"/>
     <use x="1586.537109" xlink:href="#DejaVuSans-34"/>
     <use x="1650.160156" xlink:href="#DejaVuSans-29"/>
    </g>
   </g>
   <g id="text_2">
    <!-- Multiplayer Code -->
    <g style="fill:#0080ff;" transform="translate(172.01968 469.613667)scale(0.083666 -0.083666)">
     <defs>
      <path d="M 628 4666 
L 1569 4666 
L 2759 1491 
L 3956 4666 
L 4897 4666 
L 4897 0 
L 4281 0 
L 4281 4097 
L 3078 897 
L 2444 897 
L 1241 4097 
L 1241 0 
L 628 0 
L 628 4666 
z
" id="DejaVuSans-4d" transform="scale(0.015625)"/>
      <path d="M 603 3500 
L 1178 3500 
L 1178 0 
L 603 0 
L 603 3500 
z
M 603 4863 
L 1178 4863 
L 1178 4134 
L 603 4134 
L 603 4863 
z
" id="DejaVuSans-69" transform="scale(0.015625)"/>
      <path d="M 4122 4306 
L 4122 3641 
Q 3803 3938 3442 4084 
Q 3081 4231 2675 4231 
Q 1875 4231 1450 3742 
Q 1025 3253 1025 2328 
Q 1025 1406 1450 917 
Q 1875 428 2675 428 
Q 3081 428 3442 575 
Q 3803 722 4122 1019 
L 4122 359 
Q 3791 134 3420 21 
Q 3050 -91 2638 -91 
Q 1578 -91 968 557 
Q 359 1206 359 2328 
Q 359 3453 968 4101 
Q 1578 4750 2638 4750 
Q 3056 4750 3426 4639 
Q 3797 4528 4122 4306 
z
" id="DejaVuSans-43" transform="scale(0.015625)"/>
      <path d="M 1959 3097 
Q 1497 3097 1228 2736 
Q 959 2375 959 1747 
Q 959 1119 1226 758 
Q 1494 397 1959 397 
Q 2419 397 2687 759 
Q 2956 1122 2956 1747 
Q 2956 2369 2687 2733 
Q 2419 3097 1959 3097 
z
M 1959 3584 
Q 2709 3584 3137 3096 
Q 3566 2609 3566 1747 
Q 3566 888 3137 398 
Q 2709 -91 1959 -91 
Q 1206 -91 779 398 
Q 353 888 353 1747 
Q 353 2609 779 3096 
Q 1206 3584 1959 3584 
z
" id="DejaVuSans-6f" transform="scale(0.015625)"/>
     </defs>
     <use xlink:href="#DejaVuSans-4d"/>
     <use x="86.279297" xlink:href="#DejaVuSans-75"/>
     <use x="149.658203" xlink:href="#DejaVuSans-6c"/>
     <use x="177.441406" xlink:href="#DejaVuSans-74"/>
     <use x="216.650391" xlink:href="#DejaVuSans-69"/>
     <use x="244.433594" xlink:href="#DejaVuSans-70"/>
     <use x="307.910156" xlink:href="#DejaVuSans-6c"/>
     <use x="335.693359" xlink:href="#DejaVuSans-61"/>
     <use x="396.972656" xlink:href="#DejaVuSans-79"/>
     <use x="456.152344" xlink:href="#DejaVuSans-65"/>
     <use x="517.675781" xlink:href="#DejaVuSans-72"/>
     <use x="558.789062" xlink:href="#DejaVuSans-20"/>
     <use x="590.576172" xlink:href="#DejaVuSans-43"/>
     <use x="660.400391" xlink:href="#DejaVuSans-6f"/>
     <use x="721.582031" xlink:href="#DejaVuSans-64"/>
     <use x="785.058594" xlink:href="#DejaVuSans-65"/>
    </g>
   </g>
   <g id="text_3">
    <!-- Translation -->
    <g style="fill:#d88b00;" transform="translate(164.415058 258.870063)scale(0.037906 -0.037906)">
     <defs>
      <path d="M 3513 2113 
L 3513 0 
L 2938 0 
L 2938 2094 
Q 2938 2591 2744 2837 
Q 2550 3084 2163 3084 
Q 1697 3084 1428 2787 
Q 1159 2491 1159 1978 
L 1159 0 
L 581 0 
L 581 3500 
L 1159 3500 
L 1159 2956 
Q 1366 3272 1645 3428 
Q 1925 3584 2291 3584 
Q 2894 3584 3203 3211 
Q 3513 2838 3513 2113 
z
" id="DejaVuSans-6e" transform="scale(0.015625)"/>
      <path d="M 2834 3397 
L 2834 2853 
Q 2591 2978 2328 3040 
Q 2066 3103 1784 3103 
Q 1356 3103 1142 2972 
Q 928 2841 928 2578 
Q 928 2378 1081 2264 
Q 1234 2150 1697 2047 
L 1894 2003 
Q 2506 1872 2764 1633 
Q 3022 1394 3022 966 
Q 3022 478 2636 193 
Q 2250 -91 1575 -91 
Q 1294 -91 989 -36 
Q 684 19 347 128 
L 347 722 
Q 666 556 975 473 
Q 1284 391 1588 391 
Q 1994 391 2212 530 
Q 2431 669 2431 922 
Q 2431 1156 2273 1281 
Q 2116 1406 1581 1522 
L 1381 1569 
Q 847 1681 609 1914 
Q 372 2147 372 2553 
Q 372 3047 722 3315 
Q 1072 3584 1716 3584 
Q 2034 3584 2315 3537 
Q 2597 3491 2834 3397 
z
" id="DejaVuSans-73" transform="scale(0.015625)"/>
     </defs>
     <use xlink:href="#DejaVuSans-54"/>
     <use x="46.333984" xlink:href="#DejaVuSans-72"/>
     <use x="87.447266" xlink:href="#DejaVuSans-61"/>
     <use x="148.726562" xlink:href="#DejaVuSans-6e"/>
     <use x="212.105469" xlink:href="#DejaVuSans-73"/>
     <use x="264.205078" xlink:href="#DejaVuSans-6c"/>
     <use x="291.988281" xlink:href="#DejaVuSans-61"/>
     <use x="353.267578" xlink:href="#DejaVuSans-74"/>
     <use x="392.476562" xlink:href="#DejaVuSans-69"/>
     <use x="420.259766" xlink:href="#DejaVuSans-6f"/>
     <use x="481.441406" xlink:href="#DejaVuSans-6e"/>
    </g>
   </g>
   <g id="text_4">
    <!-- stardew-valley: Who worked with who?  -->
    <g transform="translate(102.177344 17.077969)scale(0.13 -0.13)">
     <defs>
      <path d="M 313 2009 
L 1997 2009 
L 1997 1497 
L 313 1497 
L 313 2009 
z
" id="DejaVuSans-2d" transform="scale(0.015625)"/>
      <path d="M 191 3500 
L 800 3500 
L 1894 563 
L 2988 3500 
L 3597 3500 
L 2284 0 
L 1503 0 
L 191 3500 
z
" id="DejaVuSans-76" transform="scale(0.015625)"/>
      <path d="M 750 794 
L 1409 794 
L 1409 0 
L 750 0 
L 750 794 
z
M 750 3309 
L 1409 3309 
L 1409 2516 
L 750 2516 
L 750 3309 
z
" id="DejaVuSans-3a" transform="scale(0.015625)"/>
      <path d="M 213 4666 
L 850 4666 
L 1831 722 
L 2809 4666 
L 3519 4666 
L 4500 722 
L 5478 4666 
L 6119 4666 
L 4947 0 
L 4153 0 
L 3169 4050 
L 2175 0 
L 1381 0 
L 213 4666 
z
" id="DejaVuSans-57" transform="scale(0.015625)"/>
      <path d="M 3513 2113 
L 3513 0 
L 2938 0 
L 2938 2094 
Q 2938 2591 2744 2837 
Q 2550 3084 2163 3084 
Q 1697 3084 1428 2787 
Q 1159 2491 1159 1978 
L 1159 0 
L 581 0 
L 581 4863 
L 1159 4863 
L 1159 2956 
Q 1366 3272 1645 3428 
Q 1925 3584 2291 3584 
Q 2894 3584 3203 3211 
Q 3513 2838 3513 2113 
z
" id="DejaVuSans-68" transform="scale(0.015625)"/>
      <path d="M 581 4863 
L 1159 4863 
L 1159 1991 
L 2875 3500 
L 3609 3500 
L 1753 1863 
L 3688 0 
L 2938 0 
L 1159 1709 
L 1159 0 
L 581 0 
L 581 4863 
z
" id="DejaVuSans-6b" transform="scale(0.015625)"/>
      <path d="M 1222 794 
L 1856 794 
L 1856 0 
L 1222 0 
L 1222 794 
z
M 1838 1253 
L 1241 1253 
L 1241 1734 
Q 1241 2050 1328 2253 
Q 1416 2456 1697 2725 
L 1978 3003 
Q 2156 3169 2236 3316 
Q 2316 3463 2316 3616 
Q 2316 3894 2111 4066 
Q 1906 4238 1569 4238 
Q 1322 4238 1042 4128 
Q 763 4019 459 3809 
L 459 4397 
Q 753 4575 1054 4662 
Q 1356 4750 1678 4750 
Q 2253 4750 2601 4447 
Q 2950 4144 2950 3647 
Q 2950 3409 2837 3195 
Q 2725 2981 2444 2713 
L 2169 2444 
Q 2022 2297 1961 2214 
Q 1900 2131 1875 2053 
Q 1856 1988 1847 1894 
Q 1838 1800 1838 1638 
L 1838 1253 
z
" id="DejaVuSans-3f" transform="scale(0.015625)"/>
     </defs>
     <use xlink:href="#DejaVuSans-73"/>
     <use x="52.099609" xlink:href="#DejaVuSans-74"/>
     <use x="91.308594" xlink:href="#DejaVuSans-61"/>
     <use x="152.587891" xlink:href="#DejaVuSans-72"/>
     <use x="191.951172" xlink:href="#DejaVuSans-64"/>
     <use x="255.427734" xlink:href="#DejaVuSans-65"/>
     <use x="316.951172" xlink:href="#DejaVuSans-77"/>
     <use x="398.738281" xlink:href="#DejaVuSans-2d"/>
     <use x="432.197266" xlink:href="#DejaVuSans-76"/>
     <use x="491.376953" xlink:href="#DejaVuSans-61"/>
     <use x="552.65625" xlink:href="#DejaVuSans-6c"/>
     <use x="580.439453" xlink:href="#DejaVuSans-6c"/>
     <use x="608.222656" xlink:href="#DejaVuSans-65"/>
     <use x="669.746094" xlink:href="#DejaVuSans-79"/>
     <use x="721.675781" xlink:href="#DejaVuSans-3a"/>
     <use x="755.367188" xlink:href="#DejaVuSans-20"/>
     <use x="787.154297" xlink:href="#DejaVuSans-57"/>
     <use x="886.03125" xlink:href="#DejaVuSans-68"/>
     <use x="949.410156" xlink:href="#DejaVuSans-6f"/>
     <use x="1010.591797" xlink:href="#DejaVuSans-20"/>
     <use x="1042.378906" xlink:href="#DejaVuSans-77"/>
     <use x="1124.166016" xlink:href="#DejaVuSans-6f"/>
     <use x="1185.347656" xlink:href="#DejaVuSans-72"/>
     <use x="1226.460938" xlink:href="#DejaVuSans-6b"/>
     <use x="1280.746094" xlink:href="#DejaVuSans-65"/>
     <use x="1342.269531" xlink:href="#DejaVuSans-64"/>
     <use x="1405.746094" xlink:href="#DejaVuSans-20"/>
     <use x="1437.533203" xlink:href="#DejaVuSans-77"/>
     <use x="1519.320312" xlink:href="#DejaVuSans-69"/>
     <use x="1547.103516" xlink:href="#DejaVuSans-74"/>
     <use x="1586.3125" xlink:href="#DejaVuSans-68"/>
     <use x="1649.691406" xlink:href="#DejaVuSans-20"/>
     <use x="1681.478516" xlink:href="#DejaVuSans-77"/>
     <use x="1763.265625" xlink:href="#DejaVuSans-68"/>
     <use x="1826.644531" xlink:href="#DejaVuSans-6f"/>
     <use x="1887.826172" xlink:href="#DejaVuSans-3f"/>
     <use x="1940.902344" xlink:href="#DejaVuSans-20"/>
    </g>
    <!-- Prior shared game dev experience network of members  -->
    <g transform="translate(46.849141 31.635125)scale(0.13 -0.13)">
     <defs>
      <path d="M 1259 4147 
L 1259 2394 
L 2053 2394 
Q 2494 2394 2734 2622 
Q 2975 2850 2975 3272 
Q 2975 3691 2734 3919 
Q 2494 4147 2053 4147 
L 1259 4147 
z
M 628 4666 
L 2053 4666 
Q 2838 4666 3239 4311 
Q 3641 3956 3641 3272 
Q 3641 2581 3239 2228 
Q 2838 1875 2053 1875 
L 1259 1875 
L 1259 0 
L 628 0 
L 628 4666 
z
" id="DejaVuSans-50" transform="scale(0.015625)"/>
      <path d="M 2906 1791 
Q 2906 2416 2648 2759 
Q 2391 3103 1925 3103 
Q 1463 3103 1205 2759 
Q 947 2416 947 1791 
Q 947 1169 1205 825 
Q 1463 481 1925 481 
Q 2391 481 2648 825 
Q 2906 1169 2906 1791 
z
M 3481 434 
Q 3481 -459 3084 -895 
Q 2688 -1331 1869 -1331 
Q 1566 -1331 1297 -1286 
Q 1028 -1241 775 -1147 
L 775 -588 
Q 1028 -725 1275 -790 
Q 1522 -856 1778 -856 
Q 2344 -856 2625 -561 
Q 2906 -266 2906 331 
L 2906 616 
Q 2728 306 2450 153 
Q 2172 0 1784 0 
Q 1141 0 747 490 
Q 353 981 353 1791 
Q 353 2603 747 3093 
Q 1141 3584 1784 3584 
Q 2172 3584 2450 3431 
Q 2728 3278 2906 2969 
L 2906 3500 
L 3481 3500 
L 3481 434 
z
" id="DejaVuSans-67" transform="scale(0.015625)"/>
      <path d="M 3513 3500 
L 2247 1797 
L 3578 0 
L 2900 0 
L 1881 1375 
L 863 0 
L 184 0 
L 1544 1831 
L 300 3500 
L 978 3500 
L 1906 2253 
L 2834 3500 
L 3513 3500 
z
" id="DejaVuSans-78" transform="scale(0.015625)"/>
      <path d="M 3122 3366 
L 3122 2828 
Q 2878 2963 2633 3030 
Q 2388 3097 2138 3097 
Q 1578 3097 1268 2742 
Q 959 2388 959 1747 
Q 959 1106 1268 751 
Q 1578 397 2138 397 
Q 2388 397 2633 464 
Q 2878 531 3122 666 
L 3122 134 
Q 2881 22 2623 -34 
Q 2366 -91 2075 -91 
Q 1284 -91 818 406 
Q 353 903 353 1747 
Q 353 2603 823 3093 
Q 1294 3584 2113 3584 
Q 2378 3584 2631 3529 
Q 2884 3475 3122 3366 
z
" id="DejaVuSans-63" transform="scale(0.015625)"/>
      <path d="M 2375 4863 
L 2375 4384 
L 1825 4384 
Q 1516 4384 1395 4259 
Q 1275 4134 1275 3809 
L 1275 3500 
L 2222 3500 
L 2222 3053 
L 1275 3053 
L 1275 0 
L 697 0 
L 697 3053 
L 147 3053 
L 147 3500 
L 697 3500 
L 697 3744 
Q 697 4328 969 4595 
Q 1241 4863 1831 4863 
L 2375 4863 
z
" id="DejaVuSans-66" transform="scale(0.015625)"/>
      <path d="M 3116 1747 
Q 3116 2381 2855 2742 
Q 2594 3103 2138 3103 
Q 1681 3103 1420 2742 
Q 1159 2381 1159 1747 
Q 1159 1113 1420 752 
Q 1681 391 2138 391 
Q 2594 391 2855 752 
Q 3116 1113 3116 1747 
z
M 1159 2969 
Q 1341 3281 1617 3432 
Q 1894 3584 2278 3584 
Q 2916 3584 3314 3078 
Q 3713 2572 3713 1747 
Q 3713 922 3314 415 
Q 2916 -91 2278 -91 
Q 1894 -91 1617 61 
Q 1341 213 1159 525 
L 1159 0 
L 581 0 
L 581 4863 
L 1159 4863 
L 1159 2969 
z
" id="DejaVuSans-62" transform="scale(0.015625)"/>
     </defs>
     <use xlink:href="#DejaVuSans-50"/>
     <use x="58.552734" xlink:href="#DejaVuSans-72"/>
     <use x="99.666016" xlink:href="#DejaVuSans-69"/>
     <use x="127.449219" xlink:href="#DejaVuSans-6f"/>
     <use x="188.630859" xlink:href="#DejaVuSans-72"/>
     <use x="229.744141" xlink:href="#DejaVuSans-20"/>
     <use x="261.53125" xlink:href="#DejaVuSans-73"/>
     <use x="313.630859" xlink:href="#DejaVuSans-68"/>
     <use x="377.009766" xlink:href="#DejaVuSans-61"/>
     <use x="438.289062" xlink:href="#DejaVuSans-72"/>
     <use x="477.152344" xlink:href="#DejaVuSans-65"/>
     <use x="538.675781" xlink:href="#DejaVuSans-64"/>
     <use x="602.152344" xlink:href="#DejaVuSans-20"/>
     <use x="633.939453" xlink:href="#DejaVuSans-67"/>
     <use x="697.416016" xlink:href="#DejaVuSans-61"/>
     <use x="758.695312" xlink:href="#DejaVuSans-6d"/>
     <use x="856.107422" xlink:href="#DejaVuSans-65"/>
     <use x="917.630859" xlink:href="#DejaVuSans-20"/>
     <use x="949.417969" xlink:href="#DejaVuSans-64"/>
     <use x="1012.894531" xlink:href="#DejaVuSans-65"/>
     <use x="1074.417969" xlink:href="#DejaVuSans-76"/>
     <use x="1133.597656" xlink:href="#DejaVuSans-20"/>
     <use x="1165.384766" xlink:href="#DejaVuSans-65"/>
     <use x="1225.158203" xlink:href="#DejaVuSans-78"/>
     <use x="1284.337891" xlink:href="#DejaVuSans-70"/>
     <use x="1347.814453" xlink:href="#DejaVuSans-65"/>
     <use x="1409.337891" xlink:href="#DejaVuSans-72"/>
     <use x="1450.451172" xlink:href="#DejaVuSans-69"/>
     <use x="1478.234375" xlink:href="#DejaVuSans-65"/>
     <use x="1539.757812" xlink:href="#DejaVuSans-6e"/>
     <use x="1603.136719" xlink:href="#DejaVuSans-63"/>
     <use x="1658.117188" xlink:href="#DejaVuSans-65"/>
     <use x="1719.640625" xlink:href="#DejaVuSans-20"/>
     <use x="1751.427734" xlink:href="#DejaVuSans-6e"/>
     <use x="1814.806641" xlink:href="#DejaVuSans-65"/>
     <use x="1876.330078" xlink:href="#DejaVuSans-74"/>
     <use x="1915.539062" xlink:href="#DejaVuSans-77"/>
     <use x="1997.326172" xlink:href="#DejaVuSans-6f"/>
     <use x="2058.507812" xlink:href="#DejaVuSans-72"/>
     <use x="2099.621094" xlink:href="#DejaVuSans-6b"/>
     <use x="2157.53125" xlink:href="#DejaVuSans-20"/>
     <use x="2189.318359" xlink:href="#DejaVuSans-6f"/>
     <use x="2250.5" xlink:href="#DejaVuSans-66"/>
     <use x="2285.705078" xlink:href="#DejaVuSans-20"/>
     <use x="2317.492188" xlink:href="#DejaVuSans-6d"/>
     <use x="2414.904297" xlink:href="#DejaVuSans-65"/>
     <use x="2476.427734" xlink:href="#DejaVuSans-6d"/>
     <use x="2573.839844" xlink:href="#DejaVuSans-62"/>
     <use x="2637.316406" xlink:href="#DejaVuSans-65"/>
     <use x="2698.839844" xlink:href="#DejaVuSans-72"/>
     <use x="2739.953125" xlink:href="#DejaVuSans-73"/>
     <use x="2792.052734" xlink:href="#DejaVuSans-20"/>
    </g>
    <!-- (colored by their role in dev team) -->
    <g transform="translate(118.759453 46.192281)scale(0.13 -0.13)">
     <use xlink:href="#DejaVuSans-28"/>
     <use x="39.013672" xlink:href="#DejaVuSans-63"/>
     <use x="93.994141" xlink:href="#DejaVuSans-6f"/>
     <use x="155.175781" xlink:href="#DejaVuSans-6c"/>
     <use x="182.958984" xlink:href="#DejaVuSans-6f"/>
     <use x="244.140625" xlink:href="#DejaVuSans-72"/>
     <use x="283.003906" xlink:href="#DejaVuSans-65"/>
     <use x="344.527344" xlink:href="#DejaVuSans-64"/>
     <use x="408.003906" xlink:href="#DejaVuSans-20"/>
     <use x="439.791016" xlink:href="#DejaVuSans-62"/>
     <use x="503.267578" xlink:href="#DejaVuSans-79"/>
     <use x="562.447266" xlink:href="#DejaVuSans-20"/>
     <use x="594.234375" xlink:href="#DejaVuSans-74"/>
     <use x="633.443359" xlink:href="#DejaVuSans-68"/>
     <use x="696.822266" xlink:href="#DejaVuSans-65"/>
     <use x="758.345703" xlink:href="#DejaVuSans-69"/>
     <use x="786.128906" xlink:href="#DejaVuSans-72"/>
     <use x="827.242188" xlink:href="#DejaVuSans-20"/>
     <use x="859.029297" xlink:href="#DejaVuSans-72"/>
     <use x="897.892578" xlink:href="#DejaVuSans-6f"/>
     <use x="959.074219" xlink:href="#DejaVuSans-6c"/>
     <use x="986.857422" xlink:href="#DejaVuSans-65"/>
     <use x="1048.380859" xlink:href="#DejaVuSans-20"/>
     <use x="1080.167969" xlink:href="#DejaVuSans-69"/>
     <use x="1107.951172" xlink:href="#DejaVuSans-6e"/>
     <use x="1171.330078" xlink:href="#DejaVuSans-20"/>
     <use x="1203.117188" xlink:href="#DejaVuSans-64"/>
     <use x="1266.59375" xlink:href="#DejaVuSans-65"/>
     <use x="1328.117188" xlink:href="#DejaVuSans-76"/>
     <use x="1387.296875" xlink:href="#DejaVuSans-20"/>
     <use x="1419.083984" xlink:href="#DejaVuSans-74"/>
     <use x="1458.292969" xlink:href="#DejaVuSans-65"/>
     <use x="1519.816406" xlink:href="#DejaVuSans-61"/>
     <use x="1581.095703" xlink:href="#DejaVuSans-6d"/>
     <use x="1678.507812" xlink:href="#DejaVuSans-29"/>
    </g>
   </g>
   <g id="legend_1">
    <g id="patch_2">
     <path d="M 458.5 99.262281 
L 692.005781 99.262281 
Q 693.405781 99.262281 693.405781 97.862281 
L 693.405781 57.092281 
Q 693.405781 55.692281 692.005781 55.692281 
L 458.5 55.692281 
Q 457.1 55.692281 457.1 57.092281 
L 457.1 97.862281 
Q 457.1 99.262281 458.5 99.262281 
z
" style="fill:#ffffff;opacity:0.8;stroke:#cccccc;stroke-linejoin:miter;stroke-width:1.5;"/>
    </g>
    <g id="text_5">
     <!-- Roles -->
     <g transform="translate(551.170859 72.169469)scale(0.18 -0.18)">
      <defs>
       <path d="M 2841 2188 
Q 3044 2119 3236 1894 
Q 3428 1669 3622 1275 
L 4263 0 
L 3584 0 
L 2988 1197 
Q 2756 1666 2539 1819 
Q 2322 1972 1947 1972 
L 1259 1972 
L 1259 0 
L 628 0 
L 628 4666 
L 2053 4666 
Q 2853 4666 3247 4331 
Q 3641 3997 3641 3322 
Q 3641 2881 3436 2590 
Q 3231 2300 2841 2188 
z
M 1259 4147 
L 1259 2491 
L 2053 2491 
Q 2509 2491 2742 2702 
Q 2975 2913 2975 3322 
Q 2975 3731 2742 3939 
Q 2509 4147 2053 4147 
L 1259 4147 
z
" id="DejaVuSans-52" transform="scale(0.015625)"/>
      </defs>
      <use xlink:href="#DejaVuSans-52"/>
      <use x="64.982422" xlink:href="#DejaVuSans-6f"/>
      <use x="126.164062" xlink:href="#DejaVuSans-6c"/>
      <use x="153.947266" xlink:href="#DejaVuSans-65"/>
      <use x="215.470703" xlink:href="#DejaVuSans-73"/>
     </g>
    </g>
    <g id="patch_3">
     <path d="M 459.9 84.731812 
L 473.9 84.731812 
L 473.9 79.831812 
L 459.9 79.831812 
z
" style="fill:#f401dd;stroke:#f401dd;stroke-linejoin:miter;stroke-width:1.5;"/>
    </g>
    <g id="text_6">
     <!-- Stardew Valley created by -->
     <g transform="translate(479.5 84.731812)scale(0.07 -0.07)">
      <use xlink:href="#DejaVuSans-53"/>
      <use x="63.476562" xlink:href="#DejaVuSans-74"/>
      <use x="102.685547" xlink:href="#DejaVuSans-61"/>
      <use x="163.964844" xlink:href="#DejaVuSans-72"/>
      <use x="203.328125" xlink:href="#DejaVuSans-64"/>
      <use x="266.804688" xlink:href="#DejaVuSans-65"/>
      <use x="328.328125" xlink:href="#DejaVuSans-77"/>
      <use x="410.115234" xlink:href="#DejaVuSans-20"/>
      <use x="441.902344" xlink:href="#DejaVuSans-56"/>
      <use x="502.560547" xlink:href="#DejaVuSans-61"/>
      <use x="563.839844" xlink:href="#DejaVuSans-6c"/>
      <use x="591.623047" xlink:href="#DejaVuSans-6c"/>
      <use x="619.40625" xlink:href="#DejaVuSans-65"/>
      <use x="680.929688" xlink:href="#DejaVuSans-79"/>
      <use x="740.109375" xlink:href="#DejaVuSans-20"/>
      <use x="771.896484" xlink:href="#DejaVuSans-63"/>
      <use x="826.876953" xlink:href="#DejaVuSans-72"/>
      <use x="865.740234" xlink:href="#DejaVuSans-65"/>
      <use x="927.263672" xlink:href="#DejaVuSans-61"/>
      <use x="988.542969" xlink:href="#DejaVuSans-74"/>
      <use x="1027.751953" xlink:href="#DejaVuSans-65"/>
      <use x="1089.275391" xlink:href="#DejaVuSans-64"/>
      <use x="1152.751953" xlink:href="#DejaVuSans-20"/>
      <use x="1184.539062" xlink:href="#DejaVuSans-62"/>
      <use x="1248.015625" xlink:href="#DejaVuSans-79"/>
     </g>
    </g>
    <g id="patch_4">
     <path d="M 459.9 95.0065 
L 473.9 95.0065 
L 473.9 90.1065 
L 459.9 90.1065 
z
" style="fill:#00ff00;stroke:#00ff00;stroke-linejoin:miter;stroke-width:1.5;"/>
    </g>
    <g id="text_7">
     <!-- Stardew Valley Team (update 1.4) -->
     <g transform="translate(479.5 95.0065)scale(0.07 -0.07)">
      <use xlink:href="#DejaVuSans-53"/>
      <use x="63.476562" xlink:href="#DejaVuSans-74"/>
      <use x="102.685547" xlink:href="#DejaVuSans-61"/>
      <use x="163.964844" xlink:href="#DejaVuSans-72"/>
      <use x="203.328125" xlink:href="#DejaVuSans-64"/>
      <use x="266.804688" xlink:href="#DejaVuSans-65"/>
      <use x="328.328125" xlink:href="#DejaVuSans-77"/>
      <use x="410.115234" xlink:href="#DejaVuSans-20"/>
      <use x="441.902344" xlink:href="#DejaVuSans-56"/>
      <use x="502.560547" xlink:href="#DejaVuSans-61"/>
      <use x="563.839844" xlink:href="#DejaVuSans-6c"/>
      <use x="591.623047" xlink:href="#DejaVuSans-6c"/>
      <use x="619.40625" xlink:href="#DejaVuSans-65"/>
      <use x="680.929688" xlink:href="#DejaVuSans-79"/>
      <use x="740.109375" xlink:href="#DejaVuSans-20"/>
      <use x="771.896484" xlink:href="#DejaVuSans-54"/>
      <use x="815.980469" xlink:href="#DejaVuSans-65"/>
      <use x="877.503906" xlink:href="#DejaVuSans-61"/>
      <use x="938.783203" xlink:href="#DejaVuSans-6d"/>
      <use x="1036.195312" xlink:href="#DejaVuSans-20"/>
      <use x="1067.982422" xlink:href="#DejaVuSans-28"/>
      <use x="1106.996094" xlink:href="#DejaVuSans-75"/>
      <use x="1170.375" xlink:href="#DejaVuSans-70"/>
      <use x="1233.851562" xlink:href="#DejaVuSans-64"/>
      <use x="1297.328125" xlink:href="#DejaVuSans-61"/>
      <use x="1358.607422" xlink:href="#DejaVuSans-74"/>
      <use x="1397.816406" xlink:href="#DejaVuSans-65"/>
      <use x="1459.339844" xlink:href="#DejaVuSans-20"/>
      <use x="1491.126953" xlink:href="#DejaVuSans-31"/>
      <use x="1554.75" xlink:href="#DejaVuSans-2e"/>
      <use x="1586.537109" xlink:href="#DejaVuSans-34"/>
      <use x="1650.160156" xlink:href="#DejaVuSans-29"/>
     </g>
    </g>
    <g id="patch_5">
     <path d="M 611.743125 84.731812 
L 625.743125 84.731812 
L 625.743125 79.831812 
L 611.743125 79.831812 
z
" style="fill:#0080ff;stroke:#0080ff;stroke-linejoin:miter;stroke-width:1.5;"/>
    </g>
    <g id="text_8">
     <!-- Multiplayer Code -->
     <g transform="translate(631.343125 84.731812)scale(0.07 -0.07)">
      <use xlink:href="#DejaVuSans-4d"/>
      <use x="86.279297" xlink:href="#DejaVuSans-75"/>
      <use x="149.658203" xlink:href="#DejaVuSans-6c"/>
      <use x="177.441406" xlink:href="#DejaVuSans-74"/>
      <use x="216.650391" xlink:href="#DejaVuSans-69"/>
      <use x="244.433594" xlink:href="#DejaVuSans-70"/>
      <use x="307.910156" xlink:href="#DejaVuSans-6c"/>
      <use x="335.693359" xlink:href="#DejaVuSans-61"/>
      <use x="396.972656" xlink:href="#DejaVuSans-79"/>
      <use x="456.152344" xlink:href="#DejaVuSans-65"/>
      <use x="517.675781" xlink:href="#DejaVuSans-72"/>
      <use x="558.789062" xlink:href="#DejaVuSans-20"/>
      <use x="590.576172" xlink:href="#DejaVuSans-43"/>
      <use x="660.400391" xlink:href="#DejaVuSans-6f"/>
      <use x="721.582031" xlink:href="#DejaVuSans-64"/>
      <use x="785.058594" xlink:href="#DejaVuSans-65"/>
     </g>
    </g>
    <g id="patch_6">
     <path d="M 611.743125 95.0065 
L 625.743125 95.0065 
L 625.743125 90.1065 
L 611.743125 90.1065 
z
" style="fill:#d88b00;stroke:#d88b00;stroke-linejoin:miter;stroke-width:1.5;"/>
    </g>
    <g id="text_9">
     <!-- Translation -->
     <g transform="translate(631.343125 95.0065)scale(0.07 -0.07)">
      <use xlink:href="#DejaVuSans-54"/>
      <use x="46.333984" xlink:href="#DejaVuSans-72"/>
      <use x="87.447266" xlink:href="#DejaVuSans-61"/>
      <use x="148.726562" xlink:href="#DejaVuSans-6e"/>
      <use x="212.105469" xlink:href="#DejaVuSans-73"/>
      <use x="264.205078" xlink:href="#DejaVuSans-6c"/>
      <use x="291.988281" xlink:href="#DejaVuSans-61"/>
      <use x="353.267578" xlink:href="#DejaVuSans-74"/>
      <use x="392.476562" xlink:href="#DejaVuSans-69"/>
      <use x="420.259766" xlink:href="#DejaVuSans-6f"/>
      <use x="481.441406" xlink:href="#DejaVuSans-6e"/>
     </g>
    </g>
   </g>
  </g>
 </g>
 <defs>
  <clipPath id="pe895f9fe23">
   <rect height="434.88" width="446.4" x="7.2" y="52.192281"/>
  </clipPath>
 </defs>
</svg>
